<svg width="24" height="24" viewBox="0 0 24 24" fill="none" xmlns="http://www.w3.org/2000/svg">
<mask id="mask0" mask-type="alpha" maskUnits="userSpaceOnUse" x="0" y="0" width="24" height="24">
<rect width="24" height="24" fill="#C4C4C4"/>
</mask>
<g mask="url(#mask0)">
<path fill-rule="evenodd" clip-rule="evenodd" d="M20.5841 22.6093C21.2007 23.2259 22.2005 23.2259 22.8171 22.6093C23.4337 21.9927 23.4337 20.9929 22.8171 20.3763L14.4479 12.0071L22.8242 3.63076C23.4408 3.01415 23.4408 2.01441 22.8242 1.39779C22.2076 0.781177 21.2079 0.781176 20.5913 1.39779L12.2149 9.77413L3.83687 1.39609C3.22025 0.779469 2.22052 0.77947 1.6039 1.39609C0.98728 2.0127 0.98728 3.01244 1.6039 3.62906L9.98194 12.0071L1.61102 20.378C0.994398 20.9946 0.994397 21.9944 1.61101 22.611C2.22763 23.2276 3.22737 23.2276 3.84398 22.611L12.2149 14.2401L20.5841 22.6093Z" fill="#787878"/>
</g>
</svg>
