<svg width="24" height="24" viewBox="0 0 24 24" fill="none" xmlns="http://www.w3.org/2000/svg">
<path d="M15.8907 1.16406H7.41328C3.96799 1.16406 1.16504 3.96321 1.16504 7.40383V15.8698C1.16504 19.3104 3.96799 22.1095 7.41328 22.1095H15.8907C19.336 22.1095 22.139 19.3104 22.139 15.8698V7.40383C22.1389 3.96321 19.336 1.16406 15.8907 1.16406ZM20.029 15.8698C20.029 18.1521 18.1762 20.0024 15.8907 20.0024H7.41328C5.1278 20.0024 3.27501 18.1521 3.27501 15.8698V7.40383C3.27501 5.12141 5.1278 3.27117 7.41328 3.27117H15.8907C18.1762 3.27117 20.029 5.12141 20.029 7.40383V15.8698Z" fill="#B81F21"/>
<path d="M11.6502 6.21777C8.65906 6.21777 6.22559 8.64794 6.22559 11.635C6.22559 14.622 8.65906 17.0522 11.6502 17.0522C14.6413 17.0522 17.0748 14.622 17.0748 11.635C17.0748 8.6479 14.6413 6.21777 11.6502 6.21777ZM11.6502 14.9451C9.81956 14.9451 8.33556 13.4632 8.33556 11.635C8.33556 9.80687 9.81959 8.32489 11.6502 8.32489C13.4808 8.32489 14.9648 9.80687 14.9648 11.635C14.9648 13.4631 13.4808 14.9451 11.6502 14.9451Z" fill="#B81F21"/>
<path d="M17.087 7.5571C17.8048 7.5571 18.3868 6.97593 18.3868 6.25902C18.3868 5.54211 17.8048 4.96094 17.087 4.96094C16.3691 4.96094 15.7871 5.54211 15.7871 6.25902C15.7871 6.97593 16.3691 7.5571 17.087 7.5571Z" fill="#B81F21"/>
</svg>
