<svg width="24" height="24" viewBox="0 0 24 24" fill="none" xmlns="http://www.w3.org/2000/svg">
<g clip-path="url(#clip0)">
<path fill-rule="evenodd" clip-rule="evenodd" d="M21.4656 4.72594C22.4638 4.9944 23.2509 5.78027 23.5195 6.77724C24.0188 8.59826 23.9996 12.3941 23.9996 12.3941C23.9996 12.3941 23.9996 16.1705 23.5197 17.9917C23.2509 18.9885 22.4639 19.7745 21.4656 20.0428C19.6419 20.5222 12.3474 20.5222 12.3474 20.5222C12.3474 20.5222 5.07197 20.5222 3.22928 20.0238C2.23095 19.7554 1.44402 18.9693 1.17519 17.9725C0.695312 16.1705 0.695312 12.3749 0.695312 12.3749C0.695312 12.3749 0.695312 8.59826 1.17519 6.77724C1.44384 5.78044 2.25015 4.97523 3.2291 4.70694C5.05277 4.22754 12.3473 4.22754 12.3473 4.22754C12.3473 4.22754 19.6419 4.22754 21.4656 4.72594ZM16.0898 12.3745L10.0238 15.8635V8.88547L16.0898 12.3745Z" fill="#B81F21"/>
</g>
<defs>
<clipPath id="clip0">
<rect x="0.695312" y="0.726562" width="23.3043" height="23.2727" fill="white"/>
</clipPath>
</defs>
</svg>
