<svg width="20" height="20" viewBox="0 0 20 20" fill="none" xmlns="http://www.w3.org/2000/svg">
<path fill-rule="evenodd" clip-rule="evenodd" d="M9.9999 3.625C15.4371 3.625 19.6942 9.36521 19.8729 9.60962C20.0423 9.84126 20.0423 10.156 19.8729 10.3878C19.6942 10.632 15.4371 16.3723 9.9999 16.3723C4.56274 16.3723 0.305391 10.632 0.126914 10.3876C-0.0423048 10.1558 -0.0423048 9.84126 0.126914 9.60939C0.305391 9.36521 4.56274 3.625 9.9999 3.625ZM1.49922 9.99818C2.52606 11.2437 5.99486 15.0536 9.9999 15.0536C14.0135 15.0536 17.4751 11.2456 18.5006 9.99907C17.4733 8.7529 14.0048 4.94367 9.9999 4.94367C5.98626 4.94367 2.52473 8.75157 1.49922 9.99818ZM6.04395 9.99902C6.04395 7.81769 7.81868 6.04297 10 6.04297C12.1813 6.04297 13.9561 7.81769 13.9561 9.99902C13.9561 12.1803 12.1813 13.9551 10 13.9551C7.81868 13.9551 6.04395 12.1803 6.04395 9.99902ZM7.36266 9.99902C7.36266 11.4533 8.54571 12.6364 10 12.6364C11.4543 12.6364 12.6374 11.4533 12.6374 9.99902C12.6374 8.54476 11.4543 7.36168 10 7.36168C8.54575 7.36168 7.36266 8.54476 7.36266 9.99902Z" fill="#B81F21"/>
</svg>
