<svg width="56" height="56" viewBox="0 0 56 56" fill="none" xmlns="http://www.w3.org/2000/svg">
<g clip-path="url(#clip0)">
<path d="M21.4388 14.2923C21.049 14.2923 20.6592 14.6821 20.6592 15.0719V17.0209C20.6592 17.4107 21.049 17.8005 21.4388 17.8005C21.8286 17.8005 22.2183 17.4107 22.2183 17.0209V15.0719C22.2183 14.6821 21.9585 14.2923 21.4388 14.2923Z" fill="#333333"/>
<path d="M11.8235 14.2923C11.4337 14.2923 11.0439 14.6821 11.0439 15.0719V17.0209C11.0439 17.4107 11.4337 17.8005 11.8235 17.8005C12.2133 17.8005 12.6031 17.4107 12.6031 17.0209V15.0719C12.6031 14.6821 12.3433 14.2923 11.8235 14.2923Z" fill="#333333"/>
<path d="M43.2668 28.1966C40.5383 23.5191 36.7703 19.7511 32.4826 17.4124C32.3527 15.2035 31.5731 13.1247 30.2738 11.3056C30.4037 10.9158 30.5336 10.5261 30.6636 10.1363C31.8329 5.71863 29.4942 0.65134 27.5452 0.131619C25.8561 -0.258172 22.7378 1.95064 21.0487 5.1989C19.6195 4.80911 18.1903 4.67918 16.761 4.67918C15.3318 4.67918 13.7726 4.80911 12.4733 5.1989C10.6543 1.82071 7.40603 -0.388103 5.71694 0.00168829C3.76798 0.52141 1.55916 5.5887 2.72854 10.1363C2.85847 10.5261 2.9884 10.9158 3.11833 11.3056C1.55916 13.2546 0.779582 15.5933 0.779582 18.1919C0.779582 22.2198 2.85847 25.9878 6.23666 28.4564C5.84687 31.7047 7.14617 40.1502 10.2645 43.7882C9.09513 44.178 7.79582 44.5678 6.62645 45.0875C3.50812 46.5168 0 49.895 0 55.2221C0 55.6119 0.389791 56.0017 0.779582 56.0017H31.8329C33.9118 56.0017 35.8608 55.7418 37.6798 55.2221C38.0696 55.0922 38.3295 54.7024 38.1995 54.1827C38.0696 53.7929 37.6798 53.533 37.1601 53.6629C35.6009 54.1827 33.7819 54.3126 31.8329 54.3126H1.6891C1.94896 50.8045 4.02784 47.946 7.40603 46.3868C13.6427 43.6583 20.2691 43.3984 26.6357 45.6073C27.0255 45.7372 27.5452 45.4773 27.6752 45.0875C27.8051 44.6977 27.5452 44.178 27.1555 44.0481C22.2181 42.359 17.1508 42.0991 12.2135 43.1386C9.35499 40.7998 7.79582 33.1339 7.79582 29.366C10.2645 30.7952 13.3828 31.7047 16.6311 31.7047C24.9466 31.7047 31.703 26.2476 32.3527 19.2314C36.1206 21.4402 39.3689 24.8184 41.8376 28.9762C41.9675 29.236 42.2274 29.366 42.4872 29.366C42.6172 29.366 42.7471 29.366 42.877 29.236C43.3968 28.9762 43.5267 28.5864 43.2668 28.1966ZM27.1555 1.56085C27.935 1.82071 30.1439 5.5887 29.1044 9.61654C28.065 8.44716 26.7657 7.40772 25.2065 6.62814C25.7262 5.32883 26.116 4.54925 26.8956 3.8996C27.2854 3.63974 27.2854 3.12002 26.8956 2.73023C26.6357 2.34044 26.116 2.34044 25.7262 2.73023C24.6868 3.63974 24.1671 4.67918 23.6473 5.97849C23.2575 5.84856 22.8677 5.71863 22.478 5.45876C24.0371 2.86016 26.5058 1.56085 27.1555 1.56085ZM4.2877 9.74647C3.24826 5.71863 5.45708 1.95064 6.23666 1.69078C6.88631 1.56085 9.22506 2.99009 10.7842 5.5887C10.3944 5.71863 10.0046 5.84856 9.61485 5.97849C9.09513 4.67918 8.57541 3.76967 7.53596 2.73023C7.14617 2.47037 6.75638 2.47037 6.36659 2.73023C6.10673 3.12002 6.10673 3.63974 6.49652 4.02953C7.2761 4.80911 7.66589 5.45876 8.18561 6.75807C6.62645 7.53765 5.32715 8.57709 4.2877 9.74647ZM16.6311 30.0156C8.83527 30.0156 2.46868 24.6885 2.46868 18.062C2.46868 11.4356 8.83527 6.10842 16.6311 6.10842C24.4269 6.10842 30.9234 11.5655 30.9234 18.1919C30.9234 24.8184 24.4269 30.0156 16.6311 30.0156Z" fill="#333333"/>
<path d="M19.2298 25.4664C18.3203 25.4664 17.6707 24.8167 17.4108 24.0371C18.1904 23.5174 18.7101 22.9977 19.0999 22.2181C19.7495 21.1787 19.6196 20.1392 18.84 19.3596C18.4502 18.9698 17.9305 18.71 17.4108 18.71C17.021 18.71 16.7611 18.8399 16.5013 18.9698C15.7217 18.5801 14.8122 18.71 14.0326 19.3596C13.253 20.1392 13.253 21.1787 13.9027 22.2181C14.2925 22.8678 14.8122 23.3875 15.5918 23.9072C15.4618 24.6868 14.6823 25.3364 13.7727 25.3364C13.383 25.3364 12.9932 25.7262 12.9932 26.116C12.9932 26.5058 13.383 26.8956 13.7727 26.8956C14.8122 26.8956 15.7217 26.3759 16.3714 25.5963C17.021 26.3759 17.9305 26.8956 18.97 26.8956C19.3598 26.8956 19.7495 26.5058 19.7495 26.116C19.7495 25.7262 19.7495 25.4664 19.2298 25.4664ZM15.3319 20.529C15.4618 20.3991 15.5918 20.3991 15.7217 20.3991C15.8516 20.3991 15.9816 20.3991 16.1115 20.529C16.2414 20.6589 16.5013 20.7889 16.6312 20.7889C16.8911 20.7889 17.021 20.6589 17.1509 20.529C17.2809 20.3991 17.4108 20.3991 17.5407 20.3991C17.6707 20.3991 17.8006 20.3991 17.9305 20.529C18.1904 20.7889 18.0604 21.0487 17.9305 21.4385C17.6707 21.9582 17.2809 22.348 16.7611 22.6079C16.2414 22.2181 15.8516 21.8283 15.5918 21.4385C15.202 21.0487 15.202 20.7889 15.3319 20.529Z" fill="#333333"/>
<path d="M55.2204 40.7981H44.8259C44.4362 40.7981 44.1763 40.9281 44.0464 41.3179L41.5777 47.2947L39.109 41.3179L35.8608 33.652C35.8608 33.652 35.8608 33.652 35.8608 33.522L35.7308 33.3921L35.6009 33.2622C35.6009 33.2622 35.6009 33.2622 35.471 33.1322C35.341 33.1322 35.2111 33.1322 35.0812 33.1322H34.9512C34.9512 33.1322 34.8213 33.1322 34.8213 33.2622C34.8213 33.2622 34.6914 33.2622 34.6914 33.3921L34.5614 33.522C34.5614 33.522 34.5614 33.522 34.5614 33.652L31.1833 40.7981H22.2181C21.8283 40.7981 21.4385 41.1879 21.4385 41.5777C21.4385 41.9675 21.8283 42.3573 22.2181 42.3573H31.703C32.0928 42.3573 32.3526 42.2274 32.4826 41.8376L34.9512 35.8608L37.4199 41.8376L40.6682 49.5035C40.6682 49.6334 40.7981 49.7633 40.928 49.7633C40.928 49.7633 40.928 49.7633 41.058 49.7633C41.058 49.7633 41.058 49.7633 41.1879 49.7633C41.3178 49.7633 41.4478 49.7633 41.4478 49.7633C41.5777 49.7633 41.7076 49.7633 41.7076 49.7633C41.7076 49.7633 41.7076 49.7633 41.8376 49.7633C41.8376 49.7633 41.8375 49.7633 41.9675 49.7633C42.0974 49.6334 42.2273 49.6334 42.2273 49.5035L45.3457 42.2274H55.0905C55.4802 42.2274 55.87 41.8376 55.87 41.4478C56 41.1879 55.7401 40.7981 55.2204 40.7981Z" fill="#B81F21"/>
<path d="M51.8423 42.877C51.4525 42.6172 50.9328 42.7471 50.6729 43.1369C47.8144 47.5545 44.3063 50.9327 38.5894 54.3109C33.0024 50.9327 29.3643 47.5545 26.5058 43.1369C26.246 42.7471 25.7263 42.6172 25.3365 42.877C24.9467 43.1369 24.8167 43.6566 25.0766 44.0464C28.065 48.8538 31.9629 52.4919 38.0696 56C38.1996 56.1299 38.3295 56.1299 38.4594 56.1299C38.5894 56.1299 38.7193 56.1299 38.8492 56C44.956 52.4919 48.8539 48.8538 51.8423 44.0464C52.362 43.6566 52.2321 43.1369 51.8423 42.877Z" fill="#B81F21"/>
<path d="M24.5571 40.2784C24.9469 40.1485 25.2068 39.7587 25.2068 39.239C24.6871 37.0302 24.5571 33.9118 27.1557 31.3132C28.585 29.884 30.6639 28.9745 32.7428 28.9745C34.8216 28.9745 36.7706 29.7541 38.1998 31.1833C38.4597 31.4432 38.9794 31.4432 39.3692 31.1833C40.7984 29.7541 42.7474 28.9745 44.8263 28.9745C46.9052 28.9745 48.8541 29.7541 50.4133 31.3132C53.0119 33.9118 52.882 37.1601 52.3622 39.3689C52.2323 39.7587 52.4922 40.2784 52.882 40.4084C53.0119 40.4084 53.0119 40.4084 53.1418 40.4084C53.5316 40.4084 53.7915 40.1485 53.9214 39.7587C54.9608 35.9907 54.0513 32.7425 51.5827 30.1439C49.7636 28.3248 47.4249 27.4153 44.8263 27.2854C44.8263 27.2854 44.8263 27.2854 44.6963 27.2854C42.4875 27.2854 40.2787 28.065 38.7195 29.4942C37.0305 28.065 34.9516 27.2854 32.6128 27.2854C30.1441 27.2854 27.6755 28.3248 25.8564 30.1439C23.3878 32.6125 22.6082 35.8608 23.5177 39.6288C23.6476 40.1485 24.0374 40.4084 24.5571 40.2784Z" fill="#B81F21"/>
</g>
<defs>
<clipPath id="clip0">
<rect width="56" height="56" fill="white"/>
</clipPath>
</defs>
</svg>
