<svg width="56" height="56" viewBox="0 0 56 56" fill="none" xmlns="http://www.w3.org/2000/svg">
<g clip-path="url(#clip0)">
<path d="M52.5119 21.0904C53.1739 20.6948 53.2903 20.2855 53.2903 19.871V16.2581C53.2903 15.0774 51.8949 14.7652 47.8573 14.0318L47.8392 14.0278C47.6831 12.3823 46.6445 10.956 45.1304 10.3112C44.8887 8.24105 43.2419 6.59514 41.1726 6.35345C40.4246 4.59904 38.6429 3.4484 36.6609 3.6301C35.9584 2.00977 34.3336 0.903226 32.5161 0.903226C32.005 0.903226 31.5009 0.993636 31.0131 1.17225C30.1875 0.420741 29.122 0 28 0C26.878 0 25.8125 0.420741 24.9869 1.17225C24.4991 0.993636 23.995 0.903226 23.4839 0.903226C21.6664 0.903226 20.0416 2.00977 19.3391 3.63099C17.3527 3.44752 15.5754 4.59904 14.8274 6.35433C12.7581 6.59646 11.1113 8.24193 10.8696 10.3121C9.35553 10.9569 8.31691 12.3832 8.16079 14.03L8.14359 14.0335C4.10597 14.7643 2.70968 15.0774 2.70968 16.2581V19.871C2.70968 20.2855 2.82611 20.6948 3.48633 21.0895L0.0352823 33.1719L0 33.4194C0 34.0469 0 34.6966 5.24868 36.0179C8.16079 36.7513 11.6758 37.4107 15.2547 37.9028C14.7445 39.3274 14.4516 40.8538 14.4516 42.4516C14.4516 49.9222 20.5294 56 28 56C35.4706 56 41.5484 49.9222 41.5484 42.4516C41.5484 40.8538 41.2555 39.3265 40.7453 37.902C44.3251 37.4107 47.8392 36.7504 50.7522 36.017C56 34.6966 56 34.0469 56 33.4194L52.5119 21.0904ZM53.1593 29.9238C52.4828 30.1659 51.5346 30.4415 50.3729 30.7304L48.0699 22.2834C49.2157 22.1057 50.1202 21.9231 50.8201 21.7361L53.1593 29.9238ZM37.5752 32.8756C35.1217 30.4226 31.7346 28.9032 28 28.9032C24.2654 28.9032 20.8783 30.4226 18.4248 32.8756C16.0693 32.6273 13.85 32.3203 11.8429 31.9869L13.357 22.9057C17.6777 23.2753 22.8686 23.4839 28 23.4839C33.1314 23.4839 38.3223 23.2753 42.6439 22.9048L44.158 31.986C42.1499 32.3203 39.9307 32.6273 37.5752 32.8756ZM4.51613 19.6011V17.9274C5.72366 18.33 7.72152 18.7141 11.0328 19.0718C15.7315 19.5803 21.9151 19.871 28 19.871C34.0849 19.871 40.2685 19.5803 44.9672 19.0718C48.2785 18.7141 50.2763 18.3291 51.4839 17.9274V19.6011C49.9808 20.4968 40.714 21.6774 28 21.6774C15.286 21.6774 6.01915 20.4968 4.51613 19.6011ZM11.0328 22.6847C11.1999 22.7024 11.3825 22.7178 11.5532 22.7359L10.0629 31.6751C9.1037 31.4982 8.21194 31.3174 7.38766 31.1388L9.73393 22.5348C10.1441 22.5851 10.5741 22.6349 11.0328 22.6847ZM45.9371 31.6751L44.4468 22.7359C44.6175 22.7187 44.8001 22.7024 44.9672 22.6847C45.4259 22.6349 45.8559 22.5851 46.2652 22.5348L48.6115 31.1388C47.7881 31.3183 46.8963 31.4982 45.9371 31.6751ZM47.2504 16.9681C47.4282 16.6012 47.5711 16.221 47.6743 15.8342C48.488 15.9824 49.5628 16.1796 50.4126 16.3763C49.662 16.5752 48.5907 16.7767 47.2504 16.9681ZM11.9779 11.8368L12.6804 11.6581L12.658 10.9326C12.6553 10.8802 12.6496 10.8325 12.6452 10.8387C12.6452 9.34495 13.8611 8.12903 15.2962 8.12639L16.1729 8.17137L16.3546 7.46176C16.6607 6.25951 17.7359 5.41935 18.9677 5.41935C19.1856 5.41935 19.4194 5.45728 19.7047 5.53755L20.6344 5.80129L20.8346 4.85572C21.1879 3.18555 23.135 2.16324 24.7673 3.05192L25.4292 3.41224L25.9029 2.82611C26.4255 2.1778 27.1907 1.80645 28 1.80645C28.8093 1.80645 29.5745 2.1778 30.0971 2.82611L30.5708 3.41224L31.2327 3.05192C32.8628 2.16236 34.8112 3.18555 35.1654 4.85572L35.3656 5.80129L36.2953 5.53755C36.5806 5.45728 36.8144 5.41935 37.0323 5.41935C38.264 5.41935 39.3393 6.25951 39.6462 7.46176L39.8279 8.17137L40.56 8.14094C40.6081 8.13918 40.6562 8.13344 40.6452 8.12903C42.1389 8.12903 43.3548 9.34495 43.3575 10.7765L43.3196 11.659L44.0221 11.8376C45.2244 12.1437 46.0645 13.2198 46.0645 14.4516C46.0645 15.4007 45.5759 16.5236 44.8742 17.2663C40.7003 17.7223 34.8509 18.0645 28 18.0645C21.1336 18.0645 15.2755 17.7205 11.0998 17.2623C10.4122 16.5236 9.93548 15.4047 9.93548 14.4516C9.93548 13.2198 10.7756 12.1437 11.9779 11.8368ZM8.3222 15.8356C8.42364 16.221 8.56345 16.6012 8.73765 16.9672C7.40266 16.7758 6.33537 16.5743 5.5865 16.3763C6.43637 16.1804 7.50851 15.9833 8.3222 15.8356ZM7.93013 22.2834L5.62708 30.7304C4.46541 30.4424 3.51808 30.1668 2.84066 29.9246L5.17988 21.737C5.87979 21.9231 6.78434 22.1065 7.93013 22.2834ZM1.93391 33.0996L2.34495 31.6597C5.05374 32.603 10.6579 33.7978 17.025 34.5396C16.6475 35.0613 16.303 35.6069 16.0014 36.1806C8.73589 35.2179 3.39327 33.7823 1.93391 33.0996ZM28 54.1935C21.5257 54.1935 16.2581 48.9259 16.2581 42.4516C16.2581 35.9773 21.5257 30.7097 28 30.7097C34.4743 30.7097 39.7419 35.9773 39.7419 42.4516C39.7419 48.9259 34.4743 54.1935 28 54.1935ZM39.9986 36.1797C39.6978 35.606 39.3525 35.0604 38.975 34.5396C45.3421 33.7978 50.9463 32.6039 53.6551 31.6597L54.0661 33.0996C52.6067 33.7832 47.2632 35.2179 39.9986 36.1797Z" fill="#333333"/>
<path d="M19.8711 9.93549H21.6775V11.7419H19.8711V9.93549Z" fill="#333333"/>
<path d="M31.6133 4.51614H33.4197V6.3226H31.6133V4.51614Z" fill="#333333"/>
<path d="M27.0967 13.5484H28.9031V15.3549H27.0967V13.5484Z" fill="#333333"/>
<path d="M34.3223 10.8387H36.1287V12.6452H34.3223V10.8387Z" fill="#333333"/>
<path d="M25.2907 7.22582V5.41937C24.7933 5.41937 24.3875 5.01451 24.3875 4.51614H22.5811C22.5811 6.00991 23.797 7.22582 25.2907 7.22582Z" fill="#333333"/>
<path d="M42.4519 13.5484H40.6454C40.6454 14.0468 40.2397 14.4516 39.7422 14.4516V16.2581C41.236 16.2581 42.4519 15.0422 42.4519 13.5484Z" fill="#333333"/>
<path d="M16.2585 16.2581V14.4516C15.761 14.4516 15.3553 14.0468 15.3553 13.5484H13.5488C13.5488 15.0422 14.7647 16.2581 16.2585 16.2581Z" fill="#333333"/>
<path d="M27.9997 39.7419C29.4935 39.7419 30.7094 38.526 30.7094 37.0322C30.7094 35.5385 29.4935 34.3226 27.9997 34.3226C26.506 34.3226 25.29 35.5385 25.29 37.0322C25.29 38.526 26.506 39.7419 27.9997 39.7419ZM27.9997 36.129C28.4972 36.129 28.9029 36.5339 28.9029 37.0322C28.9029 37.5306 28.4972 37.9355 27.9997 37.9355C27.5022 37.9355 27.0965 37.5306 27.0965 37.0322C27.0965 36.5339 27.5022 36.129 27.9997 36.129Z" fill="#B81F21"/>
<path d="M24.1671 41.3296C24.6795 40.8185 24.9613 40.1375 24.9613 39.4134C24.9613 38.6896 24.6795 38.0087 24.1671 37.4975C23.1095 36.44 21.3908 36.4408 20.335 37.4975C19.8238 38.0087 19.542 38.6896 19.542 39.4134C19.542 40.1375 19.8238 40.8176 20.335 41.3288C20.8633 41.8571 21.557 42.1217 22.2517 42.1217C22.945 42.1217 23.6387 41.8571 24.1671 41.3296ZM21.6131 40.0515C21.4424 39.8817 21.3493 39.6551 21.3493 39.4134C21.3493 39.1721 21.4433 38.9446 21.6131 38.7748C21.789 38.5983 22.0201 38.511 22.2526 38.511C22.4836 38.511 22.7147 38.5983 22.8912 38.7748C23.0618 38.9454 23.1558 39.1721 23.1558 39.4134C23.1558 39.6551 23.0618 39.8809 22.8912 40.0515C22.5379 40.4039 21.9632 40.4013 21.6131 40.0515Z" fill="#B81F21"/>
<path d="M31.8324 37.4975C31.3199 38.0087 31.0381 38.6896 31.0381 39.4134C31.0381 40.1375 31.3199 40.8185 31.8324 41.3288C32.3607 41.8571 33.0545 42.1208 33.7491 42.1208C34.4424 42.1208 35.1361 41.8571 35.6645 41.3288C36.1756 40.8176 36.4574 40.1375 36.4574 39.4134C36.4574 38.6896 36.1756 38.0087 35.6645 37.4975C34.606 36.44 32.8882 36.4408 31.8324 37.4975ZM34.3864 40.0515C34.0335 40.4048 33.4607 40.403 33.1083 40.0507C32.9385 39.8809 32.8445 39.655 32.8445 39.4134C32.8445 39.1721 32.9385 38.9454 33.1096 38.7748C33.2856 38.5983 33.5167 38.511 33.7491 38.511C33.9802 38.511 34.2113 38.5983 34.3873 38.7748C34.5584 38.9446 34.6523 39.1721 34.6523 39.4134C34.651 39.6542 34.557 39.8809 34.3864 40.0515Z" fill="#B81F21"/>
<path d="M28.0003 41.5484C24.4553 41.5484 21.6777 43.5317 21.6777 46.0645C21.6777 48.5974 24.4553 50.5807 28.0003 50.5807C31.5453 50.5807 34.3229 48.5974 34.3229 46.0645C34.3229 43.5317 31.5453 41.5484 28.0003 41.5484ZM28.0003 48.7742C25.5526 48.7742 23.4842 47.5332 23.4842 46.0645C23.4842 44.5959 25.5526 43.3549 28.0003 43.3549C30.448 43.3549 32.5164 44.5959 32.5164 46.0645C32.5164 47.5332 30.448 48.7742 28.0003 48.7742Z" fill="#B81F21"/>
</g>
<defs>
<clipPath id="clip0">
<rect width="56" height="56" fill="white"/>
</clipPath>
</defs>
</svg>
