<svg width="56" height="56" viewBox="0 0 56 56" fill="none" xmlns="http://www.w3.org/2000/svg">
<g clip-path="url(#clip0)">
<path d="M34.5618 14.2923C34.172 14.2923 33.7822 14.6821 33.7822 15.0719V17.0209C33.7822 17.4107 34.172 17.8004 34.5618 17.8004C34.9516 17.8004 35.3414 17.4107 35.3414 17.0209V15.0719C35.4713 14.6821 35.0815 14.2923 34.5618 14.2923Z" fill="#333333"/>
<path d="M44.1761 14.2923C43.7863 14.2923 43.3965 14.6821 43.3965 15.0719V17.0209C43.3965 17.4107 43.7863 17.8004 44.1761 17.8004C44.5659 17.8004 44.9556 17.4107 44.9556 17.0209V15.0719C44.9556 14.6821 44.6958 14.2923 44.1761 14.2923Z" fill="#333333"/>
<path d="M49.6336 44.826C48.3342 44.1763 47.0349 43.5267 45.7356 43.1369C48.854 39.4988 50.1533 31.5731 49.8934 28.4548C53.2716 25.9861 55.3505 22.348 55.3505 18.1902C55.3505 15.7216 54.5709 13.3828 53.1417 11.3039C53.2716 10.9141 53.4015 10.5244 53.5315 10.1346C54.7008 5.71693 52.3621 0.649642 50.4131 0.129921C48.724 -0.259871 45.6057 1.94895 43.9166 5.19721C42.4874 4.80742 41.0581 4.67748 39.6289 4.67748C38.1997 4.67748 36.6405 4.80742 35.3412 5.19721C33.6521 1.94895 30.4039 -0.259871 28.8447 0.129921C26.8957 0.649642 24.557 5.71693 25.7264 10.1346C25.8563 10.5244 25.9862 10.9141 26.1162 11.3039C24.8168 13.123 24.0373 15.2018 23.9073 17.4107C21.9584 18.4501 20.2693 19.7494 18.5802 21.3086C18.1904 21.5684 18.1904 22.0882 18.5802 22.478C18.7101 22.6079 18.97 22.7378 19.2298 22.7378C19.4897 22.7378 19.6196 22.6079 19.7496 22.478C21.0489 21.1786 22.4781 20.1392 24.0373 19.2297C24.6869 26.2459 31.5732 31.703 39.7588 31.703C43.0071 31.703 45.9955 30.7935 48.5941 29.3643C48.5941 32.8724 47.1649 40.1485 44.3064 42.4872C37.68 40.7981 30.7936 42.0974 24.1672 46.3851C23.7774 46.645 23.6475 47.1647 23.9073 47.5545C24.1672 47.9443 24.6869 48.0742 25.0767 47.8144C30.6637 44.1763 39.499 40.9281 49.2438 46.2552C50.8029 47.1647 54.441 49.6334 54.8308 54.4408H24.1672C18.4503 54.4408 14.4224 52.4919 12.2136 48.7239C9.35513 43.9165 10.1347 36.2506 14.0326 29.3643C14.2925 28.9745 14.1626 28.4548 13.7728 28.1949C13.383 27.935 12.8632 28.065 12.6034 28.4548C8.44562 35.8608 7.79596 44.0464 10.9143 49.5035C12.6034 52.4919 16.3714 56 24.2971 56H55.3505C55.7403 56 56.1301 55.6102 56.1301 55.2204C56.0001 50.8028 53.6614 47.0348 49.6336 44.826ZM49.8934 1.68909C50.673 1.94895 52.8818 5.71693 51.8424 9.74477C50.8029 8.5754 49.5036 7.53595 47.9445 6.75637C48.4642 5.45707 48.854 4.67748 49.6336 4.02783C50.0233 3.76797 50.0233 3.24825 49.6336 2.85846C49.3737 2.46867 48.854 2.46867 48.4642 2.85846C47.4247 3.76797 46.905 4.80742 46.3853 6.10672C45.9955 5.97679 45.6057 5.84686 45.2159 5.587C46.7751 2.85846 49.2438 1.55916 49.8934 1.68909ZM27.0257 9.74477C25.9862 5.71693 28.195 1.94895 28.9746 1.68909C29.6243 1.55916 31.963 2.98839 33.5222 5.587C33.1324 5.71693 32.7426 5.84686 32.3528 6.10672C31.8331 4.80742 31.3134 3.76797 30.2739 2.85846C29.8841 2.5986 29.4943 2.5986 29.1045 2.85846C28.8447 3.24825 28.8447 3.63804 29.1045 4.02783C29.8841 4.80742 30.2739 5.45707 30.7936 6.75637C29.3644 7.53595 28.0651 8.5754 27.0257 9.74477ZM25.2066 18.1902C25.2066 11.5638 31.5732 6.23665 39.369 6.23665C47.1649 6.23665 53.6614 11.5638 53.6614 18.1902C53.6614 24.8167 47.2948 30.1438 39.499 30.1438C31.7032 30.1438 25.2066 24.6868 25.2066 18.1902Z" fill="#333333"/>
<path d="M41.9681 25.4663C41.0586 25.4663 40.4089 24.8167 40.1491 24.0371C40.9287 23.5174 41.4484 22.9977 41.8382 22.2181C42.4878 21.1786 42.3579 20.1392 41.5783 19.3596C41.1885 18.9698 40.6688 18.71 40.1491 18.71C39.7593 18.71 39.4994 18.8399 39.2396 18.9698C38.46 18.58 37.5505 18.71 36.7709 19.3596C35.9913 20.1392 35.9913 21.1786 36.641 22.2181C37.0308 22.8677 37.5505 23.3875 38.3301 23.9072C38.2001 24.6868 37.4205 25.3364 36.511 25.3364C36.1212 25.3364 35.7314 25.7262 35.7314 26.116C35.7314 26.5058 36.1212 26.8956 36.511 26.8956C37.5505 26.8956 38.46 26.3759 39.1096 25.5963C39.7593 26.3759 40.6688 26.8956 41.7082 26.8956C42.098 26.8956 42.4878 26.5058 42.4878 26.116C42.4878 25.7262 42.4878 25.4663 41.9681 25.4663ZM38.2001 20.529C38.3301 20.3991 38.46 20.3991 38.5899 20.3991C38.7198 20.3991 38.8498 20.3991 38.9797 20.529C39.2396 20.7888 39.8892 20.7888 40.1491 20.529C40.279 20.3991 40.4089 20.3991 40.5389 20.3991C40.6688 20.3991 40.7987 20.3991 40.9287 20.529C41.1885 20.7888 41.0586 21.0487 40.9287 21.4385C40.6688 21.9582 40.279 22.348 39.7593 22.6079C39.2396 22.2181 38.8498 21.8283 38.5899 21.4385C37.9403 21.0487 37.9403 20.7888 38.2001 20.529Z" fill="#333333"/>
<path d="M22.0879 38.9791L20.6587 35.2111C21.8281 34.3016 22.2178 32.4826 21.5682 30.7935L20.6587 24.297C20.6587 24.1671 20.6587 24.1671 20.6587 24.1671L15.2016 10.6543L17.0206 9.87472C17.4104 9.74479 17.6703 9.22507 17.5403 8.83527C17.4104 8.44548 16.8907 8.18562 16.5009 8.31555L13.9023 9.35499L12.0833 10.1346L10.0044 5.19722L13.3826 3.89792C14.422 3.50813 14.9417 2.33875 14.5519 1.29931C14.1622 0.259866 12.9928 -0.259856 11.9533 0.129936L1.29905 4.41764C0.779326 4.54757 0.389535 4.93736 0.129674 5.45708C-0.000256035 5.9768 -0.000256035 6.49653 0.129674 7.01625C0.389535 7.53597 0.649396 7.92576 1.16912 8.18562C1.42898 8.31555 1.68884 8.31555 1.9487 8.31555C2.20856 8.31555 2.46842 8.31555 2.72828 8.18562L6.10647 6.88632L8.05543 11.6937L6.2364 12.4733L3.63779 13.5128C3.248 13.6427 2.98814 14.1624 3.11807 14.5522C3.248 14.8121 3.50786 15.0719 3.89766 15.0719C4.02759 15.0719 4.15752 15.0719 4.15752 15.0719L6.10647 14.2924L7.27585 17.1508L8.31529 19.7494L9.35473 22.348L10.3942 24.9466L11.4336 27.5453L11.5635 27.8051C11.5635 27.8051 11.5635 27.935 11.6935 27.935L15.5914 33.2622C16.241 34.8214 17.6703 35.8608 19.0995 35.8608C19.2294 35.8608 19.2294 35.8608 19.2294 35.8608L20.6587 39.6288C20.7886 39.8886 21.0485 40.1485 21.4383 40.1485C21.5682 40.1485 21.6981 40.1485 21.6981 40.1485C21.958 39.8886 22.2178 39.3689 22.0879 38.9791ZM2.20856 6.62646C2.07863 6.62646 1.9487 6.62646 1.9487 6.62646C1.9487 6.62646 1.81877 6.49653 1.68884 6.3666C1.68884 6.23667 1.68884 6.10673 1.68884 6.10673C1.68884 6.10673 1.81877 5.9768 1.9487 5.84687L12.603 1.6891C12.8629 1.55917 12.9928 1.6891 13.1227 1.94896C13.2526 2.20882 13.1227 2.33875 12.8629 2.46868L7.53571 4.54757L6.2364 4.93736L2.20856 6.62646ZM8.57515 5.84687L10.5241 10.7842L9.61459 11.174L7.66564 6.23667L8.57515 5.84687ZM13.6424 11.174L18.9696 24.5569L19.7492 30.4037L16.371 31.703L13.2526 27.4153L17.2805 25.8562C17.6703 25.7262 17.9301 25.2065 17.8002 24.8167C17.6703 24.4269 17.1506 24.1671 16.7608 24.297L12.603 25.9861L12.2132 24.9466L16.371 23.2575C16.7608 23.1276 17.0206 22.6079 16.8907 22.2181C16.7608 21.8283 16.241 21.5685 15.8513 21.6984L11.6935 23.3875L11.3037 22.348L15.4615 20.6589C15.8513 20.529 16.1111 20.0093 15.9812 19.6195C15.8513 19.2297 15.3315 18.9698 14.9417 19.0998L10.784 20.7889L10.3942 19.7494L14.5519 18.0603C14.9417 17.9304 15.2016 17.4107 15.0717 17.0209C14.9417 16.6311 14.422 16.3712 14.0322 16.5012L9.87445 18.1903L9.09487 17.2808L13.2526 15.5917C13.6424 15.4617 13.9023 14.942 13.7724 14.5522C13.6424 14.1624 13.1227 13.9026 12.7329 14.0325L8.57515 15.7216L7.66564 13.5128L13.6424 11.174ZM17.1506 33.2622L20.009 32.0928C20.139 33.0023 19.8791 33.9118 19.2294 34.1717C18.5798 34.4316 17.8002 34.0418 17.1506 33.2622Z" fill="#B81F21"/>
</g>
<defs>
<clipPath id="clip0">
<rect width="56" height="56" fill="white"/>
</clipPath>
</defs>
</svg>
