<svg width="24" height="24" viewBox="0 0 24 24" fill="none" xmlns="http://www.w3.org/2000/svg">
<path d="M12 22.6415C14.7064 22.6415 21.0566 13.8688 21.0566 9.05662C21.0567 4.06287 16.9939 0 12 0C7.00612 0 2.94336 4.06287 2.94336 9.05662C2.94336 13.8688 9.2937 22.6415 12 22.6415ZM12 0.90564C16.4943 0.90564 20.151 4.56211 20.151 9.05662C20.151 13.8049 13.7357 21.7359 12 21.7359C10.2642 21.7359 3.849 13.805 3.849 9.05662C3.84911 4.56211 7.50569 0.90564 12 0.90564Z" fill="#B81F21"/>
<path d="M13.8566 12.7443C14.802 11.8843 17 9.7216 17 8.2252C17 6.32613 15.6786 5 13.787 5C13.1442 5 12.5255 5.19043 12.0003 5.5444C11.4751 5.19058 10.8564 5 10.2136 5C8.32142 5 7 6.32613 7 8.2252C7 9.71324 9.16016 11.8532 10.0894 12.7042C11.3688 13.8768 11.7615 13.9996 11.9749 13.9996C11.9917 13.9996 12.0071 14.0002 12.0265 13.9999C12.2397 13.9999 12.6147 13.8751 13.8566 12.7443ZM8.22842 8.2252C8.22842 6.75434 9.29794 6.23264 10.2141 6.23264C10.7237 6.23264 11.2081 6.4265 11.5786 6.77824C11.8149 7.00332 12.1866 7.00332 12.4227 6.77824C12.7932 6.4265 13.2777 6.23264 13.7873 6.23264C14.7028 6.23264 15.7723 6.75449 15.7723 8.2252C15.7723 9.32715 12.9335 12.0696 11.9976 12.6968C11.0718 12.0789 8.22842 9.31207 8.22842 8.2252Z" fill="#B81F21"/>
<path d="M20.6038 23.0944H2.94336V24H20.6038V23.0944Z" fill="#B81F21"/>
</svg>
