<svg width="56" height="56" viewBox="0 0 56 56" fill="none" xmlns="http://www.w3.org/2000/svg">
<g clip-path="url(#clip0)">
<path d="M33.3921 35.2111C31.3133 33.1322 28.9745 31.4432 26.5058 30.2738C28.9745 28.5847 30.1439 25.8561 30.1439 22.0882C30.1439 21.1787 30.0139 20.1392 29.884 18.9698C29.884 18.9698 29.884 18.9698 30.0139 18.9698C33.0023 17.4107 33.652 12.0835 31.5731 6.88631C30.2738 3.50812 28.065 1.03944 25.7262 0.259858C24.5569 -0.129933 23.3875 -0.129933 22.3481 0.389789C21.3086 0.90951 20.2692 2.46867 19.7494 3.89791C18.71 3.50812 17.5406 3.11833 16.3713 3.11833C15.2019 3.11833 14.0325 3.37819 12.9931 3.89791C12.4733 2.46867 11.4339 1.03944 10.3945 0.389789C9.35501 -0.129933 8.18564 -0.129933 7.01627 0.259858C4.67752 1.16937 2.59863 3.63805 1.1694 7.01624C-0.909486 12.2135 -0.259834 17.5406 2.72856 19.0998C2.72856 19.0998 2.72856 19.0998 2.8585 19.0998C2.59863 20.1392 2.59863 21.1787 2.59863 22.2181C2.59863 27.935 5.58703 31.3132 11.5638 32.3527V53.2715C11.5638 54.8306 12.8631 56.1299 14.4223 56.1299C15.9815 56.1299 17.2808 54.8306 17.2808 53.2715V45.4756C17.2808 44.4362 18.1903 43.5267 19.2297 43.5267C22.0882 43.5267 23.9072 45.3457 23.9072 48.2042C23.9072 49.2436 22.9977 50.1531 21.9583 50.1531H20.529C19.0998 50.1531 17.6706 51.1926 17.4107 52.6218C17.2808 53.5313 17.5406 54.3109 18.0604 55.0905C18.5801 55.7401 19.4896 56.1299 20.2692 56.1299H32.4826C36.6404 56.1299 40.0186 52.7517 40.0186 48.594C40.0186 44.3063 37.42 39.3689 33.3921 35.2111ZM23.1276 1.81902C23.7773 1.55916 24.4269 1.42923 25.2065 1.81902C27.0255 2.46867 28.9745 4.67749 30.0139 7.53596C31.5731 11.5638 31.4432 15.9814 29.4942 17.4107C28.8446 14.8121 27.8051 12.2135 26.3759 10.0046C25.9861 5.45707 25.2065 3.50812 23.6474 3.50812C22.7378 3.50812 22.2181 4.2877 21.8283 5.06728C21.5685 4.93735 21.4385 4.80742 21.1787 4.67749C21.6984 3.50812 22.478 2.20881 23.1276 1.81902ZM24.4269 7.40603C24.0371 6.88631 23.5174 6.49652 23.1276 6.10673C23.2576 5.71693 23.5174 5.19721 23.6474 5.06728C23.6474 5.06728 24.0371 5.32714 24.4269 7.40603ZM2.72856 7.53596C3.89794 4.67749 5.71696 2.46867 7.53599 1.81902C8.31557 1.55916 8.96522 1.55916 9.61487 1.81902C10.2645 2.20881 11.0441 3.37819 11.5638 4.54756C11.304 4.80742 11.174 4.93735 10.9142 5.06728C10.5244 4.2877 10.0047 3.50812 9.09515 3.50812C7.53599 3.50812 6.62648 5.45707 6.36662 10.0046C4.93738 12.3434 3.76801 14.942 3.24829 17.4107C1.29933 15.9814 1.03947 11.6937 2.72856 7.53596ZM9.61487 6.10673C9.09515 6.49652 8.70536 6.88631 8.31557 7.40603C8.57543 5.45707 9.09515 5.06728 9.09515 5.06728C9.22508 5.19721 9.48494 5.71693 9.61487 6.10673ZM4.1578 22.2181C4.1578 14.5522 9.87474 4.93735 16.3713 4.93735C22.8678 4.93735 28.5847 14.6821 28.5847 22.2181C28.5847 28.3248 24.6868 31.1833 16.3713 31.1833C8.05571 31.0534 4.1578 28.3248 4.1578 22.2181ZM32.6126 54.4408H20.3991C20.0093 54.4408 19.6195 54.3109 19.3597 53.9211C19.0998 53.6613 18.9699 53.2715 19.0998 52.8817C19.2297 52.3619 19.8794 51.7123 20.529 51.7123H21.9583C23.9072 51.7123 25.4664 50.1531 25.4664 48.2042C25.4664 44.4362 22.8678 41.8376 19.0998 41.8376C17.1508 41.8376 15.5917 43.3968 15.5917 45.3457V53.1415C15.5917 53.7912 15.072 54.3109 14.4223 54.3109C13.7726 54.3109 13.2529 53.7912 13.2529 53.1415V32.6125C14.2924 32.7425 15.3318 32.7425 16.5012 32.7425C20.0093 32.7425 22.7378 32.2227 24.9467 31.3132C27.5453 32.3527 30.1439 34.1717 32.3527 36.3805C36.1207 40.1485 38.4594 44.826 38.5894 48.464C38.4594 51.7123 35.8608 54.4408 32.6126 54.4408Z" fill="#333333"/>
<path d="M11.4339 14.8121C11.0441 14.8121 10.6543 15.2019 10.6543 15.5916V17.5406C10.6543 17.9304 11.0441 18.3202 11.4339 18.3202C11.8237 18.3202 12.2135 17.9304 12.2135 17.5406V15.5916C12.2135 15.2019 11.9536 14.8121 11.4339 14.8121Z" fill="#333333"/>
<path d="M21.4386 18.4501C21.8283 18.4501 22.2181 18.0603 22.2181 17.6705V15.5916C22.2181 15.2019 21.8283 14.8121 21.4386 14.8121C21.0488 14.8121 20.659 15.2019 20.659 15.5916V17.5406C20.529 18.0603 20.9188 18.4501 21.4386 18.4501Z" fill="#333333"/>
<path d="M19.7496 28.9745C20.1394 28.8445 20.3993 28.4548 20.3993 27.935C20.2694 27.5452 19.8796 27.2854 19.3598 27.2854C17.8007 27.6752 15.0721 27.6752 13.513 27.2854C12.9933 27.2854 12.6035 27.5452 12.4735 27.935C12.3436 28.3248 12.6035 28.8445 13.1232 28.9745C14.0327 29.2343 15.2021 29.3643 16.5014 29.3643C17.6708 29.2343 18.8401 29.1044 19.7496 28.9745Z" fill="#333333"/>
<path d="M15.9816 24.1671C16.1116 24.297 16.2415 24.297 16.3714 24.297C16.5014 24.297 16.6313 24.297 16.7612 24.1671C17.6707 23.6473 18.3204 22.9977 18.8401 22.2181C19.3598 21.1787 19.3598 20.1392 18.5802 19.4896C17.9306 18.8399 17.0211 18.71 16.2415 19.0998C15.9816 18.9698 15.7218 18.8399 15.332 18.9698C14.8123 18.9698 14.2925 19.2297 13.9027 19.6195C13.2531 20.2691 13.1232 21.3086 13.7728 22.348C14.4225 22.9977 14.9422 23.6473 15.9816 24.1671ZM15.2021 20.6589C15.332 20.529 15.4619 20.529 15.4619 20.529C15.4619 20.529 15.5918 20.529 15.7218 20.6589C15.8517 20.7889 16.1116 20.9188 16.2415 20.9188C16.5014 20.9188 16.6313 20.7889 16.7612 20.6589C16.8911 20.529 17.151 20.529 17.2809 20.6589C17.4109 20.7889 17.4109 21.0487 17.2809 21.4385C17.0211 21.8283 16.6313 22.2181 16.2415 22.6079C15.7218 22.2181 15.4619 21.9582 15.2021 21.5684C15.0721 21.0487 15.0721 20.7889 15.2021 20.6589Z" fill="#333333"/>
<path d="M53.0122 0H39.6294C37.9403 0 36.641 1.2993 36.641 2.9884V18.1903C36.641 20.1392 38.2001 21.6984 40.1491 21.6984C41.1885 21.6984 41.9681 22.478 41.9681 23.5174V25.0766C41.9681 25.4664 42.228 25.7262 42.6178 25.8561C43.6572 26.116 44.5667 26.2459 45.6062 26.3759V51.1926C45.6062 53.0116 44.047 54.5708 42.228 54.5708C40.409 54.5708 38.8498 53.0116 38.8498 51.1926V29.7541C38.8498 27.0255 36.641 24.8167 33.9124 24.8167C31.1839 24.8167 28.9751 27.0255 28.9751 29.7541V40.7981C28.1955 41.058 27.6758 41.8376 27.6758 42.7471C27.6758 43.5267 28.5853 45.3457 28.9751 46.3852V48.464C28.9751 48.8538 29.3649 49.2436 29.7547 49.2436C30.1445 49.2436 30.5343 48.8538 30.5343 48.464V46.3852C30.924 45.4756 31.8336 43.5267 31.8336 42.7471C31.8336 41.8376 31.3138 41.058 30.5343 40.7981V29.7541C30.5343 27.935 32.0934 26.3759 33.9124 26.3759C35.7315 26.3759 37.2906 27.935 37.2906 29.7541V51.1926C37.2906 53.9211 39.4994 56.1299 42.228 56.1299C44.9565 56.1299 47.1653 53.9211 47.1653 51.1926V26.2459C48.2048 26.2459 49.1143 26.116 50.1537 25.7262C50.5435 25.5963 50.8034 25.3364 50.8034 24.9466V23.3875C50.8034 22.348 51.583 21.5684 52.6224 21.5684C54.5714 21.5684 56.1305 20.0093 56.1305 18.0603V2.9884C56.0006 1.42923 54.7013 0 53.0122 0ZM30.2744 42.7471C30.2744 43.007 30.0145 43.5267 29.7547 44.1763C29.4948 43.5267 29.2349 42.877 29.2349 42.7471C29.2349 42.4872 29.4948 42.2274 29.7547 42.2274C30.0145 42.2274 30.2744 42.4872 30.2744 42.7471ZM54.4414 18.1903C54.4414 19.2297 53.6619 20.0093 52.6224 20.0093C50.6735 20.0093 49.1143 21.5684 49.1143 23.5174V24.4269C47.2953 24.8167 45.4762 24.8167 43.6572 24.4269V23.5174C43.6572 21.5684 42.0981 20.0093 40.1491 20.0093C39.1097 20.0093 38.3301 19.2297 38.3301 18.1903V17.8005H44.1769C44.5667 17.8005 44.9565 17.4107 44.9565 17.0209C44.9565 16.6311 44.5667 16.2413 44.1769 16.2413H38.2001V13.7726H44.1769C44.5667 13.7726 44.9565 13.3828 44.9565 12.993C44.9565 12.6032 44.5667 12.2135 44.1769 12.2135H38.2001V9.48492H44.1769C44.5667 9.48492 44.9565 9.09513 44.9565 8.70534C44.9565 8.31555 44.6967 7.92575 44.1769 7.92575H38.2001V5.32715H44.1769C44.5667 5.32715 44.9565 4.93736 44.9565 4.54756C44.9565 4.15777 44.5667 3.76798 44.1769 3.76798H38.2001V2.9884C38.2001 2.20882 38.8498 1.55916 39.6294 1.55916H53.0122C53.7918 1.55916 54.4414 2.20882 54.4414 2.9884V18.1903Z" fill="#B81F21"/>
</g>
<defs>
<clipPath id="clip0">
<rect width="56" height="56" fill="white"/>
</clipPath>
</defs>
</svg>
