<svg width="56" height="56" viewBox="0 0 56 56" fill="none" xmlns="http://www.w3.org/2000/svg">
<g clip-path="url(#clip0)">
<path d="M19.0996 22.478C19.2295 22.6079 19.3595 22.6079 19.4894 22.6079C19.6193 22.6079 19.7493 22.6079 19.8792 22.478C20.7887 21.9582 21.3084 21.4385 21.8281 20.6589C22.3479 19.7494 22.3479 18.71 21.6982 18.0603C21.1785 17.5406 20.269 17.4107 19.6193 17.6705C18.9697 17.4107 18.0602 17.5406 17.5404 18.0603C16.8908 18.71 16.7609 19.7494 17.4105 20.6589C17.6704 21.4385 18.1901 21.9582 19.0996 22.478ZM18.5799 19.2297C18.5799 19.2297 18.7098 19.0998 18.8397 19.0998C18.9697 19.0998 18.9697 19.0998 18.9697 19.2297C19.2295 19.4896 19.7493 19.4896 20.1391 19.2297C20.269 19.0998 20.3989 19.0998 20.5288 19.2297C20.6588 19.3596 20.5288 19.6195 20.5288 19.8793C20.269 20.2691 20.0091 20.529 19.6193 20.7889C19.2295 20.529 18.9697 20.2691 18.7098 19.8793C18.45 19.7494 18.45 19.4896 18.5799 19.2297Z" fill="#333333"/>
<path d="M15.4622 17.0209C15.852 17.0209 16.2418 16.6311 16.2418 16.2413V14.5522C16.2418 14.1624 15.852 13.7726 15.4622 13.7726C15.0724 13.7726 14.6826 14.1624 14.6826 14.5522V16.2413C14.6826 16.6311 14.9425 17.0209 15.4622 17.0209Z" fill="#333333"/>
<path d="M23.6475 17.0209C24.0373 17.0209 24.4271 16.6311 24.4271 16.2413V14.5522C24.4271 14.1624 24.0373 13.7726 23.6475 13.7726C23.2577 13.7726 22.868 14.1624 22.868 14.5522V16.2413C22.738 16.6311 23.1278 17.0209 23.6475 17.0209Z" fill="#333333"/>
<path d="M34.3016 49.5042H33.2622L29.884 40.1492C29.3643 38.72 29.3643 37.1608 29.884 35.6017C30.9234 32.6133 30.6636 29.2351 29.2343 26.5065L28.065 24.6875C29.7541 23.2583 30.6636 21.1794 30.6636 18.5808C30.6636 17.1515 30.4037 15.5924 29.884 14.1631C30.5336 11.0448 30.7935 0.780312 28.5847 0.13066C27.0255 -0.259132 24.1671 2.59934 22.8677 5.32788C21.9582 4.80815 20.7889 4.41836 19.4896 4.41836C18.1903 4.41836 17.1508 4.67822 15.9814 5.19795C14.5522 2.46941 11.8237 -0.389062 10.2645 0.000729248C9.87471 0.13066 8.83527 0.39052 8.57541 6.10746C8.44548 8.57614 8.57541 11.8244 8.9652 13.9033C8.44548 15.4624 8.18561 17.0216 8.18561 18.4508C8.18561 21.0495 9.09513 22.9984 10.7842 24.5576L9.61485 26.5065C8.18561 29.2351 7.92575 32.6133 8.9652 35.6017C9.48492 37.1608 9.48492 38.72 8.9652 40.1492L5.58701 49.6341H4.67749C2.07889 49.6341 0 52.2327 0 55.3511C0 55.7409 0.389791 56.1307 0.779582 56.1307H9.22506H17.6705C18.3202 56.1307 18.9698 55.8708 19.4896 55.3511C20.0093 55.7409 20.529 56.1307 21.3086 56.1307H29.7541H38.1995C38.5893 56.1307 38.9791 55.7409 38.9791 55.3511C38.9791 52.1028 36.9002 49.5042 34.3016 49.5042ZM31.8329 50.2838L29.3643 54.4416H23.7773C23.7773 54.4416 23.7773 54.3116 23.9072 54.3116L28.4548 40.539V40.6689L31.8329 50.2838ZM19.4896 34.5622C15.9814 33.2629 13.2529 29.7548 12.7332 25.7269C14.5522 26.5065 16.761 26.8963 19.4896 26.8963C22.2181 26.8963 24.4269 26.5065 26.116 25.7269C25.8561 28.9752 24.297 32.6133 19.4896 34.5622ZM28.1949 1.68982C28.7146 2.8592 28.9745 7.53669 28.7146 11.1747C27.6752 9.09586 26.116 7.40676 24.297 6.10746C25.5963 3.76871 27.5452 1.94969 28.1949 1.68982ZM10.7842 1.68982C11.5638 2.07962 13.5128 3.76871 14.5522 6.10746C12.8631 7.27683 11.4339 9.09586 10.2645 11.0448C10.0046 7.53669 10.3944 2.8592 10.7842 1.68982ZM9.87471 18.4508C9.87471 17.1515 10.1346 15.5924 10.6543 14.2931C10.6543 14.2931 10.6543 14.1631 10.7842 14.1631C12.3434 9.87544 15.7216 6.10746 19.6195 6.10746C23.5174 6.10746 27.0255 9.87544 28.4548 14.1631V14.2931C28.9745 15.7223 29.2343 17.0216 29.2343 18.4508C29.2343 20.7896 28.3248 22.4787 26.7657 23.6481C25.2065 24.6875 22.7378 25.3372 19.6195 25.3372C16.3712 25.3372 14.0325 24.8174 12.4733 23.6481C10.6543 22.4787 9.87471 20.7896 9.87471 18.4508ZM10.6543 40.6689V40.539L15.2019 54.3116C15.2019 54.3116 15.2019 54.4416 15.3318 54.4416H9.74478L7.2761 50.2838L10.6543 40.6689ZM1.6891 54.4416C1.94896 52.6225 3.24826 51.1933 4.67749 51.1933H5.84687L7.79582 54.4416H1.6891ZM18.71 53.4021C18.71 53.9218 18.3202 54.3116 17.8005 54.3116C17.4107 54.3116 17.0209 54.0518 16.891 53.662L10.6543 34.952C9.74478 32.3534 10.0046 29.4949 11.174 27.1562L11.4339 26.7664C12.2135 30.9242 15.0719 34.4323 18.8399 35.9915V53.4021H18.71ZM20.3991 35.9915C24.5568 34.1724 27.0255 30.9242 27.6752 26.7664L27.935 27.1562C29.1044 29.4949 29.3643 32.3534 28.4548 34.952L22.2181 53.662C22.0882 54.0518 21.6984 54.3116 21.3086 54.3116C20.7889 54.3116 20.3991 53.9218 20.3991 53.4021V35.9915ZM31.1833 54.4416L33.1322 51.1933H34.3016C35.8608 51.1933 37.0302 52.6225 37.29 54.4416H31.1833Z" fill="#333333"/>
<path d="M55.2206 12.2135H54.7009V4.80743C54.7009 3.24826 53.5316 1.81903 52.1023 1.42923V1.2993C52.1023 0.909513 51.8425 0.649652 51.4527 0.519722L49.3738 3.42727e-07C48.984 -0.12993 48.5942 3.35276e-07 48.2044 0.259861C47.8146 0.519722 47.6847 0.909513 47.6847 1.2993V2.72854C47.6847 3.11833 47.8146 3.50812 48.2044 3.76798C48.4643 4.02784 48.7241 4.02784 49.1139 4.02784C49.2438 4.02784 49.3738 4.02784 49.3738 4.02784L51.4527 3.50812C51.7125 3.63805 51.9724 3.37819 51.9724 3.11833C52.622 3.37819 53.0118 4.02784 53.0118 4.80743V12.3434H52.4921C52.1023 12.3434 51.7125 12.7332 51.7125 13.123C51.7125 16.761 48.7241 19.7494 45.0861 19.7494C41.448 19.7494 38.4596 16.761 38.4596 13.123C38.4596 12.7332 38.0698 12.3434 37.68 12.3434H37.1603V4.80743C37.1603 4.02784 37.5501 3.50812 38.1998 3.11833C38.3297 3.37819 38.4596 3.63805 38.8494 3.76798L40.9283 4.2877C41.0582 4.2877 41.1882 4.2877 41.1882 4.2877C41.448 4.2877 41.8378 4.15777 42.0977 4.02784C42.4875 3.76798 42.6174 3.37819 42.6174 2.9884V1.42923C42.6174 1.03944 42.4875 0.649652 42.0977 0.389792C41.578 3.53903e-07 41.1882 3.42727e-07 40.6684 3.42727e-07L38.5896 0.519722C38.1998 0.649652 37.9399 0.909513 37.9399 1.2993V1.42923C36.3807 1.81903 35.3413 3.11833 35.3413 4.80743V12.3434H34.8216C34.4318 12.3434 34.042 12.7332 34.042 13.123C34.042 18.3202 37.5501 22.7378 42.6174 23.7773V24.5568C42.6174 25.5963 43.267 26.5058 44.3065 26.8956V52.8817C44.3065 53.7912 43.5269 54.4408 42.7473 54.4408C41.8378 54.4408 41.1882 53.6613 41.1882 52.8817V41.5777C42.6174 41.1879 43.7868 39.8886 43.7868 38.3295C43.7868 36.5104 42.2276 34.9513 40.4086 34.9513C38.5896 34.9513 37.0304 36.5104 37.0304 38.3295C37.0304 39.8886 38.1998 41.3179 39.629 41.5777V52.8817C39.629 54.7007 41.0582 56.1299 42.8773 56.1299C44.6963 56.1299 46.1255 54.7007 46.1255 52.8817V26.8956C47.035 26.5058 47.6847 25.7262 47.6847 24.6868V23.9072C52.622 22.8678 56.2601 18.3202 56.2601 13.2529C56.0002 12.6032 55.7404 12.2135 55.2206 12.2135ZM50.4132 2.33875L49.2439 2.59861V1.6891L50.4132 1.94896V2.33875ZM39.629 1.94896L40.7984 1.6891V2.59861L39.629 2.33875V1.94896ZM38.4596 38.1995C38.4596 37.1601 39.2392 36.3805 40.2787 36.3805C41.3181 36.3805 42.0977 37.1601 42.0977 38.1995C42.0977 39.239 41.3181 40.0186 40.2787 40.0186C39.2392 40.0186 38.4596 39.239 38.4596 38.1995ZM46.5153 22.348C46.1255 22.348 45.8657 22.7378 45.8657 23.1276V24.5568C45.8657 24.9466 45.4759 25.3364 45.0861 25.3364C44.6963 25.3364 44.1766 24.9466 44.1766 24.5568V23.1276C44.1766 22.7378 43.9167 22.348 43.5269 22.348C39.2392 21.6984 36.1209 18.1903 35.7311 13.9026H36.7705C37.1603 18.0603 40.6684 21.4385 45.0861 21.4385C49.5037 21.4385 52.8819 18.1903 53.4016 13.9026H54.4411C54.0513 18.0603 50.803 21.6984 46.5153 22.348Z" fill="#B81F21"/>
</g>
<defs>
<clipPath id="clip0">
<rect width="56" height="56" fill="white"/>
</clipPath>
</defs>
</svg>
