<svg width="56" height="56" viewBox="0 0 56 56" fill="none" xmlns="http://www.w3.org/2000/svg">
<g clip-path="url(#clip0)">
<path d="M33.2623 6.13566C33.1323 6.13566 32.8725 6.13566 32.7426 6.00512C28.8446 3.13333 20.1393 2.74172 12.4734 2.48064C8.18571 2.35011 3.89801 2.21957 0.649748 1.56689C0.259956 1.56689 -0.129835 1.04475 9.55407e-05 0.653139C0.130026 0.261531 0.519817 -0.130078 0.909608 0.000458496C4.02794 0.522603 8.18571 0.783675 12.6033 0.914211C20.9189 1.17528 29.4943 1.43636 33.782 4.69976C34.1718 4.96083 34.1718 5.48298 33.9119 5.87458C33.782 6.00512 33.5221 6.13566 33.2623 6.13566Z" fill="#333333"/>
<path d="M34.8211 49.7343C34.5613 49.7343 34.3014 49.6037 34.1715 49.3427C33.9116 48.951 34.0415 48.4289 34.4313 48.1678C37.0299 46.4709 38.3292 44.5128 38.4592 42.1632C38.4592 40.7273 37.6796 39.4219 36.3803 38.6387L34.0415 37.2028C33.6517 36.9417 33.5218 36.4196 33.7817 36.028C34.0415 35.6364 34.5613 35.5058 34.9511 35.7669L37.2898 37.2028C39.1088 38.2471 40.2782 40.2051 40.1483 42.1632C40.0183 45.035 38.4592 47.3846 35.4708 49.4732C35.2109 49.6037 35.081 49.7343 34.8211 49.7343Z" fill="#333333"/>
<path d="M32.0927 36.028C31.9628 36.028 31.8329 36.028 31.703 35.8975C30.9234 35.5058 30.1438 34.9837 29.4941 34.5921C29.1043 34.331 28.9744 33.8089 29.2343 33.4173C29.4941 33.0257 30.0139 32.8951 30.4036 33.1562C31.1832 33.5478 31.8329 34.0699 32.6125 34.4616C33.0023 34.7226 33.1322 35.2448 32.8723 35.6364C32.6125 35.8974 32.3526 36.028 32.0927 36.028ZM26.5057 32.634C26.3758 32.634 26.2459 32.634 26.1159 32.5035C25.3364 31.9814 24.6867 31.4592 23.9071 31.0676C23.5173 30.8065 23.5173 30.2844 23.7772 29.8928C24.0371 29.5012 24.5568 29.5012 24.9466 29.7623C25.5962 30.2844 26.3758 30.676 27.0255 31.1981C27.4152 31.4592 27.5452 31.9814 27.2853 32.373C27.0255 32.5035 26.7656 32.634 26.5057 32.634ZM21.3085 28.718C21.1786 28.718 20.9187 28.718 20.7888 28.5874C20.1391 27.9347 19.4895 27.4126 18.8398 26.7599C18.58 26.4988 18.4501 25.9767 18.8398 25.5851C19.0997 25.324 19.6194 25.324 20.0092 25.5851C20.5289 26.1072 21.1786 26.7599 21.8282 27.2821C22.218 27.5431 22.218 28.0653 21.9582 28.4569C21.8282 28.718 21.5684 28.718 21.3085 28.718ZM16.761 24.0187C16.5011 24.0187 16.2412 23.8881 16.1113 23.6271C15.5916 22.8438 15.0719 22.0606 14.6821 21.4079C14.4222 21.0163 14.5521 20.4942 14.9419 20.2331C15.3317 19.972 15.8514 20.1026 16.1113 20.4942C16.5011 21.1469 17.0208 21.9301 17.4106 22.5828C17.6705 22.9744 17.6705 23.4965 17.2807 23.7576C17.1507 24.0187 17.0208 24.0187 16.761 24.0187Z" fill="#B81F21"/>
<path d="M37.0301 56C36.7702 56 36.6403 55.8695 36.3804 55.7389C36.1206 55.3473 36.1206 54.9557 36.3804 54.5641C41.8375 49.3426 46.3851 43.9907 50.283 38.1165C50.8027 37.3333 50.6728 36.289 49.8932 35.6364C48.8538 34.5921 47.6844 33.5478 46.515 32.3729C46.2551 32.1119 46.2551 31.5897 46.515 31.1981C46.7749 30.9371 47.2946 30.9371 47.6844 31.1981C48.8538 32.3729 50.0231 33.4172 51.0626 34.4615C52.3619 35.6364 52.6217 37.5944 51.7122 39.0303C47.8143 45.035 43.1368 50.5175 37.5498 55.8695C37.5498 56 37.29 56 37.0301 56Z" fill="#333333"/>
<path d="M47.1649 32.634C46.9051 32.634 46.7751 32.5035 46.6452 32.373C45.9956 31.7203 45.4758 31.1981 44.8262 30.5455C44.5663 30.2844 44.5663 29.7623 44.8262 29.3706C45.086 29.1096 45.6058 29.1096 45.9956 29.3706C46.6452 30.0233 47.1649 30.676 47.8146 31.1981C48.0744 31.4592 48.0744 31.9814 47.8146 32.373C47.6847 32.5035 47.4248 32.634 47.1649 32.634ZM42.6174 27.9347C42.3575 27.9347 42.0976 27.8042 41.9677 27.6737C41.3181 26.8905 40.9283 25.8462 40.7983 24.9324C40.7983 24.5408 41.0582 24.0187 41.448 24.0187C41.8378 24.0187 42.3575 24.2797 42.3575 24.6713C42.4874 25.324 42.7473 26.1072 43.1371 26.6294C43.397 27.021 43.397 27.5431 43.0072 27.8042C43.0072 27.9347 42.8772 27.9347 42.6174 27.9347ZM42.0977 21.669C42.0977 21.669 41.9677 21.669 42.0977 21.669C41.5779 21.669 41.3181 21.2774 41.3181 20.8858V20.7553C41.3181 19.972 41.1881 19.1888 41.0582 18.4056C40.9283 18.014 41.3181 17.4919 41.7079 17.4919C42.0976 17.3613 42.6174 17.7529 42.6174 18.1445C42.7473 19.0583 42.8772 19.8415 42.8772 20.7553V20.8858C42.8772 21.2774 42.4874 21.669 42.0977 21.669ZM40.6684 15.2727C40.4086 15.2727 40.0188 15.1422 39.8888 14.7506C39.629 13.9674 39.2392 13.1842 38.8494 12.5315C38.5895 12.1399 38.7195 11.6177 39.1093 11.3567C39.629 11.2261 40.0188 11.3567 40.2786 11.7483C40.6684 12.5315 41.0582 13.3147 41.448 14.2284C41.5779 14.6201 41.448 15.1422 41.0582 15.2727C40.9283 15.2727 40.7983 15.2727 40.6684 15.2727ZM37.4202 9.79022C37.1603 9.79022 36.9004 9.65968 36.7705 9.52915C36.2508 8.87647 35.6011 8.22379 35.0814 7.70164C34.6916 7.44057 34.6916 6.91842 35.0814 6.52681C35.3413 6.13521 35.861 6.13521 36.2508 6.52681C36.9004 7.04896 37.5501 7.83218 38.0698 8.48486C38.3297 8.87647 38.3297 9.39861 37.9399 9.65968C37.8099 9.65968 37.5501 9.79022 37.4202 9.79022Z" fill="#B81F21"/>
<path d="M37.03 56H25.2063C24.8165 56 24.4268 55.6084 24.4268 55.2168C24.4268 51.3007 27.675 48.0373 31.5729 48.0373H34.8212C35.211 48.0373 35.6008 48.4289 35.6008 48.8205C35.6008 49.2121 35.211 49.6037 34.8212 49.6037H31.5729C28.8444 49.6037 26.5056 51.6923 26.1159 54.303H37.03C37.4198 54.303 37.8096 54.6947 37.8096 55.0863C37.8096 55.4779 37.5497 56 37.03 56Z" fill="#333333"/>
<path d="M2.59861 32.634C1.94896 32.634 1.42923 32.634 0.779582 32.634C0.389791 32.634 0 32.2424 0 31.8508C0 31.4592 0.389791 31.0676 0.909513 31.0676C5.06729 31.1981 8.31555 30.8065 12.4733 29.5012C12.8631 29.3706 13.3828 29.6317 13.5128 30.0233C13.6427 30.4149 13.3828 30.9371 12.993 31.0676C9.09513 32.2424 6.23666 32.634 2.59861 32.634Z" fill="#333333"/>
<path d="M12.7323 31.0676C12.3425 31.0676 12.0827 30.8065 11.9527 30.5454C11.8228 30.1538 12.0827 29.6317 12.4725 29.5012C12.9922 29.3706 13.5119 29.2401 13.9017 28.979C14.2915 28.8485 14.8112 28.979 14.9411 29.5012C15.0711 29.8928 14.9411 30.4149 14.4214 30.5454C13.9017 30.676 13.382 30.9371 12.8623 31.0676C12.8623 30.9371 12.7323 31.0676 12.7323 31.0676ZM17.7996 28.979C17.5398 28.979 17.15 28.8485 17.02 28.5874C16.7602 28.1958 17.02 27.6737 17.4098 27.5431C18.1894 27.1515 18.8391 26.7599 19.6186 26.3683C20.0084 26.1072 20.5282 26.2378 20.788 26.6294C21.0479 27.021 20.9179 27.5431 20.5282 27.8042C19.7486 28.1958 18.969 28.7179 18.1894 29.1095C18.0595 28.8485 17.9295 28.979 17.7996 28.979Z" fill="#B81F21"/>
<path d="M47.034 19.3193C46.1245 19.3193 45.215 19.1888 44.3055 18.9277C43.9157 18.7972 43.6558 18.2751 43.7858 17.8834C43.9157 17.4918 44.4354 17.2308 44.8252 17.3613C45.6048 17.6224 46.2544 17.7529 47.034 17.7529C47.4238 17.7529 47.9435 18.1445 47.9435 18.5361C47.9435 18.9277 47.6837 19.3193 47.034 19.3193C47.1639 19.3193 47.1639 19.3193 47.034 19.3193Z" fill="#B81F21"/>
<path d="M47.1643 19.3193C46.7746 19.3193 46.3848 18.9277 46.3848 18.5361C46.3848 18.1445 46.7746 17.7529 47.1643 17.7529C48.0739 17.7529 49.1133 17.4918 50.1527 17.1002C49.1133 17.2308 48.0739 17.1002 47.0344 16.8392C46.6446 16.7086 46.3848 16.317 46.3848 15.7949C46.5147 15.4033 46.9045 15.1422 47.4242 15.1422C49.8929 15.7949 52.3616 15.2727 54.8302 13.7063C55.22 13.4452 55.6098 13.5758 55.8697 13.8368C56.1295 14.2284 56.1295 14.62 55.7397 14.8811C52.8813 17.8834 50.0228 19.3193 47.1643 19.3193Z" fill="#333333"/>
<path d="M46.6446 16.7086H46.5147C45.6052 16.4476 44.8256 16.0559 43.9161 15.4033C43.5263 15.1422 43.5263 14.62 43.7862 14.2284C44.046 13.8368 44.5657 13.8368 44.9555 14.0979C45.6052 14.62 46.2548 15.0117 46.9045 15.1422C47.2943 15.2727 47.5541 15.6643 47.5541 16.1865C47.4242 16.4476 47.0344 16.7086 46.6446 16.7086ZM41.7073 12.662C41.4474 12.662 41.3175 12.5315 41.0576 12.4009C40.5379 11.7483 39.8882 11.0956 39.3685 10.5734C38.9787 10.3124 38.9787 9.79021 39.3685 9.3986C39.6284 9.13753 40.1481 9.00699 40.5379 9.3986C41.1875 10.0513 41.8372 10.704 42.3569 11.3566C42.6168 11.7482 42.6168 12.2704 42.3569 12.5315C42.0971 12.662 41.8372 12.662 41.7073 12.662Z" fill="#B81F21"/>
<path d="M46.7745 4.96037C45.9949 4.17715 44.9555 3.91608 43.7861 3.91608C34.5611 4.82983 25.2061 4.82983 16.1109 3.91608C15.0715 3.78554 13.9021 4.17715 13.1225 4.96037C12.343 5.74358 11.8232 6.65734 11.8232 7.83216V32.8951C11.8232 34.8531 13.2525 36.4196 15.0715 36.6806C19.6191 37.3333 24.4265 37.5944 29.3638 37.5944C34.3012 37.5944 39.4984 37.2028 44.6956 36.5501C46.6446 36.289 47.9439 34.7226 47.9439 32.7646V7.70163C48.0738 6.65734 47.5541 5.61305 46.7745 4.96037ZM46.3847 32.7646C46.3847 33.8088 45.6051 34.8531 44.4358 34.9837C34.1713 36.289 24.4265 36.289 15.3314 34.9837C14.2919 34.8531 13.5123 33.9394 13.5123 32.7646V7.70163C13.5123 7.04895 13.7722 6.5268 14.162 6.13519C14.5518 5.74358 15.0715 5.61305 15.7212 5.61305C15.8511 5.61305 15.8511 5.61305 15.981 5.61305C25.336 6.5268 34.691 6.5268 44.046 5.61305C44.6956 5.61305 45.3453 5.74358 45.7351 6.13519C46.2548 6.5268 46.3847 7.17948 46.3847 7.70163V32.7646Z" fill="#B81F21"/>
<path d="M37.5491 24.1492C36.8994 24.0186 36.2498 24.0186 35.6001 24.2797C35.4702 24.4103 35.2103 24.2797 34.9505 24.0186L32.092 20.8858C31.9621 20.7552 31.9621 20.7552 31.8321 20.6247L30.6628 20.2331C30.4029 20.1026 30.143 20.2331 30.0131 20.2331C29.7532 20.3636 29.6233 20.6247 29.6233 20.7552L29.4934 21.7995L27.9342 22.1911C27.6744 22.1911 27.4145 22.4522 27.2846 22.7133C27.1546 22.9744 27.1546 23.2354 27.4145 23.4965L28.324 24.6713L31.0525 27.6737C31.1825 27.8042 31.3124 28.0653 31.1825 28.3263C30.9226 28.8485 30.7927 29.5012 30.9226 30.2844C31.0525 31.5897 32.092 32.7646 33.3913 33.0256C33.6512 33.1562 33.911 33.1562 34.1709 33.1562C34.8205 33.1562 35.6001 32.8951 36.1198 32.5035C36.7695 32.1119 37.1593 31.4592 37.2892 30.676C38.0688 30.5454 38.7184 30.1538 39.1082 29.6317C39.7579 28.8485 40.0177 27.9347 39.8878 26.8904C39.7579 25.4545 38.8484 24.4103 37.5491 24.1492ZM38.0688 28.4569C37.679 28.8485 37.2892 29.1096 36.7695 28.979C36.3797 28.979 35.9899 29.3706 35.86 29.7622C35.86 30.2844 35.6001 30.676 35.2103 31.0676C34.8205 31.3287 34.3008 31.4592 33.7811 31.3287C33.1314 31.1981 32.6117 30.5454 32.6117 29.8928C32.6117 29.5012 32.6117 29.2401 32.7416 28.979C33.1314 28.1958 33.0015 27.1515 32.3518 26.4988L29.6233 23.4965L30.273 23.366C30.6628 23.366 30.9226 23.1049 30.9226 22.7133L31.0525 22.0606L33.7811 25.0629C34.4307 25.7156 35.3402 25.9767 36.1198 25.7156C36.3797 25.5851 36.7695 25.5851 37.0293 25.7156C37.679 25.8461 38.1987 26.3683 38.3286 27.021C38.4586 27.5431 38.3286 28.0653 38.0688 28.4569Z" fill="#B81F21"/>
<path d="M24.9466 20.3636H27.2853C27.6751 20.3636 27.935 20.1026 28.0649 19.8415L28.8445 17.6224C28.9744 17.3613 28.8445 16.9697 28.7145 16.8392L25.8561 13.7063C25.7261 13.5758 25.5962 13.3147 25.7261 13.0536C25.986 12.5315 26.1159 11.7483 25.986 11.0956C25.8561 9.79021 24.8166 8.61538 23.5173 8.35431C22.4779 8.09324 21.5684 8.35431 20.6589 8.87646C20.0092 9.26806 19.6194 9.92075 19.4895 10.704C18.7099 10.8345 18.0603 11.2261 17.6705 11.7483C17.0208 12.5315 16.761 13.4452 16.8909 14.4895C17.1507 15.7949 18.0603 16.8392 19.3596 17.2308C20.0092 17.3613 20.6589 17.3613 21.3085 17.1002C21.4384 16.9697 21.6983 17.1002 21.9582 17.3613L24.4268 20.1026C24.5568 20.2331 24.6867 20.3636 24.9466 20.3636ZM20.6589 15.6643C20.399 15.7949 20.0092 15.7949 19.7493 15.6643C19.0997 15.5338 18.58 15.0117 18.45 14.359C18.3201 13.8368 18.45 13.3147 18.8398 12.9231C19.2296 12.5315 19.6194 12.2704 20.1391 12.4009C20.6589 12.4009 20.9187 12.0093 21.0487 11.6177C21.0487 11.0956 21.3085 10.704 21.6983 10.3124C22.0881 10.0513 22.6078 9.92075 23.1275 10.0513C23.7772 10.1818 24.2969 10.8345 24.2969 11.4872C24.2969 11.8788 24.2969 12.1399 24.167 12.4009C23.7772 13.1841 23.9071 14.2284 24.5568 14.8811L27.0255 17.6224L26.6357 18.7972H25.3364L23.1275 16.317C22.4779 15.6643 21.4384 15.4033 20.6589 15.6643Z" fill="#B81F21"/>
<path d="M25.4657 21.2774C25.2058 20.8858 24.6861 20.7552 24.2963 20.8858L23.2569 21.4079C22.8671 21.669 22.7372 22.0606 22.8671 22.4522C22.997 22.7133 23.2569 22.8438 23.6467 22.8438C23.7766 22.8438 23.9065 22.8438 24.0365 22.7133L25.0759 22.1911C25.4657 22.1911 25.5956 21.669 25.4657 21.2774Z" fill="#B81F21"/>
<path d="M26.3751 22.0606C25.9854 21.9301 25.4656 22.1911 25.3357 22.5827L24.9459 23.627C24.816 24.0186 25.0758 24.5408 25.4656 24.6713C25.5956 24.6713 25.5956 24.6713 25.7255 24.6713C26.1153 24.6713 26.3751 24.4103 26.5051 24.1492L26.8949 23.1049C27.0248 22.7133 26.7649 22.1911 26.3751 22.0606Z" fill="#B81F21"/>
<path d="M29.7541 18.1445C29.884 18.1445 30.014 18.1445 30.014 18.1445C30.2738 18.1445 30.6636 18.014 30.7935 17.6224L31.1833 16.5781C31.3133 16.1865 31.1833 15.6643 30.7935 15.5338C30.4037 15.4033 29.884 15.5338 29.7541 15.9254L29.3643 16.9697C29.1044 17.4918 29.2344 18.014 29.7541 18.1445Z" fill="#B81F21"/>
<path d="M30.5333 19.0583C30.6632 19.3193 30.9231 19.5804 31.3129 19.5804C31.4428 19.5804 31.5728 19.5804 31.5728 19.5804L32.6122 19.1888C33.002 19.0583 33.2618 18.5361 33.002 18.1445C32.8721 17.7529 32.3523 17.4918 31.9625 17.7529L30.9231 18.1445C30.5333 18.2751 30.2735 18.6667 30.5333 19.0583Z" fill="#B81F21"/>
</g>
<defs>
<clipPath id="clip0">
<rect width="56" height="56" fill="white"/>
</clipPath>
</defs>
</svg>
