<svg width="48" height="56" viewBox="0 0 48 56" fill="none" xmlns="http://www.w3.org/2000/svg">
<g clip-path="url(#clip0)">
<path d="M33.6392 37.0741C33.6392 36.1667 33.2511 35.2592 32.6042 34.7407C33.2511 34.0926 33.6392 33.3148 33.6392 32.4074C33.6392 30.5926 32.2161 29.1667 30.4047 29.1667H26.2646V26.4444C26.2646 26.0555 25.8764 25.6667 25.4883 25.6667C25.1002 25.6667 24.712 26.0555 24.712 26.4444V29.4259C24.712 30.2037 25.3589 30.8518 26.1352 30.8518H30.5341C31.4398 30.8518 32.0867 31.5 32.0867 32.4074C32.0867 33.3148 31.3104 33.963 30.5341 33.963H17.7255C17.3374 33.963 16.9492 34.3518 16.9492 34.7407C16.9492 35.1296 17.3374 35.5185 17.7255 35.5185H30.5341C31.4398 35.5185 32.0867 36.1667 32.0867 37.0741C32.0867 37.9815 31.3104 38.6296 30.5341 38.6296H17.7255C17.3374 38.6296 16.9492 39.0185 16.9492 39.4074C16.9492 39.7963 17.3374 40.1852 17.7255 40.1852H30.5341C31.4398 40.1852 32.0867 40.8333 32.0867 41.7407C32.0867 42.6481 31.3104 43.2963 30.5341 43.2963H17.7255C17.3374 43.2963 16.9492 43.6852 16.9492 44.0741C16.9492 44.463 17.3374 44.8518 17.7255 44.8518H30.5341C31.4398 44.8518 32.0867 45.5 32.0867 46.4074C32.0867 47.3148 31.3104 47.963 30.5341 47.963H17.7255C17.3374 47.963 16.9492 48.3518 16.9492 48.7407C16.9492 49.1296 17.3374 49.5185 17.7255 49.5185H23.2888C24.1945 49.5185 24.8414 50.1667 24.8414 51.0741V54.8333C24.8414 55.2222 25.2295 55.6111 25.6177 55.6111C26.0058 55.6111 26.394 55.2222 26.394 54.8333V51.0741C26.394 50.5555 26.2646 49.9074 26.0058 49.5185H30.5341C32.3454 49.5185 33.7686 48.0926 33.7686 46.2778C33.7686 45.3704 33.3805 44.463 32.7336 43.9444C33.3805 43.2963 33.7686 42.5185 33.7686 41.6111C33.7686 40.7037 33.3805 39.7963 32.7336 39.2778C33.1217 38.8889 33.6392 37.9815 33.6392 37.0741Z" fill="#B81F21"/>
<path d="M22.5123 50.5555H17.5958C16.6902 50.5555 16.0433 49.9074 16.0433 49C16.0433 48.0926 16.8195 47.4444 17.5958 47.4444H30.4045C30.7926 47.4444 31.1807 47.0555 31.1807 46.6667C31.1807 46.2778 30.7926 45.8889 30.4045 45.8889H17.5958C16.6902 45.8889 16.0433 45.2407 16.0433 44.3333C16.0433 43.4259 16.8195 42.7778 17.5958 42.7778H30.4045C30.7926 42.7778 31.1807 42.3889 31.1807 42C31.1807 41.6111 30.7926 41.2222 30.4045 41.2222H17.5958C16.6902 41.2222 16.0433 40.5741 16.0433 39.6667C16.0433 38.7593 16.8195 38.1111 17.5958 38.1111H30.4045C30.7926 38.1111 31.1807 37.7222 31.1807 37.3333C31.1807 36.9444 30.7926 36.5555 30.4045 36.5555H17.5958C16.6902 36.5555 16.0433 35.9074 16.0433 35C16.0433 34.0926 16.8195 33.4444 17.5958 33.4444H30.4045C30.7926 33.4444 31.1807 33.0555 31.1807 32.6667C31.1807 32.2778 30.7926 31.8889 30.4045 31.8889H25.3586C24.453 31.8889 23.8061 31.2407 23.8061 30.3333V26.7037C23.8061 26.3148 23.4179 25.9259 23.0298 25.9259C22.6417 25.9259 22.2535 26.3148 22.2535 26.7037V30.3333C22.2535 30.8518 22.3829 31.5 22.6417 31.8889H17.5958C15.7845 31.8889 14.3613 33.3148 14.3613 35.1296C14.3613 36.037 14.7495 36.9444 15.3964 37.463C14.7495 38.1111 14.3613 38.8889 14.3613 39.7963C14.3613 40.7037 14.7495 41.6111 15.3964 42.1296C14.7495 42.7778 14.3613 43.5555 14.3613 44.463C14.3613 45.3704 14.7495 46.2778 15.3964 46.7963C14.7495 47.4444 14.3613 48.2222 14.3613 49.1296C14.3613 50.9444 15.7845 52.3704 17.5958 52.3704H22.2535V55.3518C22.2535 55.7407 22.6417 56.1296 23.0298 56.1296C23.4179 56.1296 23.8061 55.7407 23.8061 55.3518V51.8518C23.9355 51.2037 23.2886 50.5555 22.5123 50.5555Z" fill="#B81F21"/>
<path d="M19.9247 15.2963C20.3129 15.2963 20.701 14.9074 20.701 14.5185V12.8333C20.701 12.4444 20.3129 12.0556 19.9247 12.0556C19.5366 12.0556 19.1484 12.4444 19.1484 12.8333V14.5185C19.1484 14.9074 19.5366 15.2963 19.9247 15.2963Z" fill="#333333"/>
<path d="M28.0751 15.2963C28.4632 15.2963 28.8514 14.9074 28.8514 14.5185V12.8333C28.8514 12.4444 28.4632 12.0556 28.0751 12.0556C27.687 12.0556 27.2988 12.4444 27.2988 12.8333V14.5185C27.2988 14.9074 27.687 15.2963 28.0751 15.2963Z" fill="#333333"/>
<path d="M21.8647 23.2037C22.7703 23.2037 23.5466 22.8148 24.0641 22.1667C24.5816 22.8148 25.3579 23.2037 26.2636 23.2037C26.6517 23.2037 27.0399 22.8148 27.0399 22.4259C27.0399 22.037 26.6517 21.6482 26.2636 21.6482C25.6167 21.6482 25.0992 21.2593 24.9698 20.6111C25.6167 20.2222 26.0048 19.7037 26.393 19.1852C26.9105 18.2778 26.9105 17.2407 26.2636 16.5926C25.7461 16.0741 24.8404 15.9445 24.1935 16.2037C23.5466 15.9445 22.6409 16.0741 22.1234 16.5926C21.4765 17.2407 21.3471 18.2778 21.994 19.1852C22.3822 19.7037 22.7703 20.2222 23.4172 20.6111C23.2878 21.2593 22.7703 21.6482 22.1234 21.6482C21.7353 21.6482 21.3471 22.037 21.3471 22.4259C20.959 22.8148 21.3471 23.2037 21.8647 23.2037ZM23.0291 17.6296C23.0291 17.6296 23.1585 17.5 23.2878 17.5C23.4172 17.5 23.4172 17.5 23.4172 17.6296C23.676 17.8889 24.1935 17.8889 24.5816 17.6296C24.711 17.5 24.8404 17.5 24.9698 17.6296C25.0992 17.7593 24.9698 18.0185 24.9698 18.2778C24.711 18.6667 24.4523 18.9259 24.0641 19.1852C23.676 18.9259 23.4172 18.6667 23.1585 18.2778C23.0291 18.0185 22.8997 17.7593 23.0291 17.6296Z" fill="#333333"/>
<path d="M42.3073 49.5185H40.7547L36.6146 40.0556C35.9677 38.6296 36.097 37.0741 36.7439 35.6482C38.0377 32.6667 37.779 29.1667 35.9677 26.4444L33.8976 23.3333C36.097 21.2593 37.5202 18.537 37.5202 15.4259C37.5202 13.3519 36.8733 11.2778 35.7089 9.5926C35.8383 9.33334 35.9677 8.94445 35.9677 8.68519C36.8733 4.66667 34.9326 0.518524 33.2507 5.76302e-06C31.8275 -0.388883 29.1105 1.55556 27.558 4.27778C26.3935 4.01852 25.2291 3.88889 24.0647 3.88889C22.7709 3.88889 21.6065 4.01852 20.442 4.27778C19.0189 1.55556 16.1725 -0.388883 14.7493 5.76302e-06C13.0674 0.388895 10.9973 4.66667 12.0323 8.68519C12.1617 9.07408 12.2911 9.33334 12.4205 9.5926C11.2561 11.2778 10.6092 13.3519 10.6092 15.4259C10.6092 18.4074 11.903 21.1296 14.1024 23.2037L12.1617 26.3148C10.3504 29.037 10.0916 32.4074 11.3854 35.5185C12.0323 37.0741 12.0323 38.6296 11.3854 39.9259L7.1159 49.3889H5.69272C2.5876 49.3889 0 51.9815 0 55.0926C0 55.4815 0.38814 55.8704 0.77628 55.8704H11.2561H36.7439H47.0943C47.4825 55.8704 47.8706 55.4815 47.8706 55.0926C48 51.9815 45.4124 49.5185 42.3073 49.5185ZM32.8625 1.55556C33.3801 1.81482 35.1914 4.66667 34.4151 8.03704C33.5094 7.12963 32.4744 6.35186 31.4394 5.70371C31.8275 4.66667 32.2156 4.14815 32.7332 3.50001C33.1213 3.24075 33.1213 2.72223 32.7332 2.33334C32.4744 1.94445 31.9569 1.94445 31.5687 2.33334C30.6631 3.11112 30.2749 3.88889 29.8868 5.05556C29.628 4.92593 29.3693 4.7963 29.1105 4.7963C30.4043 2.5926 32.345 1.55556 32.8625 1.55556ZM15.2668 1.55556C15.7844 1.55556 17.7251 2.5926 18.8895 4.66667C18.6307 4.7963 18.372 4.92593 18.1132 4.92593C17.7251 3.88889 17.2075 2.98149 16.4313 2.20371C16.0431 1.94445 15.655 1.94445 15.2668 2.20371C15.0081 2.5926 15.0081 2.98149 15.2668 3.37038C15.9137 3.88889 16.1725 4.53704 16.5606 5.57408C15.3962 6.22223 14.3612 7.00001 13.5849 7.90741C12.938 4.7963 14.6199 1.81482 15.2668 1.55556ZM12.1617 15.4259C12.1617 9.98149 17.4663 5.44445 24.0647 5.44445C30.6631 5.44445 35.9677 9.85186 35.9677 15.4259C35.9677 20.8704 30.6631 25.4074 24.0647 25.4074C17.4663 25.4074 12.1617 21 12.1617 15.4259ZM12.8086 40.7037C13.5849 38.8889 13.5849 36.8148 12.8086 34.8704C11.7736 32.4074 11.903 29.5556 13.4555 27.2222L15.2668 24.2407C17.5957 25.9259 20.7008 26.963 23.9353 26.963C27.1698 26.963 30.2749 25.9259 32.6038 24.2407L34.5445 27.0926C35.9677 29.4259 36.2264 32.2778 35.1914 34.7407C34.4151 36.6852 34.2857 38.7593 35.062 40.4445L39.2022 50.037L36.097 54.1852H11.6442L8.53908 50.037L12.8086 40.7037ZM5.69272 51.0741H7.37466L9.0566 53.537L9.7035 54.3148H1.68194C2.07008 52.5 3.75202 51.0741 5.69272 51.0741ZM38.4259 54.3148L40.7547 51.0741H42.3073C44.248 51.0741 45.9299 52.5 46.3181 54.3148H38.4259Z" fill="#333333"/>
</g>
<defs>
<clipPath id="clip0">
<rect width="48" height="56" fill="white"/>
</clipPath>
</defs>
</svg>
