<svg width="40" height="40" viewBox="0 0 40 40" fill="none" xmlns="http://www.w3.org/2000/svg">
<path d="M35.6833 30.4639L34.6967 29.7291C37.3426 26.5914 38.7411 22.811 38.7411 18.7966C38.7411 14.0907 36.792 9.66727 33.2528 6.34118C29.7137 3.01493 25.0071 1.1831 20 1.1831C16.2237 1.1831 12.5843 2.23306 9.4753 4.21933L8.76758 3.24091C12.0861 1.12063 15.9703 0 20 0C25.3434 0 30.3661 1.95488 34.1431 5.50449C37.92 9.05411 40 13.7747 40 18.7965C40 23.0804 38.5072 27.1149 35.6833 30.4639Z" fill="#B81F21"/>
<path d="M4.6756 40.0001V30.8661C1.65874 27.4893 0 23.2122 0 18.7966C0 13.3118 2.53934 8.11441 6.96686 4.53711L7.78746 5.43429C3.63848 8.78665 1.25884 13.657 1.25884 18.7966C1.25884 23.003 2.8653 27.0752 5.78229 30.2631L5.93444 30.4294V37.6479C6.73859 36.9835 7.98703 35.8458 9.49361 34.116L9.79565 33.7693L10.2326 33.9486C12.6518 34.9413 17.429 36.4102 19.9999 36.4102C24.8368 36.4102 29.4276 34.6847 32.9267 31.5514L33.7952 32.408C30.0608 35.7518 25.1617 37.5932 20 37.5932C17.3688 37.5932 12.8406 36.2527 10.1663 35.2078C7.53191 38.167 5.73596 39.3252 5.65808 39.3748L4.6756 40.0001Z" fill="#B81F21"/>
<path d="M22.6337 26.9215H17.3672V4.39453H22.6337V26.9215ZM18.626 25.7384H21.3748V5.57763H18.626V25.7384Z" fill="#B81F21"/>
<path d="M20.0004 33.1986C18.5485 33.1986 17.3672 32.0884 17.3672 30.7238C17.3672 29.3592 18.5485 28.249 20.0004 28.249C21.4524 28.249 22.6337 29.3592 22.6337 30.7238C22.6337 32.0884 21.4524 33.1986 20.0004 33.1986ZM20.0004 29.432C19.2426 29.432 18.626 30.0115 18.626 30.7238C18.626 31.436 19.2426 32.0155 20.0004 32.0155C20.7583 32.0155 21.3748 31.436 21.3748 30.7238C21.3748 30.0115 20.7583 29.432 20.0004 29.432Z" fill="#B81F21"/>
<path d="M30.4309 30.1933L29.6094 29.2968C32.8664 26.6606 34.7343 22.8336 34.7343 18.7969H35.9931C35.9932 23.1783 33.9658 27.3322 30.4309 30.1933Z" fill="#B81F21"/>
<path d="M5.26666 18.7967H4.00781C4.00781 13.2928 7.20485 8.23484 12.3513 5.59668L12.9541 6.63528C8.21235 9.06608 5.26666 13.7261 5.26666 18.7967Z" fill="#B81F21"/>
<path d="M5.30463 20.0879H3.96875V21.271H5.30463V20.0879Z" fill="#B81F21"/>
<path d="M5.30463 22.5986H3.96875V23.7817H5.30463V22.5986Z" fill="#B81F21"/>
<path d="M36.0312 16.3223H34.6953V17.5054H36.0312V16.3223Z" fill="#B81F21"/>
<path d="M36.0312 13.8115H34.6953V14.9946H36.0312V13.8115Z" fill="#B81F21"/>
</svg>
