<svg width="267" height="229" viewBox="0 0 267 229" fill="none" xmlns="http://www.w3.org/2000/svg">
<path fill-rule="evenodd" clip-rule="evenodd" d="M209.923 103.924C209.957 104.091 209.957 104.091 209.99 104.158V103.924H209.923Z" fill="#B22222"/>
<path fill-rule="evenodd" clip-rule="evenodd" d="M209.923 103.924C209.957 104.091 209.957 104.091 209.99 104.158V103.924H209.923Z" fill="#B22222"/>
<path d="M88.6531 140.179C84.9307 140.179 82.2206 138.479 81.241 137.76C79.0206 136.126 77.388 133.216 76.9635 130.143C76.5064 126.776 79.1839 121.905 79.4778 121.349C79.8043 120.793 80.49 120.597 81.0451 120.924C81.6002 121.251 81.7961 121.938 81.4696 122.493C80.7512 123.801 78.9227 127.659 79.2165 129.849C79.641 132.824 81.241 134.949 82.5798 135.929C83.7879 136.812 88.2286 139.525 93.9428 136.485C94.9877 135.929 96 135.439 96.9795 134.981C101.975 132.595 104.163 131.353 103.151 127.103C102.792 125.566 101.812 124.488 100.245 123.932C96.3265 122.526 89.6653 124.586 83.6899 129.097C83.1675 129.489 82.4491 129.391 82.09 128.868C81.6981 128.345 81.7961 127.626 82.3185 127.266C88.9796 122.232 96.3265 120.074 101.028 121.774C103.314 122.591 104.816 124.259 105.371 126.58C106.873 132.824 102.53 134.883 97.9591 137.074C97.0122 137.531 96.0326 137.989 95.0204 138.545C92.702 139.754 90.547 140.179 88.6531 140.179Z" fill="#B22222"/>
<path d="M95.0179 137.956C94.724 137.956 94.3975 137.825 94.1689 137.596C93.9404 137.334 91.8506 135.046 92.1445 132.594C92.2424 131.744 92.6669 130.567 94.1363 129.619C97.2056 127.625 102.071 126.971 104.226 127.723C105.108 128.05 105.467 128.573 105.597 128.966C105.793 129.554 105.467 130.208 104.879 130.437C104.357 130.6 103.801 130.404 103.54 129.946C102.593 129.489 98.2505 129.75 95.4097 131.581C94.822 131.94 94.5281 132.398 94.4628 132.888C94.3322 134.098 95.4424 135.569 95.8669 136.059C96.2913 136.517 96.2913 137.236 95.8016 137.694C95.573 137.857 95.3118 137.956 95.0179 137.956Z" fill="#B22222"/>
<path d="M96.3906 146.717C92.0805 146.717 88.6846 140.309 88.2928 139.557C87.9989 139.002 88.2275 138.315 88.7826 138.021C89.3377 137.727 90.0234 137.955 90.3172 138.511C91.1009 140.08 93.8764 144.428 96.358 144.428C96.3906 144.428 96.4559 144.428 96.4886 144.428C99.9498 144.199 113.109 137.661 114.154 135.667C114.056 134 113.337 130.731 111.28 129.619C109.778 128.802 107.688 129.227 105.076 130.796C104.521 131.123 103.835 130.96 103.509 130.404C103.182 129.848 103.346 129.162 103.901 128.835C107.264 126.808 110.137 126.383 112.39 127.592C115.427 129.227 116.374 133.444 116.472 135.7C116.635 139.492 99.5906 146.52 96.6518 146.717C96.5865 146.717 96.4886 146.717 96.3906 146.717Z" fill="#B22222"/>
<path d="M105.697 143.415C105.436 143.415 105.142 143.317 104.946 143.121C104.718 142.925 102.66 140.996 102.824 138.544C102.922 137.073 103.738 135.798 105.305 134.752C110.268 131.385 114.97 133.183 115.166 133.249C115.754 133.477 116.048 134.164 115.819 134.752C115.591 135.341 114.905 135.635 114.317 135.406C114.154 135.341 110.497 134 106.579 136.681C105.664 137.302 105.142 137.989 105.109 138.708C105.044 139.852 106.056 141.062 106.481 141.454C106.938 141.879 107.003 142.598 106.579 143.089C106.35 143.285 106.024 143.415 105.697 143.415Z" fill="#B22222"/>
<path d="M108.506 152.437C104.849 152.437 100.768 146.193 99.9839 144.918C99.6574 144.363 99.8206 143.676 100.343 143.349C100.866 143.022 101.584 143.186 101.91 143.709C103.576 146.389 106.71 150.116 108.474 150.116C111.347 150.116 120.457 145.866 121.535 143.643C122.057 142.565 122.449 140.374 121.371 138.772C120.392 137.334 118.302 136.647 115.396 136.876C114.743 136.942 114.22 136.451 114.155 135.798C114.122 135.176 114.58 134.621 115.233 134.555C120.033 134.228 122.253 135.961 123.298 137.465C124.833 139.72 124.539 142.761 123.624 144.624C122.057 147.926 112 152.437 108.506 152.437Z" fill="#B22222"/>
<path d="M115.884 150.085C115.655 150.085 115.459 150.019 115.263 149.888C115.035 149.758 113.108 148.417 112.782 146.26C112.651 145.41 112.749 144.135 113.892 142.729C115.982 140.179 119.541 139.297 121.435 138.839C121.827 138.741 122.316 138.61 122.447 138.545C122.969 138.185 123.655 138.349 124.014 138.872C124.373 139.395 124.178 140.147 123.655 140.473C123.296 140.702 122.806 140.833 121.957 141.029C120.194 141.454 117.255 142.206 115.623 144.168C115.133 144.756 114.937 145.312 115.035 145.867C115.198 147.012 116.472 147.894 116.504 147.927C117.027 148.287 117.19 149.006 116.831 149.529C116.602 149.921 116.243 150.085 115.884 150.085Z" fill="#B22222"/>
<path d="M117.45 156.296C114.152 156.296 111.409 151.588 111.115 151.032C110.822 150.477 111.018 149.79 111.573 149.463C112.128 149.136 112.813 149.365 113.14 149.921C113.924 151.294 116.046 154.138 117.548 154.007C120.421 153.778 125.874 151.49 126.397 149.529C126.625 148.646 126.397 147.665 125.777 146.848C125.025 145.867 123.883 145.312 122.642 145.312C122.021 145.312 121.499 144.821 121.499 144.167C121.499 143.546 121.989 143.023 122.642 142.99C124.601 142.925 126.397 143.873 127.605 145.41C128.683 146.783 129.074 148.515 128.65 150.084C127.703 153.68 120.585 156.034 117.777 156.263C117.613 156.296 117.548 156.296 117.45 156.296Z" fill="#B22222"/>
<path d="M121.271 155.446C120.879 155.446 120.487 155.249 120.291 154.857C120.193 154.694 119.377 153.092 120.193 151.163C121.042 149.169 123.328 147.665 126.952 146.684C127.573 146.521 128.193 146.881 128.356 147.502C128.52 148.123 128.16 148.744 127.54 148.907C123.948 149.855 122.707 151.13 122.316 152.013C121.924 152.928 122.283 153.68 122.316 153.713C122.61 154.269 122.381 154.955 121.826 155.249C121.63 155.38 121.434 155.446 121.271 155.446Z" fill="#B22222"/>
<path d="M131.002 156.883C127.28 156.883 125.027 154.497 124.243 152.862C123.982 152.274 124.21 151.587 124.798 151.326C125.386 151.064 126.039 151.293 126.333 151.849C126.529 152.274 128.488 155.87 133.745 154.039C136.03 153.255 137.337 152.078 137.728 150.476C138.316 148.155 137.239 143.513 128.912 134.588C128.488 134.13 128.488 133.411 128.977 132.954C129.435 132.529 130.153 132.529 130.61 133.019C137.957 140.897 141.026 146.782 139.949 151.032C139.361 153.418 137.532 155.151 134.496 156.23C133.19 156.687 132.047 156.883 131.002 156.883Z" fill="#B22222"/>
<path d="M147.524 158.224C140.634 158.224 137.793 151.85 137.76 151.751C137.499 151.163 137.793 150.477 138.348 150.248C138.936 149.986 139.589 150.248 139.85 150.836C139.981 151.13 143.116 157.995 151.148 155.249C153.891 154.301 155.523 152.503 155.85 150.084C156.405 145.802 152.846 138.414 141.156 130.535C140.634 130.175 140.503 129.456 140.862 128.933C141.222 128.41 141.94 128.279 142.462 128.639C153.14 135.831 158.985 143.971 158.136 150.411C157.711 153.713 155.491 156.23 151.899 157.472C150.299 157.963 148.862 158.224 147.524 158.224Z" fill="#B22222"/>
<path d="M160.194 148.972C158.692 148.972 157.353 148.515 156.537 148.057C155.982 147.73 155.786 147.043 156.113 146.488C156.406 145.932 157.125 145.736 157.68 146.03C157.843 146.128 161.304 147.959 164.112 144.788C165.386 143.382 166.202 140.375 165.255 136.844C164.243 133.052 160.259 125.991 145.174 121.054C144.586 120.858 144.227 120.204 144.423 119.616C144.619 118.995 145.272 118.668 145.86 118.864C161.174 123.866 166.039 131.09 167.443 136.223C168.684 140.865 167.345 144.526 165.778 146.292C164.047 148.318 161.99 148.972 160.194 148.972Z" fill="#B22222"/>
<path d="M135.248 158.78C134.726 158.78 134.268 158.42 134.138 157.897C133.779 156.459 133.321 155.969 133.321 155.969C132.897 155.511 132.864 154.824 133.289 154.367C133.713 153.909 134.399 153.876 134.856 154.269C135.019 154.399 135.836 155.184 136.391 157.342C136.554 157.963 136.162 158.584 135.574 158.747C135.444 158.78 135.346 158.78 135.248 158.78Z" fill="#B22222"/>
<path d="M152.519 160.186C151.997 160.186 151.507 159.826 151.409 159.27C151.05 157.636 150.626 157.015 150.626 156.982C150.266 156.459 150.397 155.74 150.919 155.38C151.442 155.021 152.128 155.119 152.487 155.609C152.585 155.772 153.205 156.622 153.629 158.747C153.76 159.368 153.368 159.99 152.748 160.12C152.683 160.186 152.585 160.186 152.519 160.186Z" fill="#B22222"/>
<path d="M166.071 149.496C165.614 149.496 165.189 149.234 164.994 148.776L163.851 146.03C163.622 145.442 163.883 144.755 164.471 144.527C165.059 144.298 165.745 144.559 165.973 145.148L167.116 147.894C167.345 148.482 167.083 149.169 166.496 149.398C166.365 149.463 166.202 149.496 166.071 149.496Z" fill="#B22222"/>
<path d="M166.069 136.844C165.579 136.844 165.155 136.55 164.992 136.059C164.796 135.471 165.122 134.817 165.71 134.588C166.298 134.392 179.848 129.619 180.73 113.699C180.763 113.077 181.318 112.554 181.938 112.62C182.559 112.652 183.048 113.208 183.016 113.829C182.069 131.352 166.592 136.746 166.428 136.778C166.298 136.844 166.2 136.844 166.069 136.844Z" fill="#B22222"/>
<path d="M93.0268 98.9557C90.0554 98.9557 86.9534 98.7595 84.2432 98.2364C79.8025 97.3211 78.1372 94.8693 77.4841 92.9732C76.6352 90.3906 77.3535 87.5138 78.4964 86.2389C80.129 84.4409 86.5942 83.9832 95.5737 83.5255C97.7614 83.4275 99.6226 83.3294 100.831 83.1986C102.104 83.0679 103.671 82.6756 105.696 82.1852C110.888 80.9103 119.573 78.818 134.757 78.3277C155.916 77.6412 170.609 91.6329 171.23 92.2213C171.687 92.6463 171.687 93.3982 171.262 93.8559C170.805 94.3135 170.087 94.3135 169.63 93.8886C169.499 93.7578 154.936 79.9622 134.822 80.6487C119.9 81.1064 111.671 83.1006 106.251 84.4409C104.161 84.9639 102.496 85.3562 101.092 85.487C99.8185 85.6178 97.9246 85.7158 95.7043 85.8139C91.035 86.0427 81.3371 86.5658 80.2269 87.7754C79.7045 88.3638 79.0841 90.3579 79.7045 92.254C80.3249 94.1828 82.0228 95.425 84.733 95.9808C92.2431 97.4846 103.737 95.9808 103.835 95.9808C104.455 95.8827 105.043 96.3404 105.141 96.9615C105.239 97.5826 104.782 98.1711 104.161 98.2691C103.802 98.3018 98.7083 98.9557 93.0268 98.9557Z" fill="#B22222"/>
<path d="M125.027 102.518C121.01 102.518 117.321 101.995 115.165 101.636C109.843 100.72 103.802 98.2684 103.541 98.1703C102.953 97.9415 102.66 97.255 102.888 96.6665C103.117 96.0781 103.802 95.7839 104.39 96.0127C104.455 96.0454 110.496 98.4645 115.557 99.3472C118.888 99.9356 130.186 101.537 136.553 97.8434C137.108 97.5165 137.794 97.7127 138.12 98.2684C138.447 98.8241 138.251 99.5107 137.696 99.8376C134.137 101.93 129.369 102.518 125.027 102.518Z" fill="#B22222"/>
<path d="M159.868 128.508C159.509 128.508 159.149 128.344 158.921 128.017C158.562 127.494 158.692 126.775 159.215 126.416C159.247 126.383 160.423 125.533 160.619 123.833C160.815 122.133 160.031 120.204 158.268 118.047C153.207 111.934 149.223 111.247 134.464 108.632L132.766 108.338C132.701 108.338 132.668 108.305 132.603 108.305C125.746 106.115 123.885 105.428 121.011 104.088C118.268 102.813 114.35 101.342 114.317 101.342C113.73 101.113 113.436 100.459 113.632 99.8706C113.86 99.2821 114.513 98.9879 115.101 99.1841C115.264 99.2494 119.117 100.688 121.958 101.995C124.701 103.27 126.497 103.957 133.191 106.082L134.791 106.376C149.843 109.024 154.382 109.809 159.966 116.576C162.186 119.256 163.133 121.806 162.839 124.193C162.48 126.873 160.553 128.246 160.455 128.312C160.325 128.442 160.096 128.508 159.868 128.508Z" fill="#B22222"/>
<path d="M87.6069 93.1373C81.4356 93.1373 78.7907 89.3778 78.2356 87.3183C78.0724 86.6972 78.4315 86.0761 79.0519 85.9126C79.6723 85.7492 80.2927 86.1088 80.456 86.7299C80.4886 86.8933 81.7621 91.1432 88.2273 90.8489C90.1538 90.7509 91.4926 90.1951 92.1783 89.2144C93.3211 87.5799 92.6354 85.1607 92.6354 85.1607C92.4395 84.5396 92.7987 83.9185 93.4191 83.7223C94.0395 83.5262 94.6599 83.8858 94.8558 84.4742C94.8884 84.605 95.9007 87.9721 94.1048 90.522C92.9619 92.1566 91.0354 93.0392 88.3579 93.1373C88.0967 93.1373 87.8681 93.1373 87.6069 93.1373Z" fill="#B22222"/>
<path d="M151.247 82.6431C150.691 82.6431 150.234 82.2508 150.104 81.695C149.973 81.0739 150.398 80.4528 151.018 80.3547L172.144 76.301C172.765 76.1703 173.385 76.5953 173.483 77.2164C173.581 77.8375 173.189 78.4586 172.569 78.5567L151.443 82.6104C151.41 82.6104 151.345 82.6431 151.247 82.6431Z" fill="#B22222"/>
<path d="M163.851 126.186C163.688 126.186 163.492 126.153 163.328 126.055C162.349 125.565 161.369 125.173 161.369 125.173C160.782 124.944 160.488 124.29 160.716 123.702C160.945 123.113 161.598 122.819 162.186 123.048C162.218 123.081 163.296 123.473 164.373 124.029C164.928 124.323 165.157 125.009 164.863 125.565C164.667 125.957 164.275 126.186 163.851 126.186Z" fill="#B22222"/>
<path d="M25.3048 171.529L22.5947 168.521L15.7703 174.667L13.0928 171.692L29.2558 157.112L31.9333 160.087L25.1742 166.2L27.9497 169.306L38.8883 167.867L41.7617 171.071L28.9619 172.607L25.7946 185.814L22.7579 182.415L25.3048 171.529Z" fill="#B22222"/>
<path d="M34.9713 192.19C34.155 190.326 33.8611 188.43 34.0896 186.436C34.3182 184.475 35.1019 182.644 36.408 180.944C37.7141 179.244 39.2814 178.067 41.11 177.348C42.9712 176.629 44.8977 176.4 46.8895 176.76C48.8813 177.086 50.7751 177.936 52.5057 179.277C54.2689 180.617 55.5424 182.252 56.3587 184.082C57.175 185.946 57.4689 187.842 57.2403 189.803C57.0118 191.765 56.2281 193.595 54.922 195.295C53.6159 196.995 52.0486 198.205 50.1874 198.924C48.3588 199.643 46.4323 199.839 44.4079 199.512C42.3834 199.186 40.5222 198.336 38.7916 196.995C37.061 195.622 35.7876 194.02 34.9713 192.19ZM44.6691 195.818C45.9752 196.015 47.2813 195.851 48.5221 195.328C49.7629 194.805 50.8404 193.988 51.722 192.811C52.6037 191.667 53.1588 190.424 53.3547 189.084C53.5506 187.744 53.3873 186.469 52.8649 185.226C52.3424 183.984 51.5261 182.938 50.3506 182.055C49.2078 181.173 47.967 180.617 46.6609 180.421C45.3548 180.225 44.0487 180.388 42.8079 180.911C41.5671 181.434 40.4896 182.252 39.6079 183.428C38.7263 184.573 38.1712 185.815 37.9753 187.155C37.7794 188.496 37.9427 189.771 38.4651 191.013C38.9875 192.255 39.8039 193.301 40.9793 194.184C42.1222 195.066 43.363 195.622 44.6691 195.818Z" fill="#B22222"/>
<path d="M77.8436 196.21C78.7905 197.386 79.3456 198.694 79.4762 200.067C79.6069 201.44 79.313 202.846 78.5946 204.252C77.8763 205.657 76.9293 206.703 75.7212 207.423C74.5131 208.142 73.1743 208.436 71.6396 208.338C70.105 208.24 68.505 207.782 66.8397 206.932L62.4642 204.709L59.5908 210.299L55.999 208.469L65.8928 189.05L73.86 193.137C75.5579 193.987 76.8967 195 77.8436 196.21ZM72.2927 204.611C73.4355 204.35 74.3498 203.63 74.9702 202.388C75.5906 201.146 75.6885 200.002 75.1988 198.923C74.7416 197.844 73.6967 196.896 72.1294 196.112L67.9172 193.954L63.9989 201.669L68.2111 203.827C69.7784 204.611 71.1498 204.873 72.2927 204.611Z" fill="#B22222"/>
<path d="M99.2954 215.825C99.7199 216.904 99.7525 218.081 99.328 219.388C98.7729 221.219 97.6627 222.429 95.9975 223.017C94.3322 223.605 92.2424 223.507 89.6628 222.723L79.8018 219.683L86.2017 198.858L95.5077 201.735C97.8587 202.454 99.5239 203.468 100.536 204.808C101.548 206.148 101.81 207.652 101.287 209.385C100.961 210.464 100.406 211.346 99.6219 211.967C98.8382 212.589 97.924 212.981 96.7811 213.079C98.0219 213.831 98.8382 214.746 99.2954 215.825ZM95.5403 217.885C96.1607 215.858 95.1158 214.419 92.373 213.569L86.4302 211.739L84.5364 217.852L90.4792 219.683C93.222 220.565 94.8873 219.944 95.5403 217.885ZM87.2792 208.927L92.4383 210.529C93.6791 210.921 94.724 210.954 95.5077 210.66C96.324 210.366 96.8791 209.744 97.1729 208.764C97.4668 207.783 97.3689 206.966 96.8791 206.247C96.3893 205.527 95.5077 205.004 94.2669 204.612L89.1078 203.01L87.2792 208.927Z" fill="#B22222"/>
<path d="M122.902 225.534L122.478 228.901L106.282 226.809L109.058 205.2L124.829 207.227L124.404 210.594L112.649 209.09L111.931 214.713L122.347 216.054L121.923 219.355L111.507 218.015L110.756 223.965L122.902 225.534Z" fill="#B22222"/>
<path d="M146.282 210.366L139.065 210.562L139.555 228.935L135.539 229.033L135.049 210.66L127.866 210.856L127.768 207.424L146.151 206.934L146.282 210.366Z" fill="#B22222"/>
<path d="M175.606 220.14L177.238 228.182L173.581 228.934L172.634 224.226L154.545 227.888L150.202 206.541L154.088 205.756L157.712 223.769L168.455 221.579L164.83 203.566L168.749 202.781L172.373 220.794L175.606 220.14Z" fill="#B22222"/>
<path d="M197.81 211.543L199.083 214.682L183.932 220.762L175.867 200.526L190.626 194.609L191.9 197.748L180.896 202.161L182.985 207.424L192.749 203.534L193.989 206.64L184.161 210.53L186.381 216.12L197.81 211.543Z" fill="#B22222"/>
<path d="M211.848 181.989L223.374 200.46L219.945 202.617L215.015 194.706L205.48 200.688L210.411 208.6L206.982 210.757L195.456 192.287L198.885 190.129L203.652 197.746L213.186 191.764L208.419 184.147L211.848 181.989Z" fill="#B22222"/>
<path d="M231.015 169.796L225.628 174.602L237.872 188.299L234.901 190.98L222.656 177.282L217.301 182.088L215.016 179.538L228.73 167.246L231.015 169.796Z" fill="#B22222"/>
<path d="M240.943 154.039C242.315 153.353 243.686 153.058 245.058 153.222C246.429 153.385 247.735 153.941 248.976 154.955C250.217 155.935 251.033 157.112 251.457 158.42C251.882 159.727 251.915 161.133 251.523 162.604C251.131 164.075 250.347 165.546 249.139 167.017L246.037 170.842L250.902 174.798L248.355 177.936L231.441 164.239L237.09 157.276C238.298 155.804 239.572 154.726 240.943 154.039ZM248.029 161.199C248.029 160.022 247.474 158.976 246.396 158.126C245.319 157.243 244.209 156.949 243.033 157.178C241.89 157.406 240.747 158.224 239.637 159.597L236.666 163.291L243.392 168.75L246.364 165.089C247.474 163.65 248.029 162.375 248.029 161.199Z" fill="#B22222"/>
<path d="M22.4003 80.2886C20.5717 81.1713 18.6779 81.5309 16.7187 81.3674C14.7596 81.204 12.8984 80.4848 11.1678 79.2425C9.43719 78.0003 8.16374 76.4638 7.38008 74.6658C6.59642 72.8351 6.30255 70.939 6.56377 68.9449C6.82499 66.9507 7.576 65.0547 8.84945 63.2567C9.89433 61.8183 11.1025 60.6741 12.4412 59.8241C13.8126 58.9742 15.2493 58.5165 16.8167 58.353L17.3065 61.9163C15.0208 62.2106 13.1922 63.2894 11.8535 65.1527C10.9719 66.3623 10.4821 67.6373 10.3188 68.9776C10.1555 70.3179 10.3515 71.5929 10.9066 72.8024C11.4617 74.012 12.3433 75.0581 13.5514 75.9081C14.7596 76.758 16.0004 77.2484 17.3391 77.4118C18.6779 77.5426 19.9513 77.3138 21.1595 76.758C22.3676 76.1696 23.4125 75.2869 24.2941 74.0774C25.6329 72.214 26.0573 70.1218 25.5676 67.8334L29.094 67.1469C29.4532 68.6507 29.4859 70.1871 29.1267 71.7563C28.7675 73.3255 28.0818 74.8293 27.0369 76.3004C25.7635 78.0657 24.1962 79.406 22.4003 80.2886Z" fill="#B22222"/>
<path d="M36.6681 62.3094C34.709 62.8651 32.7825 62.8651 30.856 62.3094C28.9295 61.7863 27.2642 60.7402 25.7948 59.2365C24.3255 57.7 23.3785 55.9674 22.9214 54.0386C22.4643 52.1098 22.5622 50.1484 23.1826 48.2196C23.803 46.2908 24.9132 44.5582 26.5132 43.0217C28.1131 41.4853 29.8764 40.4392 31.8355 39.9161C33.7947 39.3604 35.7212 39.3604 37.615 39.8834C39.5089 40.4065 41.2068 41.4526 42.7088 42.9891C44.2109 44.5255 45.1578 46.2581 45.5823 48.1869C46.0394 50.1157 45.9415 52.0444 45.3211 53.9732C44.7007 55.902 43.5905 57.6346 41.9905 59.1711C40.4232 60.7075 38.6273 61.7537 36.6681 62.3094ZM41.6966 53.1886C42.0884 51.9137 42.1211 50.606 41.7619 49.2984C41.4354 47.9908 40.7497 46.8139 39.7701 45.7678C38.7579 44.7217 37.615 44.0025 36.3416 43.6102C35.0681 43.2179 33.762 43.1852 32.4886 43.5448C31.1825 43.8717 30.0396 44.5582 28.9948 45.5389C27.9499 46.5197 27.2315 47.6965 26.8397 48.9715C26.4479 50.2464 26.4152 51.5541 26.7744 52.829C27.1009 54.1367 27.7866 55.3135 28.7662 56.3596C29.7784 57.4058 30.9213 58.125 32.1947 58.5173C33.5008 58.9095 34.7743 58.9422 36.0477 58.5826C37.3212 58.2557 38.4967 57.5692 39.5415 56.5558C40.6191 55.6078 41.3048 54.4636 41.6966 53.1886Z" fill="#B22222"/>
<path d="M66.2197 40.2432L59.0035 37.3337C58.8729 37.4645 58.6443 37.628 58.3178 37.8241L54.2036 40.5048L57.6648 45.8334L54.2689 48.0564L42.416 29.7494L49.9261 24.8458C51.4934 23.8324 53.0608 23.1786 54.5628 22.9497C56.0648 22.7209 57.4688 22.8843 58.7096 23.4401C59.9831 23.9958 61.028 24.9439 61.9096 26.2842C62.7912 27.6572 63.2484 29.0629 63.2157 30.5013C63.1831 31.9397 62.7259 33.2801 61.779 34.5877L69.8768 37.8568L66.2197 40.2432ZM55.575 26.5784C54.3995 26.4477 53.0934 26.8726 51.5914 27.8207L47.6404 30.4033L52.3751 37.6933L56.326 35.1108C57.7954 34.1627 58.7096 33.1166 59.0688 31.9724C59.428 30.8282 59.2321 29.6841 58.4484 28.5399C57.7301 27.363 56.7505 26.7092 55.575 26.5784Z" fill="#B22222"/>
<path d="M83.9504 7.91113L83.7219 31.6774L80.0648 33.2466L62.8242 16.9011L66.8731 15.2012L80.0974 27.8526L80.2607 9.51299L83.9504 7.91113Z" fill="#B22222"/>
<path d="M110.499 20.2682L111.282 23.57L95.4133 27.3622L90.3848 6.17845L105.829 2.48438L106.613 5.78616L95.0867 8.5322L96.3928 14.057L106.613 11.6378L107.397 14.8742L97.1765 17.2934L98.5806 23.145L110.499 20.2682Z" fill="#B22222"/>
<path d="M119.442 4.28251L112.258 4.83826L111.997 1.4384L130.413 0L130.674 3.39986L123.491 3.9556L124.927 22.2625L120.911 22.5894L119.442 4.28251Z" fill="#B22222"/>
<path d="M139.787 20.9873C138.089 19.8759 136.816 18.4375 135.934 16.6721C135.052 14.9068 134.726 12.9454 134.889 10.8205C135.052 8.69555 135.705 6.83217 136.848 5.19762C137.991 3.59577 139.493 2.35351 141.322 1.53624C143.15 0.718967 145.175 0.392057 147.362 0.555512C149.126 0.686276 150.726 1.14395 152.162 1.86315C153.566 2.58235 154.742 3.59577 155.656 4.83802L152.848 7.0937C151.411 5.26301 149.55 4.28228 147.264 4.08613C145.762 3.95537 144.424 4.18421 143.183 4.73995C141.942 5.2957 140.963 6.14566 140.211 7.22446C139.46 8.33595 139.036 9.6109 138.905 11.082C138.775 12.5531 139.003 13.8934 139.591 15.103C140.212 16.3452 141.06 17.326 142.171 18.0779C143.281 18.8297 144.62 19.2547 146.089 19.3855C148.375 19.5489 150.366 18.8624 152.097 17.2606L154.513 19.9412C153.403 21.0527 152.097 21.8373 150.562 22.3604C149.028 22.8507 147.395 23.0142 145.599 22.8834C143.411 22.72 141.485 22.0661 139.787 20.9873Z" fill="#B22222"/>
<path d="M175.378 24.9425L174.562 28.2443L158.726 24.2233L164.081 3.10498L179.493 6.9952L178.676 10.297L167.183 7.38749L165.779 12.8796L175.966 15.4622L175.15 18.6986L164.962 16.116L163.493 21.935L175.378 24.9425Z" fill="#B22222"/>
<path d="M206.04 18.0781L197.027 37.9215L193.991 36.5485L189.191 18.1435L183.085 31.5795L179.428 29.9122L188.44 10.0688L191.477 11.4419L196.276 29.8469L202.382 16.4109L206.04 18.0781Z" fill="#B22222"/>
<path d="M216.52 28.6693L210.544 24.6156L212.471 21.8042L227.72 32.2326L225.793 35.0767L219.818 31.023L209.5 46.1916L206.169 43.9033L216.52 28.6693Z" fill="#B22222"/>
<path d="M228.698 62.4071L229.874 54.7247C229.71 54.6266 229.514 54.4305 229.253 54.1689L225.694 50.7691L221.319 55.3785L218.38 52.5998L233.367 36.8101L239.865 42.9886C241.237 44.2963 242.216 45.6366 242.804 47.075C243.392 48.4807 243.555 49.8864 243.294 51.2268C243.033 52.5671 242.347 53.842 241.269 54.9862C240.127 56.1631 238.886 56.915 237.482 57.2419C236.078 57.5361 234.641 57.4054 233.172 56.7842L231.833 65.4146L228.698 62.4071ZM239.473 48.873C239.31 47.6961 238.625 46.5193 237.351 45.3097L233.923 42.0406L227.947 48.35L231.376 51.6191C232.649 52.8286 233.89 53.4824 235.065 53.5478C236.241 53.6132 237.318 53.1555 238.265 52.1421C239.212 51.1614 239.637 50.0499 239.473 48.873Z" fill="#B22222"/>
<path d="M247.376 80.1909L244.666 82.2177L234.87 69.1413L252.274 56.0649L261.808 68.7817L259.098 70.8086L252.013 61.3282L247.474 64.728L253.776 73.1623L251.131 75.1891L244.829 66.7549L240.029 70.3509L247.376 80.1909Z" fill="#B22222"/>
<path d="M223.475 135.897C222.136 135.897 222.136 135.897 221.875 126.449C221.712 121.447 221.581 114.778 221.45 108.077C221.385 104.808 221.32 101.31 221.222 97.9753C221.026 100.46 220.863 102.977 220.667 105.363C219.001 128.345 219.001 128.345 217.663 128.345C216.389 128.345 215.899 126.907 214.92 123.638L214.659 122.82C214.561 122.461 214.397 122.297 214.201 122.297C214.136 122.297 214.103 122.297 214.071 122.297C214.071 122.297 209.467 122.265 208.716 122.265C208.618 122.265 208.52 122.265 208.389 122.265C207.606 122.297 206.202 122.395 205.091 120.826C204.34 119.747 202.545 118.015 200.912 118.015C199.54 118.015 197.712 119.421 196.373 120.434C196.014 120.728 195.655 120.99 195.328 121.219C193.598 122.461 191.606 122.265 191.083 122.199H180.961C180.341 122.199 179.818 121.676 179.818 121.055C179.818 120.434 180.341 119.911 180.961 119.911H191.149C191.214 119.911 191.279 119.911 191.377 119.944C191.377 119.944 192.814 120.172 193.99 119.355C194.283 119.159 194.61 118.897 194.969 118.636C196.667 117.361 198.757 115.726 200.912 115.726C203.622 115.726 205.973 118.113 206.953 119.551C207.279 120.042 207.508 120.042 208.193 120.009C208.357 120.009 208.487 119.976 208.651 119.976C209.336 119.976 213.352 120.009 213.94 120.009C214.757 119.944 216.226 120.271 216.814 122.134L217.01 122.755C217.369 118.473 217.891 111.575 218.348 105.233C220.21 79.5703 220.21 79.5703 221.614 79.5703C223.083 79.5703 223.083 79.5703 223.703 108.077C223.867 115.498 224.03 123.54 224.226 128.803C224.422 128.051 224.618 127.332 224.781 126.678C225.532 123.801 225.826 122.657 226.054 122.265C226.511 121.349 227.034 120.303 228.667 120.107C229.026 120.074 229.646 120.074 230.789 120.107C232.748 120.14 236.83 120.238 237.94 119.715C238.462 119.486 239.475 118.407 240.389 117.459C242.348 115.4 244.34 113.275 246.462 113.275C249.042 113.275 251.164 115.759 252.568 117.394C252.895 117.786 253.189 118.113 253.384 118.309C253.58 118.505 253.776 118.701 253.972 118.865C254.658 119.551 255.017 119.911 256.127 119.976C257.956 120.074 265.792 119.976 265.89 119.976C266.511 119.976 267.033 120.467 267.033 121.12C267.033 121.742 266.543 122.265 265.89 122.297C265.564 122.297 257.891 122.395 255.997 122.297C254.005 122.199 253.123 121.317 252.34 120.499C252.176 120.336 252.013 120.172 251.85 120.009C251.556 119.747 251.229 119.355 250.838 118.897C249.76 117.655 247.997 115.563 246.462 115.563C245.352 115.563 243.36 117.655 242.054 119.028C240.846 120.303 239.834 121.382 238.887 121.807C237.417 122.461 234.185 122.461 230.756 122.395C229.973 122.363 229.156 122.363 228.928 122.395C228.601 122.428 228.569 122.428 228.144 123.278C228.013 123.605 227.491 125.534 227.067 127.266C224.944 135.243 224.683 135.897 223.475 135.897Z" fill="#B22222"/>
<path d="M48.9789 136.157C47.6401 136.157 47.6401 136.157 47.3789 126.71C47.2156 121.708 47.085 115.039 46.9544 108.337C46.8891 105.068 46.8238 101.57 46.7258 98.2033C46.5299 100.688 46.3666 103.205 46.1707 105.591C44.5054 128.573 44.5054 128.573 43.1667 128.573C41.8932 128.573 41.4035 127.135 40.4239 123.866L40.1627 123.016C40.0647 122.656 39.9014 122.493 39.7055 122.493C39.6402 122.493 39.6076 122.493 39.5749 122.493C39.5749 122.493 34.9709 122.46 34.2199 122.46C34.1219 122.46 34.024 122.46 33.8934 122.46C33.1097 122.493 31.7056 122.591 30.5955 121.022C29.8771 119.975 28.0812 118.243 26.4486 118.243C25.0772 118.243 23.2486 119.649 21.9099 120.662C21.5507 120.956 21.1915 121.218 20.865 121.447C19.1344 122.689 17.1426 122.493 16.6202 122.427L1.14284 122.395C0.522441 122.395 0 121.872 0 121.218C0 120.597 0.522441 120.074 1.14284 120.074L16.7181 120.106C16.7834 120.106 16.8487 120.106 16.914 120.139C16.914 120.139 18.3507 120.368 19.5262 119.55C19.8201 119.354 20.1466 119.093 20.5058 118.831C22.2037 117.556 24.2935 115.922 26.4486 115.922C29.1587 115.922 31.5097 118.308 32.4893 119.747C32.8158 120.237 33.0444 120.237 33.7301 120.204C33.8934 120.204 34.024 120.172 34.1872 120.172C34.8729 120.172 38.8892 120.204 39.477 120.204C40.2606 120.106 41.7626 120.466 42.3504 122.329L42.5463 122.918C42.9055 118.635 43.4279 111.737 43.885 105.395C45.7462 79.7329 45.7462 79.7329 47.1503 79.7329C48.6197 79.7329 48.6197 79.7329 49.2401 108.272C49.4033 115.693 49.5666 123.735 49.7625 128.965C49.9584 128.214 50.1543 127.494 50.3176 126.841C51.0686 123.964 51.3625 122.82 51.5911 122.395C52.0482 121.479 52.5706 120.433 54.2033 120.237C54.5624 120.204 55.1828 120.204 56.3257 120.237C58.2848 120.27 62.3664 120.368 63.4766 119.845C63.999 119.616 65.0113 118.537 65.9255 117.589C67.8847 115.529 69.8765 113.405 71.9989 113.405C73.9254 113.405 77.2886 116.249 84.4722 123.866C85.1579 124.585 85.615 125.108 85.8109 125.271C86.2681 125.696 86.3007 126.416 85.8762 126.906C85.4518 127.364 84.7334 127.396 84.2436 126.971C84.0477 126.775 83.4926 126.219 82.7743 125.435C75.2968 117.491 72.7499 115.758 71.9663 115.693C70.8561 115.693 68.8643 117.785 67.5582 119.158C66.35 120.433 65.3378 121.512 64.3909 121.937C62.9215 122.591 59.6889 122.591 56.2277 122.525C55.4441 122.525 54.6277 122.493 54.3992 122.525C54.0727 122.558 54.04 122.558 53.6155 123.408C53.4849 123.735 52.9625 125.664 52.538 127.396C50.4482 135.504 50.187 136.157 48.9789 136.157Z" fill="#B22222"/>
</svg>
