<svg width="44" height="44" viewBox="0 0 44 44" fill="none" xmlns="http://www.w3.org/2000/svg">
<mask id="mask0" mask-type="alpha" maskUnits="userSpaceOnUse" x="0" y="0" width="44" height="44">
<rect width="44" height="44" fill="#C4C4C4"/>
</mask>
<g mask="url(#mask0)">
<path d="M39.2857 9.09052C39.6802 9.09052 40 8.77582 40 8.38764V3.46283C40 1.55345 38.3907 0 36.4125 0H7.5619C5.56457 0 4 1.52102 4 3.46283V34.8673C4 36.8284 5.59781 38.4238 7.5619 38.4238H14.5714V43.2971C14.5714 43.5407 14.6996 43.7669 14.9102 43.895C15.1208 44.0231 15.3838 44.0347 15.6051 43.9257L19.0952 42.2086L22.5853 43.9257C22.6862 43.9753 22.7956 44 22.9048 44C23.0354 44 23.1656 43.9647 23.2803 43.895C23.4909 43.7669 23.619 43.5407 23.619 43.2971V38.4226L36.4124 38.4004C38.3907 38.4004 40 36.8155 40 34.8673V29.9425C40 29.5543 39.6802 29.2396 39.2857 29.2396H34.2857V9.09052H39.2857ZM38.5714 3.46283V7.68477H34.2857V3.50969C34.2857 2.35416 35.2403 1.41062 36.4138 1.40575C37.6037 1.4065 38.5714 2.32905 38.5714 3.46283ZM22.5684 31.8996C22.4684 31.9523 22.3829 32.0278 22.3184 32.1189C21.4221 32.8522 20.2956 33.2554 19.1286 33.2554C17.8892 33.2554 16.6993 32.8039 15.7785 31.9846C14.73 31.0505 14.1286 29.7203 14.1286 28.3352C14.1286 25.6222 16.3715 23.4151 19.1286 23.4151C21.8856 23.4151 24.1286 25.6222 24.1286 28.3352C24.1286 29.683 23.5615 30.971 22.5684 31.8996ZM22.1905 42.1598L19.4147 40.7941C19.2136 40.6951 18.9769 40.6951 18.7758 40.7941L16 42.1598V33.8597C16.9496 34.3818 18.0236 34.6611 19.1286 34.6611C20.2061 34.6611 21.257 34.3946 22.1905 33.8956V42.1598ZM23.619 32.8572C24.8545 31.6689 25.5571 30.0389 25.5571 28.3352C25.5571 24.8471 22.6733 22.0094 19.1286 22.0094C15.5838 22.0094 12.7 24.8471 12.7 28.3352C12.7 30.0039 13.3781 31.61 14.5714 32.7932V37.0181H7.5619C6.38552 37.0181 5.42857 36.0533 5.42857 34.8673V3.46283C5.42857 2.30927 6.36562 1.40575 7.5619 1.40575H33.5722C33.1236 1.99279 32.8571 2.72163 32.8571 3.50969V34.8673C32.8571 35.6672 33.1282 36.4061 33.5834 36.9995L23.619 37.0169V32.8572ZM38.5714 30.6453V34.8673C38.5714 36.0198 37.5839 36.9935 36.4131 36.9946C35.2399 36.9894 34.2857 36.0355 34.2857 34.8673V30.6453H38.5714Z" fill="#B81F21"/>
<path d="M19.1281 24.8208C17.1587 24.8208 15.5566 26.3973 15.5566 28.3352C15.5566 30.273 17.1587 31.8495 19.1281 31.8495C21.0974 31.8495 22.6995 30.273 22.6995 28.3352C22.6995 26.3973 21.0974 24.8208 19.1281 24.8208ZM19.1281 30.4438C17.9465 30.4438 16.9852 29.4979 16.9852 28.3352C16.9852 27.1724 17.9465 26.2266 19.1281 26.2266C20.3097 26.2266 21.2709 27.1724 21.2709 28.3352C21.2709 29.4979 20.3097 30.4438 19.1281 30.4438Z" fill="#B81F21"/>
<path d="M28.6672 14.2451H9.61956C9.22508 14.2451 8.90527 14.5598 8.90527 14.948C8.90527 15.3362 9.22508 15.6509 9.61956 15.6509H28.6672C29.0617 15.6509 29.3815 15.3362 29.3815 14.948C29.3815 14.5598 29.0617 14.2451 28.6672 14.2451Z" fill="#B81F21"/>
<path d="M25.8093 17.0566H12.476C12.0815 17.0566 11.7617 17.3713 11.7617 17.7595C11.7617 18.1477 12.0815 18.4624 12.476 18.4624H25.8093C26.2038 18.4624 26.5236 18.1477 26.5236 17.7595C26.5236 17.3713 26.2038 17.0566 25.8093 17.0566Z" fill="#B81F21"/>
<path d="M28.6671 11.4336H25.81C25.4155 11.4336 25.0957 11.7483 25.0957 12.1365C25.0957 12.5246 25.4155 12.8393 25.81 12.8393H28.6671C29.0616 12.8393 29.3814 12.5246 29.3814 12.1365C29.3814 11.7483 29.0616 11.4336 28.6671 11.4336Z" fill="#B81F21"/>
<path d="M9.61956 12.8393H22.9529C23.3474 12.8393 23.6672 12.5246 23.6672 12.1365C23.6672 11.7483 23.3474 11.4336 22.9529 11.4336H9.61956C9.22508 11.4336 8.90527 11.7483 8.90527 12.1365C8.90527 12.5246 9.22508 12.8393 9.61956 12.8393Z" fill="#B81F21"/>
<path d="M12.0238 8.95843C12.1541 9.05824 12.3086 9.1066 12.4619 9.1066C12.6747 9.1066 12.8853 9.01335 13.0261 8.83529L14.6851 6.73697L16.3433 8.8351C16.4786 9.00632 16.6866 9.1065 16.907 9.1065C17.1275 9.1065 17.3356 9.00641 17.4708 8.83519L19.1298 6.73688L20.788 8.83501C20.9233 9.00623 21.1314 9.10641 21.3518 9.10641C21.5721 9.10641 21.7803 9.00623 21.9156 8.83501L23.5737 6.73697L25.2318 8.83501C25.4739 9.14146 25.9226 9.19675 26.2341 8.95834C26.5455 8.72002 26.6016 8.27842 26.3594 7.97206L24.1375 5.16056C24.0021 4.98934 23.7941 4.88916 23.5737 4.88916C23.3533 4.88916 23.1451 4.98934 23.0099 5.16056L21.3518 7.2586L19.6937 5.16056C19.5583 4.98934 19.3503 4.88916 19.13 4.88916C18.9095 4.88916 18.7014 4.98925 18.5661 5.16047L16.9072 7.25879L15.249 5.16075C15.1137 4.98953 14.9057 4.88935 14.6853 4.88935C14.4648 4.88935 14.2567 4.98944 14.1215 5.16066L11.8986 7.97216C11.6563 8.27852 11.7124 8.72011 12.0238 8.95843Z" fill="#B81F21"/>
</g>
</svg>
