<svg width="44" height="44" viewBox="0 0 44 44" fill="none" xmlns="http://www.w3.org/2000/svg">
<mask id="mask0" mask-type="alpha" maskUnits="userSpaceOnUse" x="0" y="0" width="44" height="44">
<rect width="44" height="44" fill="#C4C4C4"/>
</mask>
<g mask="url(#mask0)">
<path d="M42.629 9.70848L22.2854 0.0640664C22.105 -0.0213554 21.895 -0.0213554 21.7147 0.0640664L1.37096 9.70848C1.14413 9.81599 1 10.0416 1 10.2889V33.7111C1 33.9584 1.14413 34.184 1.37096 34.2915L21.7146 43.9359C21.8048 43.9786 21.9024 44 22 44C22.0976 44 22.1952 43.9786 22.2854 43.9359L42.629 34.2915C42.8559 34.184 43 33.9584 43 33.7111V10.289C43 10.0415 42.8558 9.81607 42.629 9.70848ZM22 1.36026L40.834 10.2889L35.3744 12.8772C35.3398 12.8513 35.3033 12.8274 35.2633 12.8084L16.5572 3.94053L22 1.36026ZM15.0749 4.66928L33.8815 13.5849L30.0297 15.411L11.2309 6.49897L15.0749 4.66928ZM34.3216 14.8077V21.5577L30.7237 23.2634V16.5133L34.3216 14.8077ZM41.6873 33.3066L22.6563 42.3285V20.3378L27.1958 18.1858C27.5222 18.031 27.6591 17.6457 27.5015 17.3251C27.3439 17.0047 26.9516 16.8701 26.6251 17.0249L22 19.2176L20.1801 18.3548C19.8536 18.1999 19.4613 18.3344 19.3037 18.655C19.1461 18.9755 19.2829 19.3609 19.6094 19.5157L21.3437 20.3378V42.3285L2.31268 33.3065V11.3158L16.8046 18.186C16.8966 18.2297 16.9938 18.2503 17.0895 18.2503C17.3334 18.2503 17.5678 18.1161 17.681 17.8859C17.8386 17.5653 17.7017 17.18 17.3753 17.0252L3.166 10.2889L9.68606 7.1979L29.4019 16.5447C29.4048 16.5487 29.408 16.5522 29.411 16.5561V24.2903C29.411 24.5121 29.5271 24.7183 29.7184 24.8363C29.8247 24.9018 29.9459 24.9349 30.0674 24.9349C30.1648 24.9349 30.2623 24.9136 30.3527 24.8708L35.2633 22.5428C35.4901 22.4353 35.6342 22.2098 35.6342 21.9624V14.1855L41.6873 11.3159V33.3066Z" fill="#B81F21"/>
<path d="M7.72811 20.4958L4.74265 19.0804C4.41605 18.9255 4.02383 19.0601 3.86622 19.3806C3.70861 19.7012 3.84548 20.0865 4.1719 20.2413L7.15736 21.6566C7.24933 21.7002 7.34656 21.7209 7.44221 21.7209C7.68619 21.7209 7.92055 21.5866 8.0337 21.3564C8.19139 21.0358 8.05453 20.6506 7.72811 20.4958Z" fill="#B81F21"/>
<path d="M10.4754 18.7392L4.7465 16.0232C4.41999 15.8685 4.02768 16.0029 3.87007 16.3235C3.71255 16.6441 3.84942 17.0294 4.17583 17.1842L9.90479 19.9001C9.99676 19.9437 10.094 19.9644 10.1896 19.9644C10.4336 19.9644 10.668 19.8302 10.7811 19.6C10.9387 19.2792 10.8019 18.8939 10.4754 18.7392Z" fill="#B81F21"/>
</g>
</svg>
