<svg width="44" height="44" viewBox="0 0 44 44" fill="none" xmlns="http://www.w3.org/2000/svg">
<mask id="mask0" mask-type="alpha" maskUnits="userSpaceOnUse" x="0" y="0" width="44" height="44">
<rect width="44" height="44" fill="#C4C4C4"/>
</mask>
<g mask="url(#mask0)">
<path d="M41.1613 7.67019V0H15.6129V7.67019L12.7742 14.767V29.8064H9.93548C6.65394 29.8064 3.9451 32.2953 3.59026 35.4839H3.10981L0 41.7035V44H26.2581H26.9677H44V14.767L41.1613 7.67019ZM25.5484 42.5806H13.4839H1.41935V42.0385L3.98697 36.9032H6.3871V35.4839H5.02452C5.37084 33.0802 7.43813 31.2258 9.93548 31.2258H15.6129H17.0323C19.5296 31.2258 21.5969 33.0802 21.9432 35.4839H7.80645V36.9032H13.4839H22.9808L25.5484 42.0385V42.5806ZM36.9032 42.5806H26.9677V41.7035L23.8579 35.4839H23.3775C23.1866 33.7686 22.3144 32.2577 21.0377 31.2258H30.5161V29.8064H17.0323V17.7419H34.0645V29.8064H31.9355V31.2258H35.4839V16.3226H15.6129V29.8064H14.1935V15.0395L17.0323 7.94271V1.41935H39.7419V7.66948L36.9032 14.767V42.5806ZM38.7051 42.5806L40.4516 38.6505L42.1981 42.5806H38.7051ZM42.5806 39.9463L41.1613 36.7528V34.7742H39.7419V36.7528L38.3226 39.9463V15.0395L39.7419 11.4911V33.3548H41.1613V11.4911L42.5806 15.0395V39.9463Z" fill="#B81F21"/>
<path d="M32.0223 23.7745C32.4212 23.2777 32.6454 22.6554 32.6454 22.0003C32.6454 20.4348 31.3723 19.1616 29.8067 19.1616C28.4867 19.1616 27.3739 20.0679 27.0574 21.2907H24.0392C23.7234 20.0679 22.6106 19.1616 21.2899 19.1616C19.7243 19.1616 18.4512 20.4348 18.4512 22.0003C18.4512 22.6554 18.6754 23.2777 19.0743 23.7745C18.6761 24.2713 18.4519 24.8937 18.4519 25.5487C18.4519 27.1143 19.725 28.3874 21.2906 28.3874C22.6106 28.3874 23.7234 27.4812 24.0399 26.2584H27.0581C27.3739 27.4812 28.4867 28.3874 29.8074 28.3874C31.373 28.3874 32.6461 27.1143 32.6461 25.5487C32.6454 24.8937 32.4212 24.2713 32.0223 23.7745ZM30.5888 24.3657C30.9883 24.6304 31.2261 25.0725 31.2261 25.5487C31.2261 26.3315 30.5895 26.9681 29.8067 26.9681C29.0239 26.9681 28.3874 26.3315 28.3874 25.5487V24.839H22.7099V25.5487C22.7099 26.3315 22.0734 26.9681 21.2906 26.9681C20.5078 26.9681 19.8712 26.3315 19.8712 25.5487C19.8712 25.0725 20.109 24.6304 20.5085 24.3657L21.4006 23.7745L20.5085 23.1834C20.109 22.9187 19.8712 22.4765 19.8712 22.0003C19.8712 21.2176 20.5078 20.581 21.2906 20.581C22.0734 20.581 22.7099 21.2176 22.7099 22.0003V22.71H28.3874V22.0003C28.3874 21.2176 29.0239 20.581 29.8067 20.581C30.5895 20.581 31.2261 21.2176 31.2261 22.0003C31.2261 22.4765 30.9883 22.9187 30.5888 23.1834L29.6967 23.7745L30.5888 24.3657Z" fill="#B81F21"/>
<path d="M16.3239 39.742C16.3239 38.1765 15.0507 36.9033 13.4852 36.9033C11.9196 36.9033 10.6465 38.1765 10.6465 39.742C10.6465 41.3076 11.9196 42.5807 13.4852 42.5807C15.0507 42.5807 16.3239 41.3076 16.3239 39.742ZM13.4852 41.1614C12.7024 41.1614 12.0658 40.5248 12.0658 39.742C12.0658 38.9593 12.7024 38.3227 13.4852 38.3227C14.268 38.3227 14.9045 38.9593 14.9045 39.742C14.9045 40.5248 14.268 41.1614 13.4852 41.1614Z" fill="#B81F21"/>
</g>
</svg>
