<svg width="44" height="44" viewBox="0 0 44 44" fill="none" xmlns="http://www.w3.org/2000/svg">
<mask id="mask0" mask-type="alpha" maskUnits="userSpaceOnUse" x="0" y="0" width="44" height="44">
<rect width="44" height="44" fill="#C4C4C4"/>
</mask>
<g mask="url(#mask0)">
<path d="M27.0741 32.3833H24.6621C24.3062 32.3833 24.0176 32.7131 24.0176 33.12C24.0176 33.5269 24.3062 33.8566 24.6621 33.8566H27.0741C27.4301 33.8566 27.7186 33.5269 27.7186 33.12C27.7186 32.7131 27.4301 32.3833 27.0741 32.3833Z" fill="#B81F21"/>
<path d="M41.2712 24.495L37.7614 22.9474L35.9719 20.9017C35.857 20.7703 35.709 20.6992 35.5577 20.6881V19.0603C36.4011 18.0323 37.0015 16.7305 37.2437 15.264C37.3941 15.2717 37.546 15.2579 37.6958 15.2229C38.5533 15.0222 39.1758 14.1126 39.1758 13.0602V12.5229C39.1758 11.9141 38.9598 11.3553 38.6082 10.9558C39.1773 7.41708 38.7086 4.53329 37.2464 2.60313C35.8321 0.736235 33.5536 -0.156097 30.6574 0.0229977C27.9816 0.188339 26.2543 1.59575 25.707 2.11064C25.4074 2.15131 24.8971 2.27156 24.3807 2.62582C23.6648 3.11684 22.8115 4.14828 22.8115 6.27355C22.8115 8.12757 23.0707 9.67547 23.2584 10.5537C22.6293 10.904 22.2085 11.6632 22.2085 12.5312V13.0601C22.2085 14.1125 22.8309 15.0221 23.6885 15.2228C23.8383 15.2579 23.9902 15.2716 24.1405 15.2639C24.3828 16.7304 24.9832 18.0322 25.8266 19.0602V20.688C25.6753 20.6991 25.5272 20.7702 25.4123 20.9016L23.6229 22.9473L20.1131 24.4949C19.8094 24.6287 19.5194 24.8023 19.2511 25.0107C18.9567 25.2394 18.8802 25.6976 19.0802 26.0341C19.2049 26.244 19.4076 26.357 19.6139 26.357C19.7385 26.357 19.8645 26.3156 19.9755 26.2295C20.1626 26.0842 20.365 25.9632 20.577 25.8697L23.8343 24.4334L26.3247 28.7041C26.6334 29.2335 27.1283 29.5731 27.6821 29.6358C27.7437 29.6428 27.8054 29.6462 27.8665 29.6462C28.1872 29.6462 28.4983 29.5498 28.7736 29.3717L28.2392 43.2305C28.2234 43.637 28.4991 43.9812 28.8547 43.9991C28.8644 43.9996 28.874 43.9998 28.8836 43.9998C29.2265 43.9998 29.5118 43.6908 29.527 43.2954L30.0231 30.4315H31.3611L31.8572 43.2954C31.8724 43.6909 32.1577 43.9998 32.5006 43.9998C32.5102 43.9998 32.5198 43.9996 32.5294 43.9991C32.8851 43.9812 33.1607 43.637 33.145 43.2305L32.6106 29.3717C32.8859 29.5498 33.1969 29.6462 33.5176 29.6462C33.5788 29.6462 33.6405 29.6428 33.7021 29.6358C34.2559 29.5731 34.7507 29.2335 35.0595 28.7041L37.5499 24.4334L40.8072 25.8697C41.2641 26.0711 41.6573 26.3924 41.9665 26.7934L39.7381 29.3409C38.9329 30.2613 38.4896 31.485 38.4896 32.7865V43.263C38.4896 43.67 38.7782 43.9999 39.1341 43.9999C39.4901 43.9999 39.7786 43.67 39.7786 43.263V32.7865C39.7786 31.8787 40.0879 31.0249 40.6495 30.3829L42.6053 28.1471C42.6839 28.4765 42.7206 28.8228 42.7082 29.1769L42.209 43.2332C42.1945 43.6398 42.4712 43.9828 42.8268 43.9994C42.8357 43.9998 42.8446 43.9999 42.8534 43.9999C43.1973 43.9999 43.4829 43.6894 43.4969 43.2931L43.9963 29.2364C44.0694 27.1513 42.9743 25.2459 41.2712 24.495ZM25.4023 14.9601C25.2886 14.2527 24.7156 13.7385 24.0971 13.7908C24.0482 13.7949 23.9978 13.7909 23.9471 13.7791C23.6908 13.7192 23.4976 13.41 23.4976 13.0602V12.5311C23.4976 12.1893 23.6974 11.8814 23.9523 11.8302C24.1675 11.787 24.3736 11.8773 24.504 12.0717C24.6223 12.248 24.7802 12.3742 24.9604 12.4363C25.2244 12.5274 25.5155 12.4739 25.7392 12.2933C26.1423 11.968 26.4979 11.5707 26.7962 11.1121C27.0086 10.7855 26.9492 10.324 26.6636 10.0812C26.3778 9.83836 25.9742 9.90624 25.7618 10.2328C25.613 10.4615 25.4449 10.6691 25.2599 10.8528C25.0555 10.653 24.8168 10.5086 24.561 10.4261C24.3953 9.70092 24.1006 8.14722 24.1006 6.27335C24.1006 5.14484 24.4049 4.35193 25.005 3.91672C25.4733 3.5771 25.9689 3.56354 25.9685 3.56344C26.1333 3.56344 26.2936 3.48927 26.4133 3.35989C26.429 3.34299 28.0134 1.66207 30.7268 1.49437C33.2106 1.34111 35.128 2.05788 36.2718 3.56767C37.4246 5.08944 37.8084 7.42573 37.392 10.3499C37.2193 10.3429 37.0304 10.3579 36.8422 10.3937L36.2367 8.73127C36.1131 8.39214 35.7895 8.20901 35.4786 8.30166C35.4187 8.31954 29.4665 10.0445 26.9708 6.49243C26.748 6.17521 26.3424 6.12451 26.0647 6.37935C25.7872 6.63419 25.7429 7.0979 25.9659 7.41522C28.5144 11.0425 33.5714 10.2534 35.2547 9.86862L35.723 11.1541C35.9243 11.7067 36.4394 12.0085 36.9472 11.8717C37.1556 11.8156 37.3547 11.8143 37.4295 11.8312C37.6901 11.8905 37.8866 12.1877 37.8866 12.5227V13.0601C37.8866 13.41 37.6934 13.7191 37.4371 13.779C37.3865 13.7909 37.3359 13.7949 37.2871 13.7907C36.6687 13.7393 36.0957 14.2525 35.9819 14.9601C35.513 17.8783 33.2884 19.9964 30.6921 19.9964C28.0958 19.9964 25.8712 17.8783 25.4023 14.9601ZM28.2615 27.9846C28.0981 28.1715 27.9081 28.1806 27.8092 28.1694C27.7105 28.1583 27.5256 28.1067 27.3974 27.8868L24.8885 23.5846L25.8975 22.4311L29.7492 26.284L28.2615 27.9846ZM30.0799 28.9579L30.1189 27.9452L30.692 27.2901L31.2651 27.9452L31.3041 28.9579H30.0799ZM30.6921 25.2689L27.1156 21.6915V20.2813C28.1555 21.0373 29.3858 21.47 30.6921 21.47C31.9984 21.47 33.2288 21.0373 34.2687 20.2813V21.6915L30.6921 25.2689ZM33.987 27.8868C33.8586 28.1068 33.6738 28.1583 33.5751 28.1694C33.4762 28.1806 33.2862 28.1715 33.1228 27.9845L31.6351 26.2839L35.4868 22.431L36.4958 23.5845L33.987 27.8868Z" fill="#B81F21"/>
<path d="M20.4398 28.3563L17.2926 26.7859L15.5722 24.8192C15.457 24.6873 15.3088 24.6166 15.158 24.6056V23.4464C16.6283 22.3419 17.7042 20.5852 18.05 18.492C18.2193 18.5006 18.3902 18.482 18.5586 18.4366C19.3834 18.2134 19.9819 17.3099 19.9819 16.2882V15.751C19.9819 15.0046 19.6579 14.3331 19.156 13.9391C19.3036 13.2705 19.3789 12.5864 19.3789 11.8978C19.3789 8.84525 17.9355 6.15655 15.7598 4.61277C15.7366 2.06505 13.8344 0 11.4983 0C9.1623 0 7.26007 2.06505 7.23687 4.61277C5.06127 6.15655 3.61786 8.84535 3.61786 11.8978C3.61786 12.5844 3.69263 13.2664 3.83941 13.9332C3.3377 14.3252 3.01484 14.9998 3.01484 15.7591V16.2882C3.01484 17.3099 3.61339 18.2134 4.43814 18.4366C4.60657 18.4821 4.77742 18.5006 4.9468 18.492C5.29253 20.5852 6.36855 22.3419 7.83886 23.4464V24.6056C7.68804 24.6166 7.53988 24.6873 7.42464 24.8192L5.70425 26.7859L2.55713 28.3563C0.955856 29.1554 -0.0702395 31.033 0.00375277 33.0286L0.384371 43.2942C0.399066 43.6901 0.684465 43.9999 1.02787 43.9999C1.03707 43.9999 1.04635 43.9997 1.05563 43.9992C1.41133 43.982 1.68736 43.6385 1.67232 43.2318L1.29161 32.9661C1.26712 32.3046 1.41751 31.6628 1.70025 31.1104L3.39193 33.4311C3.92655 34.1645 4.22088 35.094 4.22088 36.0486V43.2631C4.22088 43.67 4.50946 43.9999 4.86542 43.9999C5.22137 43.9999 5.50995 43.67 5.50995 43.2631V36.0486C5.50995 34.75 5.10939 33.4854 4.38219 32.4878L2.58377 30.0206C2.73666 29.9002 2.89916 29.7935 3.07284 29.7068L5.81563 28.3381L7.75387 31.9347C7.94525 32.2898 8.26167 32.5306 8.6221 32.5954C8.68689 32.6071 8.75186 32.6128 8.81657 32.6128C9.11125 32.6128 9.39828 32.4935 9.62585 32.2714L10.8541 31.0734V43.263C10.8541 43.6699 11.1426 43.9998 11.4986 43.9998C11.8546 43.9998 12.1431 43.6699 12.1431 43.263V31.0736L13.3713 32.2716C13.5988 32.4937 13.8859 32.613 14.1805 32.613C14.2452 32.613 14.3102 32.6072 14.375 32.5956C14.7354 32.5308 15.0519 32.29 15.2432 31.9349L17.1815 28.3382L19.9243 29.7069C20.0979 29.7936 20.2605 29.9003 20.4133 30.0207L18.6149 32.4879C17.8877 33.4854 17.4872 34.7501 17.4872 36.0487V43.2632C17.4872 43.6701 17.7757 44 18.1317 44C18.4876 44 18.7762 43.6701 18.7762 43.2632V36.0487C18.7762 35.0941 19.0707 34.1646 19.6052 33.4312L21.2969 31.1105C21.5796 31.6629 21.73 32.3047 21.7055 32.9662L21.3249 43.2319C21.3098 43.6385 21.5859 43.982 21.9416 43.9993C21.9509 43.9998 21.96 44 21.9693 44C22.3127 44 22.5981 43.6903 22.6128 43.2943L22.9934 33.0287C23.0674 31.0331 22.0412 29.1554 20.4398 28.3563ZM11.4985 1.47364C12.8697 1.47364 14.0266 2.47364 14.3687 3.8286C13.4789 3.44467 12.5108 3.23355 11.4985 3.23355C10.4863 3.23355 9.51808 3.44467 8.62828 3.8286C8.9704 2.47364 10.1272 1.47364 11.4985 1.47364ZM6.20862 18.1883C6.09501 17.4807 5.52104 16.9667 4.90349 17.0189C4.84874 17.0233 4.7922 17.018 4.73514 17.0025C4.48935 16.936 4.30399 16.6289 4.30399 16.2882V15.7591C4.30399 15.4173 4.50379 15.1094 4.75877 15.0582C4.97396 15.015 5.17995 15.1054 5.31023 15.2996C5.42857 15.476 5.58643 15.6022 5.76682 15.6644C6.03073 15.7556 6.32197 15.7021 6.54558 15.5214C6.94253 15.2011 7.2935 14.8107 7.58878 14.3612C7.80251 14.0358 7.74502 13.5739 7.46039 13.3296C7.17568 13.0853 6.77169 13.151 6.55796 13.4764C6.41178 13.6989 6.24721 13.9012 6.06622 14.0809C5.79045 13.8113 5.45229 13.6425 5.09358 13.5913C4.97009 13.0364 4.90692 12.4688 4.90692 11.8979C4.90692 7.93307 7.86387 4.70728 11.4985 4.70728C15.1331 4.70728 18.09 7.93297 18.09 11.8979C18.09 12.4677 18.0272 13.0341 17.9041 13.5881C17.7345 13.6035 17.5621 13.6353 17.4025 13.6826L16.918 13.2272C16.6745 12.9982 16.3681 12.8837 16.0579 12.9048C15.1106 12.9688 10.2587 13.1153 7.76942 9.70959C7.54117 9.39737 7.13477 9.35572 6.86158 9.61665C6.58838 9.87758 6.55203 10.3423 6.78028 10.6545C8.00799 12.3341 9.80864 13.4699 12.1321 14.0303C13.9111 14.4593 15.4926 14.4177 16.1122 14.3773L16.8681 15.0879C17.0761 15.2835 17.3679 15.3111 17.6009 15.156C17.7102 15.088 18.0763 15.0229 18.236 15.0594C18.4967 15.1186 18.6931 15.4159 18.6931 15.751V16.2882C18.6931 16.629 18.5078 16.9361 18.262 17.0025C18.205 17.0179 18.1484 17.0235 18.0936 17.0188C17.4764 16.9675 16.9021 17.4807 16.7884 18.1882C16.3195 21.1065 14.0949 23.2246 11.4986 23.2246C8.90225 23.2246 6.6775 21.1065 6.20862 18.1883ZM8.82594 31.1146L6.88736 27.5174L7.88045 26.3821L10.5495 29.4333L8.82594 31.1146ZM11.4985 28.4341L9.12801 25.7242V24.1998C9.86802 24.5219 10.6677 24.6982 11.4985 24.6982C12.3294 24.6982 13.129 24.5219 13.869 24.1999V25.7242L11.4985 28.4341ZM14.1711 31.1146L12.4475 29.4333L15.1166 26.3821L16.1097 27.5174L14.1711 31.1146Z" fill="#B81F21"/>
<path d="M9.08729 35.6333H7.27832C6.92236 35.6333 6.63379 35.9632 6.63379 36.3702C6.63379 36.7772 6.92236 37.1071 7.27832 37.1071H9.08729C9.44324 37.1071 9.73181 36.7772 9.73181 36.3702C9.73181 35.9632 9.44324 35.6333 9.08729 35.6333Z" fill="#B81F21"/>
</g>
</svg>
