<svg width="182" height="44" viewBox="0 0 182 44" fill="none" xmlns="http://www.w3.org/2000/svg">
<rect width="182" height="44" rx="22" fill="#FF6700"/>
<g clip-path="url(#clip0)">
<path d="M83.721 22.8821C83.108 24.0871 83.804 24.6631 85.392 25.6471C86.742 26.4811 88.607 26.7861 89.805 26.9081C89.314 27.3801 91.564 25.2161 85.084 31.4491C83.71 32.7661 85.922 34.8791 87.295 33.5901L91.012 30.0051C92.435 31.3741 93.799 32.6861 94.729 33.5951C96.103 34.8891 98.314 32.7941 96.955 31.4541C96.853 31.3571 91.918 26.6231 92.219 26.9131C93.432 26.7911 95.269 26.4681 96.603 25.6521L96.602 25.6511C98.19 24.6621 98.886 24.0871 98.282 22.8821C97.917 22.1981 96.933 21.6261 95.623 22.6151C95.623 22.6151 93.854 23.9701 91.001 23.9701C88.147 23.9701 86.379 22.6151 86.379 22.6151C85.07 21.6211 84.082 22.1981 83.721 22.8821Z" fill="white"/>
<path d="M90.9987 22.142C94.4767 22.142 97.3167 19.424 97.3167 16.078C97.3167 12.718 94.4767 10 90.9987 10C87.5197 10 84.6797 12.718 84.6797 16.078C84.6797 19.424 87.5197 22.142 90.9987 22.142ZM90.9987 13.079C92.7077 13.079 94.1017 14.42 94.1017 16.078C94.1017 17.722 92.7077 19.063 90.9987 19.063C89.2897 19.063 87.8957 17.722 87.8957 16.078C87.8947 14.419 89.2887 13.079 90.9987 13.079Z" fill="white"/>
</g>
<defs>
<clipPath id="clip0">
<rect x="79" y="10" width="24" height="24" fill="white"/>
</clipPath>
</defs>
</svg>
