<svg width="182" height="44" viewBox="0 0 182 44" fill="none" xmlns="http://www.w3.org/2000/svg">
<rect width="182" height="44" rx="22" fill="#00A9F4"/>
<g clip-path="url(#clip0)">
<path d="M103 14.5585C102.108 14.95 101.156 15.2095 100.165 15.3355C101.185 14.7265 101.964 13.7695 102.33 12.616C101.378 13.183 100.328 13.5835 99.2095 13.807C98.3065 12.8455 97.0195 12.25 95.6155 12.25C92.8915 12.25 90.6985 14.461 90.6985 17.1715C90.6985 17.5615 90.7315 17.9365 90.8125 18.2935C86.722 18.094 83.1025 16.1335 80.671 13.147C80.2465 13.8835 79.9975 14.7265 79.9975 15.634C79.9975 17.338 80.875 18.8485 82.183 19.723C81.3925 19.708 80.617 19.4785 79.96 19.117C79.96 19.132 79.96 19.1515 79.96 19.171C79.96 21.562 81.6655 23.548 83.902 24.0055C83.5015 24.115 83.065 24.1675 82.612 24.1675C82.297 24.1675 81.979 24.1495 81.6805 24.0835C82.318 26.032 84.127 27.4645 86.278 27.511C84.604 28.8205 82.4785 29.6095 80.1775 29.6095C79.774 29.6095 79.387 29.5915 79 29.542C81.1795 30.9475 83.7625 31.75 86.548 31.75C95.602 31.75 100.552 24.25 100.552 17.749C100.552 17.5315 100.545 17.3215 100.534 17.113C101.51 16.42 102.331 15.5545 103 14.5585Z" fill="white"/>
</g>
<defs>
<clipPath id="clip0">
<rect x="79" y="10" width="24" height="24" fill="white"/>
</clipPath>
</defs>
</svg>
