<svg width="182" height="44" viewBox="0 0 182 44" fill="none" xmlns="http://www.w3.org/2000/svg">
<rect width="182" height="44" rx="22" fill="#4573A5"/>
<g clip-path="url(#clip0)">
<path d="M102.786 27.3683C102.722 27.2603 102.323 26.3933 100.402 24.6111C98.3923 22.745 98.6623 23.048 101.083 19.8213C102.558 17.8561 103.148 16.656 102.963 16.143C102.788 15.654 101.703 15.783 101.703 15.783L98.0968 15.804C98.0968 15.804 97.8297 15.768 97.6302 15.8865C97.4367 16.0035 97.3122 16.2735 97.3122 16.2735C97.3122 16.2735 96.7407 17.7946 95.9786 19.0877C94.372 21.8164 93.7284 21.9604 93.4659 21.7909C92.8554 21.3964 93.0084 20.2038 93.0084 19.3577C93.0084 16.713 93.4089 15.6105 92.2268 15.3254C91.8338 15.2309 91.5458 15.1679 90.5422 15.1574C89.2551 15.1439 88.1645 15.1619 87.548 15.4634C87.1369 15.6645 86.8204 16.113 87.0139 16.1385C87.2524 16.17 87.7925 16.284 88.079 16.674C88.4495 17.1766 88.436 18.3077 88.436 18.3077C88.436 18.3077 88.6491 21.4204 87.9395 21.8074C87.452 22.0729 86.7844 21.5314 85.3518 19.0547C84.6183 17.7871 84.0632 16.3845 84.0632 16.3845C84.0632 16.3845 83.9567 16.1235 83.7662 15.984C83.5352 15.8145 83.2111 15.7605 83.2111 15.7605L79.7819 15.7815C79.7819 15.7815 79.2674 15.7965 79.0783 16.02C78.9103 16.2195 79.0648 16.6305 79.0648 16.6305C79.0648 16.6305 81.75 22.9115 84.7893 26.0782C87.578 28.9809 90.7432 28.7904 90.7432 28.7904H92.1773C92.1773 28.7904 92.6108 28.7424 92.8314 28.5039C93.0354 28.2849 93.0279 27.8739 93.0279 27.8739C93.0279 27.8739 92.9994 25.9492 93.8934 25.6657C94.774 25.3867 95.9051 27.5258 97.1037 28.3494C98.0097 28.9719 98.6983 28.8354 98.6983 28.8354L101.904 28.7904C101.904 28.7904 103.581 28.6869 102.786 27.3683Z" fill="white"/>
</g>
<defs>
<clipPath id="clip0">
<rect x="79" y="10" width="24" height="24" fill="white"/>
</clipPath>
</defs>
</svg>
