<svg width="40" height="40" viewBox="0 0 40 40" fill="none" xmlns="http://www.w3.org/2000/svg">
<path d="M36.0938 3.4375H32.3698V2.34375C32.3698 1.05141 31.3184 0 30.026 0C28.7337 0 27.6823 1.05141 27.6823 2.34375V3.4375H14.5573V2.34375C14.5573 1.05141 13.5059 0 12.2135 0C10.9212 0 9.86977 1.05141 9.86977 2.34375V3.46641C9.80336 3.44805 9.73375 3.4375 9.66148 3.4375H6.54867C4.39477 3.4375 2.64242 5.18984 2.64242 7.34375V20.651C2.64242 21.0825 2.99227 21.4323 3.42367 21.4323C3.85508 21.4323 4.20492 21.0825 4.20492 20.651V11.4844H32.3698C32.8012 11.4844 33.151 11.1346 33.151 10.7031C33.151 10.2716 32.8012 9.92188 32.3698 9.92188H4.20492V7.34375C4.20492 6.05141 5.25633 5 6.54867 5H9.66148C9.73375 5 9.80336 4.98938 9.86977 4.97109V5.97656C9.86977 7.26891 10.9212 8.32031 12.2135 8.32031C13.5059 8.32031 14.5573 7.26891 14.5573 5.97656V5H27.6823V5.97656C27.6823 7.26891 28.7337 8.32031 30.026 8.32031C31.3184 8.32031 32.3698 7.26891 32.3698 5.97656V5H36.0938C37.3861 5 38.4375 6.05141 38.4375 7.34375V37.0308C38.4375 37.8064 37.8065 38.4375 37.0308 38.4375C36.2551 38.4375 35.6241 37.8064 35.6241 37.0308V35.0098C35.6241 34.5783 35.2742 34.2285 34.8428 34.2285H25.7552C25.3238 34.2285 24.974 34.5783 24.974 35.0098C24.974 35.4412 25.3238 35.791 25.7552 35.791H34.0616V37.0308C34.0616 37.5395 34.1903 38.0185 34.4166 38.4375H2.96875C2.19336 38.4375 1.5625 37.8066 1.5625 37.0312V35.791H19.0488C19.4802 35.791 19.8301 35.4412 19.8301 35.0098C19.8301 34.5783 19.4802 34.2285 19.0488 34.2285H11.2429C12.608 33.0528 13.4749 31.3137 13.4749 29.375C13.4749 25.8426 10.6011 22.9688 7.06867 22.9688C3.53625 22.9688 0.662422 25.8426 0.662422 29.375C0.662422 31.3137 1.5293 33.0528 2.89445 34.2285H0.78125C0.349844 34.2285 0 34.5783 0 35.0098V37.0312C0 38.6682 1.3318 40 2.96875 40H37.0308C38.668 40 40 38.668 40 37.0308V7.34375C40 5.18984 38.2477 3.4375 36.0938 3.4375ZM12.9948 5.97656C12.9948 6.40734 12.6443 6.75781 12.2135 6.75781C11.7827 6.75781 11.4323 6.40734 11.4323 5.97656V2.34375C11.4323 1.91297 11.7827 1.5625 12.2135 1.5625C12.6443 1.5625 12.9948 1.91297 12.9948 2.34375V5.97656ZM30.8073 5.97656C30.8073 6.40734 30.4568 6.75781 30.026 6.75781C29.5952 6.75781 29.2448 6.40734 29.2448 5.97656V2.34375C29.2448 1.91297 29.5952 1.5625 30.026 1.5625C30.4568 1.5625 30.8073 1.91297 30.8073 2.34375V5.97656ZM2.22492 29.375C2.22492 26.7041 4.39781 24.5312 7.06867 24.5312C9.73953 24.5312 11.9124 26.7041 11.9124 29.375C11.9124 32.0459 9.73953 34.2188 7.06867 34.2188C4.39781 34.2188 2.22492 32.0459 2.22492 29.375Z" fill="#B81F21"/>
<path d="M36.5864 10.1508C36.4412 10.0055 36.2396 9.92188 36.0342 9.92188C35.8286 9.92188 35.6272 10.0055 35.4818 10.1508C35.3365 10.2961 35.2529 10.4977 35.2529 10.7031C35.2529 10.9086 35.3364 11.1102 35.4818 11.2555C35.6272 11.4008 35.8286 11.4844 36.0342 11.4844C36.2396 11.4844 36.4412 11.4008 36.5864 11.2555C36.7318 11.1102 36.8154 10.9086 36.8154 10.7031C36.8154 10.4977 36.7318 10.2961 36.5864 10.1508Z" fill="#B81F21"/>
<path d="M23.3316 34.4576C23.1863 34.3123 22.9848 34.2295 22.7793 34.2295C22.5738 34.2295 22.3723 34.3123 22.227 34.4576C22.0816 34.6037 21.998 34.8045 21.998 35.01C21.998 35.2162 22.0816 35.417 22.227 35.5631C22.3723 35.7084 22.5738 35.7912 22.7793 35.7912C22.9848 35.7912 23.1863 35.7084 23.3316 35.5631C23.4769 35.417 23.5605 35.2154 23.5605 35.01C23.5605 34.8045 23.477 34.6037 23.3316 34.4576Z" fill="#B81F21"/>
<path d="M17.6748 23.75C16.0379 23.75 14.7061 25.0818 14.7061 26.7188C14.7061 28.3557 16.0379 29.6875 17.6748 29.6875C19.3118 29.6875 20.6436 28.3557 20.6436 26.7188C20.6436 25.0818 19.3118 23.75 17.6748 23.75ZM17.6748 28.125C16.8994 28.125 16.2686 27.4941 16.2686 26.7188C16.2686 25.9434 16.8994 25.3125 17.6748 25.3125C18.4502 25.3125 19.0811 25.9434 19.0811 26.7188C19.0811 27.4941 18.4502 28.125 17.6748 28.125Z" fill="#B81F21"/>
<path d="M24.9668 23.75C23.3298 23.75 21.998 25.0818 21.998 26.7188C21.998 28.3557 23.3298 29.6875 24.9668 29.6875C26.6037 29.6875 27.9355 28.3557 27.9355 26.7188C27.9355 25.0818 26.6037 23.75 24.9668 23.75ZM24.9668 28.125C24.1914 28.125 23.5605 27.4941 23.5605 26.7188C23.5605 25.9434 24.1914 25.3125 24.9668 25.3125C25.7422 25.3125 26.373 25.9434 26.373 26.7188C26.373 27.4941 25.7422 28.125 24.9668 28.125Z" fill="#B81F21"/>
<path d="M32.2588 23.75C30.6218 23.75 29.29 25.0818 29.29 26.7188C29.29 28.3557 30.6218 29.6875 32.2588 29.6875C33.8957 29.6875 35.2275 28.3557 35.2275 26.7188C35.2275 25.0818 33.8957 23.75 32.2588 23.75ZM32.2588 28.125C31.4834 28.125 30.8525 27.4941 30.8525 26.7188C30.8525 25.9434 31.4834 25.3125 32.2588 25.3125C33.0342 25.3125 33.665 25.9434 33.665 26.7188C33.665 27.4941 33.0342 28.125 32.2588 28.125Z" fill="#B81F21"/>
<path d="M10.3838 15.625C8.74684 15.625 7.41504 16.9568 7.41504 18.5938C7.41504 20.2307 8.74684 21.5625 10.3838 21.5625C12.0207 21.5625 13.3525 20.2307 13.3525 18.5938C13.3525 16.9568 12.0207 15.625 10.3838 15.625ZM10.3838 20C9.6084 20 8.97754 19.3691 8.97754 18.5938C8.97754 17.8184 9.6084 17.1875 10.3838 17.1875C11.1592 17.1875 11.79 17.8184 11.79 18.5938C11.79 19.3691 11.1592 20 10.3838 20Z" fill="#B81F21"/>
<path d="M24.9668 15.625C23.3298 15.625 21.998 16.9568 21.998 18.5938C21.998 20.2307 23.3298 21.5625 24.9668 21.5625C26.6037 21.5625 27.9355 20.2307 27.9355 18.5938C27.9355 16.9568 26.6037 15.625 24.9668 15.625ZM24.9668 20C24.1914 20 23.5605 19.3691 23.5605 18.5938C23.5605 17.8184 24.1914 17.1875 24.9668 17.1875C25.7422 17.1875 26.373 17.8184 26.373 18.5938C26.373 19.3691 25.7422 20 24.9668 20Z" fill="#B81F21"/>
<path d="M32.2588 15.625C30.6218 15.625 29.29 16.9568 29.29 18.5938C29.29 20.2307 30.6218 21.5625 32.2588 21.5625C33.8957 21.5625 35.2275 20.2307 35.2275 18.5938C35.2275 16.9568 33.8957 15.625 32.2588 15.625ZM32.2588 20C31.4834 20 30.8525 19.3691 30.8525 18.5938C30.8525 17.8184 31.4834 17.1875 32.2588 17.1875C33.0342 17.1875 33.665 17.8184 33.665 18.5938C33.665 19.3691 33.0342 20 32.2588 20Z" fill="#B81F21"/>
<path d="M17.6748 15.625C16.0379 15.625 14.7061 16.9568 14.7061 18.5938C14.7061 20.2307 16.0379 21.5625 17.6748 21.5625C19.3118 21.5625 20.6436 20.2307 20.6436 18.5938C20.6436 16.9568 19.3118 15.625 17.6748 15.625ZM17.6748 20C16.8994 20 16.2686 19.3691 16.2686 18.5938C16.2686 17.8184 16.8994 17.1875 17.6748 17.1875C18.4502 17.1875 19.0811 17.8184 19.0811 18.5938C19.0811 19.3691 18.4502 20 17.6748 20Z" fill="#B81F21"/>
<path d="M9.85134 27.471C9.54618 27.1659 9.05165 27.1659 8.74642 27.471L6.2022 30.0153L5.33275 29.1458C5.0276 28.8408 4.53307 28.8408 4.22783 29.1458C3.92275 29.4509 3.92275 29.9456 4.22783 30.2508L5.64978 31.6726C5.79635 31.819 5.99502 31.9014 6.2022 31.9014C6.40939 31.9014 6.60806 31.819 6.75463 31.6726L9.85134 28.5758C10.1564 28.2708 10.1564 27.7761 9.85134 27.471Z" fill="#B81F21"/>
</svg>
