<svg width="258" height="60" viewBox="0 0 258 60" fill="none" xmlns="http://www.w3.org/2000/svg">
<g clip-path="url(#clip0)">
<path fill-rule="evenodd" clip-rule="evenodd" d="M55.036 27.2291C55.0449 27.2728 55.0449 27.2728 55.0537 27.2903V27.2291H55.036Z" fill="#B22222"/>
<path fill-rule="evenodd" clip-rule="evenodd" d="M55.036 27.2291C55.0449 27.2728 55.0449 27.2728 55.0537 27.2903V27.2291H55.036Z" fill="#B22222"/>
<path d="M23.2421 36.728C22.2662 36.728 21.5557 36.2826 21.2989 36.0942C20.7167 35.6659 20.2887 34.9036 20.1774 34.0985C20.0576 33.2162 20.7595 31.94 20.8366 31.7944C20.9222 31.6488 21.102 31.5974 21.2475 31.683C21.393 31.7687 21.4444 31.9486 21.3588 32.0942C21.1705 32.4368 20.6911 33.4475 20.7681 34.0214C20.8794 34.8008 21.2989 35.3576 21.6499 35.6145C21.9666 35.8458 23.1308 36.5567 24.6289 35.7601C24.9029 35.6145 25.1683 35.486 25.4251 35.3661C26.7348 34.7409 27.3084 34.4154 27.043 33.3019C26.9489 32.8993 26.692 32.6167 26.2811 32.4711C25.2539 32.1027 23.5075 32.6424 21.9409 33.8244C21.8039 33.9272 21.6156 33.9015 21.5214 33.7644C21.4187 33.6274 21.4444 33.4389 21.5814 33.3447C23.3277 32.0257 25.2539 31.4603 26.4866 31.9057C27.0858 32.1199 27.4796 32.5567 27.6251 33.1648C28.0189 34.8008 26.8804 35.3404 25.6819 35.9143C25.4336 36.0342 25.1768 36.1541 24.9114 36.2998C24.3036 36.6167 23.7386 36.728 23.2421 36.728Z" fill="#B22222"/>
<path d="M24.9113 36.1456C24.8342 36.1456 24.7486 36.1113 24.6887 36.0513C24.6288 35.9828 24.0809 35.3832 24.1579 34.7408C24.1836 34.5181 24.2949 34.2098 24.6801 33.9614C25.4848 33.4389 26.7603 33.2676 27.3253 33.4646C27.5565 33.5503 27.6506 33.6873 27.6849 33.7901C27.7362 33.9443 27.6506 34.1156 27.4965 34.1755C27.3596 34.2184 27.2141 34.167 27.1456 34.0471C26.8973 33.9271 25.7588 33.9957 25.014 34.4753C24.8599 34.5695 24.7828 34.6895 24.7657 34.8179C24.7315 35.1348 25.0225 35.5203 25.1338 35.6488C25.2451 35.7687 25.2451 35.9571 25.1167 36.077C25.0568 36.1199 24.9883 36.1456 24.9113 36.1456Z" fill="#B22222"/>
<path d="M25.2708 38.4411C24.1408 38.4411 23.2505 36.7623 23.1478 36.5653C23.0707 36.4196 23.1306 36.2398 23.2762 36.1627C23.4217 36.0856 23.6015 36.1456 23.6785 36.2912C23.884 36.7023 24.6116 37.8415 25.2622 37.8415C25.2708 37.8415 25.2879 37.8415 25.2965 37.8415C26.2039 37.7815 29.6538 36.0685 29.9278 35.546C29.9021 35.1092 29.7137 34.2526 29.1744 33.9614C28.7806 33.7473 28.2328 33.8586 27.5479 34.2698C27.4024 34.3554 27.2226 34.3126 27.137 34.167C27.0514 34.0214 27.0942 33.8415 27.2397 33.7558C28.1215 33.2248 28.8748 33.1134 29.4655 33.4304C30.2616 33.8586 30.5099 34.9635 30.5356 35.5546C30.5784 36.5481 26.1097 38.3897 25.3393 38.4411C25.3222 38.4411 25.2965 38.4411 25.2708 38.4411Z" fill="#B22222"/>
<path d="M27.7108 37.576C27.6423 37.576 27.5653 37.5503 27.5139 37.4989C27.454 37.4476 26.9147 36.9422 26.9575 36.2998C26.9832 35.9144 27.1972 35.5803 27.6081 35.3062C28.9093 34.424 30.142 34.8951 30.1934 34.9122C30.3475 34.9722 30.4245 35.1521 30.3646 35.3062C30.3047 35.4604 30.1249 35.5375 29.9708 35.4775C29.928 35.4604 28.9692 35.1092 27.942 35.8116C27.7023 35.9743 27.5653 36.1542 27.5567 36.3426C27.5396 36.6424 27.805 36.9593 27.9163 37.0621C28.0361 37.1735 28.0533 37.3619 27.942 37.4904C27.882 37.5418 27.7964 37.576 27.7108 37.576Z" fill="#B22222"/>
<path d="M28.4469 39.94C27.4882 39.94 26.4181 38.304 26.2126 37.97C26.127 37.8244 26.1698 37.6445 26.3068 37.5588C26.4438 37.4732 26.6321 37.516 26.7177 37.6531C27.1543 38.3554 27.9761 39.3319 28.4384 39.3319C29.1917 39.3319 31.5801 38.2184 31.8626 37.6359C31.9996 37.3533 32.1023 36.7794 31.8198 36.3597C31.563 35.9828 31.0151 35.803 30.2532 35.8629C30.082 35.88 29.945 35.7516 29.9279 35.5803C29.9194 35.4175 30.0392 35.2719 30.2104 35.2548C31.4688 35.1691 32.051 35.6231 32.3249 36.0171C32.7272 36.6081 32.6502 37.4047 32.4105 37.8929C31.9996 38.758 29.3629 39.94 28.4469 39.94Z" fill="#B22222"/>
<path d="M30.3814 39.3233C30.3215 39.3233 30.2702 39.3062 30.2188 39.2719C30.1589 39.2377 29.6538 38.8865 29.5682 38.3212C29.5339 38.0985 29.5596 37.7644 29.8592 37.3961C30.4071 36.728 31.3402 36.4967 31.8367 36.3768C31.9395 36.3511 32.0679 36.3169 32.1021 36.2997C32.2391 36.2055 32.4189 36.2484 32.513 36.3854C32.6072 36.5224 32.5558 36.7194 32.4189 36.8051C32.3247 36.8651 32.1963 36.8993 31.9737 36.9507C31.5114 37.0621 30.741 37.2591 30.313 37.773C30.1845 37.9272 30.1332 38.0728 30.1589 38.2184C30.2017 38.5182 30.5355 38.7494 30.5441 38.758C30.6811 38.8522 30.7239 39.0407 30.6297 39.1777C30.5698 39.2805 30.4756 39.3233 30.3814 39.3233Z" fill="#B22222"/>
<path d="M30.7924 40.9508C29.9277 40.9508 29.2086 39.7174 29.1316 39.5718C29.0546 39.4262 29.1059 39.2463 29.2515 39.1606C29.397 39.075 29.5768 39.1349 29.6624 39.2805C29.8678 39.6403 30.4243 40.3855 30.818 40.3512C31.5714 40.2913 33.001 39.6917 33.138 39.1778C33.1979 38.9465 33.138 38.6895 32.9753 38.4754C32.7784 38.2184 32.4788 38.0728 32.1535 38.0728C31.9908 38.0728 31.8539 37.9444 31.8539 37.773C31.8539 37.6103 31.9823 37.4733 32.1535 37.4647C32.6671 37.4476 33.138 37.696 33.4547 38.0985C33.7372 38.4583 33.8399 38.9122 33.7286 39.3234C33.4804 40.2656 31.6142 40.8823 30.878 40.9422C30.8352 40.9508 30.818 40.9508 30.7924 40.9508Z" fill="#B22222"/>
<path d="M31.7939 40.7281C31.6912 40.7281 31.5885 40.6767 31.5371 40.5739C31.5114 40.5311 31.2974 40.1114 31.5114 39.606C31.734 39.0835 32.3332 38.6895 33.2835 38.4326C33.4461 38.3897 33.6088 38.4839 33.6516 38.6467C33.6944 38.8094 33.6002 38.9722 33.4376 39.015C32.4959 39.2634 32.1706 39.5974 32.0679 39.8287C31.9651 40.0685 32.0593 40.2655 32.0679 40.2741C32.1449 40.4197 32.085 40.5996 31.9395 40.6767C31.8881 40.7109 31.8367 40.7281 31.7939 40.7281Z" fill="#B22222"/>
<path d="M34.3452 41.105C33.3693 41.105 32.7786 40.4797 32.5731 40.0514C32.5046 39.8972 32.5646 39.7174 32.7187 39.6489C32.8727 39.5803 33.044 39.6403 33.121 39.7859C33.1724 39.8972 33.686 40.8394 35.0643 40.3598C35.6635 40.1542 36.0059 39.8459 36.1087 39.4262C36.2627 38.818 35.9802 37.6017 33.7973 35.2634C33.686 35.1435 33.686 34.9551 33.8144 34.8351C33.9343 34.7238 34.1226 34.7238 34.2424 34.8523C36.1686 36.9165 36.9733 38.4583 36.6908 39.5718C36.5367 40.197 36.0573 40.651 35.2612 40.9337C34.9187 41.0536 34.6191 41.105 34.3452 41.105Z" fill="#B22222"/>
<path d="M38.6768 41.4562C36.8705 41.4562 36.1258 39.7859 36.1172 39.7602C36.0487 39.606 36.1258 39.4262 36.2713 39.3662C36.4254 39.2977 36.5966 39.3662 36.6651 39.5204C36.6993 39.5975 37.5211 41.3962 39.627 40.6767C40.3461 40.4283 40.7742 39.9572 40.8598 39.3234C41.0053 38.2013 40.0722 36.2656 37.0075 34.2013C36.8705 34.1071 36.8363 33.9187 36.9305 33.7816C37.0246 33.6446 37.213 33.6103 37.3499 33.7045C40.1492 35.5889 41.6816 37.7217 41.459 39.409C41.3477 40.2741 40.7656 40.9337 39.8239 41.2591C39.4045 41.3876 39.0278 41.4562 38.6768 41.4562Z" fill="#B22222"/>
<path d="M41.9984 39.0322C41.6046 39.0322 41.2536 38.9123 41.0396 38.7924C40.894 38.7067 40.8427 38.5268 40.9283 38.3812C41.0053 38.2356 41.1937 38.1842 41.3392 38.2613C41.382 38.287 42.2894 38.7667 43.0256 37.9358C43.3595 37.5675 43.5735 36.7795 43.3253 35.8545C43.0599 34.8609 42.0155 33.0108 38.0605 31.7174C37.9064 31.666 37.8122 31.4947 37.8636 31.3405C37.915 31.1778 38.0862 31.0921 38.2403 31.1435C42.2552 32.454 43.5307 34.347 43.8988 35.6917C44.2241 36.908 43.8731 37.8673 43.4622 38.3298C43.0085 38.8609 42.4692 39.0322 41.9984 39.0322Z" fill="#B22222"/>
<path d="M35.4581 41.6017C35.3211 41.6017 35.2012 41.5075 35.167 41.3704C35.0728 40.9935 34.953 40.8651 34.953 40.8651C34.8417 40.7451 34.8331 40.5653 34.9444 40.4454C35.0557 40.3255 35.2355 40.3169 35.3553 40.4197C35.3981 40.4539 35.6121 40.6595 35.7577 41.2248C35.8005 41.3875 35.6978 41.5503 35.5437 41.5931C35.5094 41.6017 35.4837 41.6017 35.4581 41.6017Z" fill="#B22222"/>
<path d="M39.9865 41.97C39.8496 41.97 39.7212 41.8758 39.6955 41.7302C39.6013 41.3019 39.49 41.1392 39.49 41.1306C39.3959 40.9936 39.4301 40.8051 39.5671 40.7109C39.704 40.6167 39.8838 40.6424 39.978 40.7709C40.0037 40.8137 40.1663 41.0364 40.2776 41.5931C40.3118 41.7559 40.2091 41.9186 40.0465 41.9529C40.0293 41.97 40.0037 41.97 39.9865 41.97Z" fill="#B22222"/>
<path d="M43.5393 39.1692C43.4195 39.1692 43.3082 39.1007 43.2568 38.9808L42.9572 38.2613C42.8973 38.1071 42.9658 37.9272 43.1199 37.8673C43.274 37.8073 43.4537 37.8758 43.5137 38.03L43.8133 38.7495C43.8732 38.9037 43.8047 39.0835 43.6506 39.1435C43.6164 39.1606 43.5736 39.1692 43.5393 39.1692Z" fill="#B22222"/>
<path d="M43.539 35.8545C43.4106 35.8545 43.2993 35.7774 43.2565 35.6489C43.2051 35.4947 43.2908 35.3234 43.4448 35.2634C43.5989 35.212 47.1516 33.9615 47.3827 29.7902C47.3913 29.6275 47.5368 29.4904 47.6995 29.5076C47.8621 29.5161 47.9905 29.6617 47.982 29.8245C47.7337 34.4155 43.676 35.8288 43.6332 35.8373C43.5989 35.8544 43.5733 35.8545 43.539 35.8545Z" fill="#B22222"/>
<path d="M24.3892 25.9272C23.6102 25.9272 22.797 25.8758 22.0864 25.7388C20.9222 25.499 20.4856 24.8566 20.3144 24.3598C20.0918 23.6831 20.2802 22.9294 20.5798 22.5953C21.0078 22.1242 22.7028 22.0043 25.057 21.8844C25.6305 21.8587 26.1185 21.833 26.4352 21.7988C26.7691 21.7645 27.18 21.6617 27.7108 21.5332C29.0719 21.1992 31.349 20.651 35.3297 20.5225C40.877 20.3426 44.7292 24.0086 44.8919 24.1628C45.0117 24.2741 45.0117 24.4711 44.9004 24.591C44.7806 24.711 44.5923 24.711 44.4724 24.5996C44.4382 24.5653 40.6201 20.9508 35.3468 21.1307C31.4346 21.2506 29.2774 21.7731 27.8563 22.1242C27.3084 22.2613 26.8718 22.3641 26.5037 22.3983C26.1699 22.4326 25.6733 22.4583 25.0912 22.484C23.8671 22.5439 21.3246 22.681 21.0335 22.9979C20.8965 23.1521 20.7339 23.6746 20.8965 24.1713C21.0592 24.6767 21.5043 25.0022 22.2149 25.1478C24.1838 25.5418 27.1971 25.1478 27.2228 25.1478C27.3855 25.1221 27.5395 25.242 27.5652 25.4047C27.5909 25.5675 27.4711 25.7217 27.3084 25.7474C27.2142 25.7559 25.8788 25.9272 24.3892 25.9272Z" fill="#B22222"/>
<path d="M32.7785 26.8608C31.7256 26.8608 30.7582 26.7238 30.1932 26.6296C28.7978 26.3897 27.2141 25.7473 27.1457 25.7216C26.9916 25.6617 26.9145 25.4818 26.9744 25.3276C27.0344 25.1735 27.2141 25.0964 27.3682 25.1563C27.3853 25.1649 28.9691 25.7987 30.2959 26.03C31.1691 26.1842 34.1311 26.6039 35.8004 25.636C35.9459 25.5503 36.1257 25.6017 36.2113 25.7473C36.2969 25.893 36.2456 26.0728 36.1 26.1585C35.1669 26.7067 33.9171 26.8608 32.7785 26.8608Z" fill="#B22222"/>
<path d="M41.9128 33.6703C41.8186 33.6703 41.7245 33.6274 41.6645 33.5418C41.5704 33.4047 41.6046 33.2163 41.7416 33.1221C41.7501 33.1135 42.0583 32.8908 42.1097 32.4454C42.1611 32 41.9556 31.4947 41.4933 30.9294C40.1664 29.3276 39.122 29.1478 35.2527 28.4625L34.8075 28.3855C34.7904 28.3855 34.7818 28.3769 34.7647 28.3769C32.967 27.803 32.479 27.6231 31.7257 27.272C31.0066 26.9379 29.9793 26.5525 29.9708 26.5525C29.8167 26.4925 29.7396 26.3212 29.791 26.167C29.8509 26.0129 30.0221 25.9358 30.1762 25.9872C30.219 26.0043 31.2292 26.3812 31.9739 26.7238C32.693 27.0578 33.1639 27.2377 34.9188 27.7945L35.3383 27.8715C39.2847 28.5653 40.4746 28.7709 41.9385 30.5439C42.5206 31.2463 42.7689 31.9144 42.6918 32.5396C42.5976 33.242 42.0926 33.6017 42.0669 33.6189C42.0326 33.6531 41.9727 33.6703 41.9128 33.6703Z" fill="#B22222"/>
<path d="M22.9681 24.4025C21.3501 24.4025 20.6567 23.4175 20.5112 22.8779C20.4684 22.7152 20.5625 22.5524 20.7252 22.5096C20.8878 22.4668 21.0505 22.561 21.0933 22.7238C21.1018 22.7666 21.4357 23.8801 23.1307 23.803C23.6358 23.7773 23.9868 23.6317 24.1665 23.3747C24.4662 22.9465 24.2864 22.3126 24.2864 22.3126C24.235 22.1499 24.3292 21.9871 24.4918 21.9357C24.6545 21.8844 24.8171 21.9786 24.8685 22.1327C24.8771 22.167 25.1425 23.0492 24.6716 23.7173C24.372 24.1456 23.8669 24.3769 23.165 24.4025C23.0965 24.4025 23.0365 24.4025 22.9681 24.4025Z" fill="#B22222"/>
<path d="M39.6527 21.6531C39.5072 21.6531 39.3874 21.5503 39.3531 21.4047C39.3189 21.242 39.4302 21.0792 39.5928 21.0535L45.1315 19.9914C45.2942 19.9572 45.4568 20.0685 45.4825 20.2313C45.5082 20.394 45.4055 20.5568 45.2428 20.5824L39.7041 21.6445C39.6956 21.6445 39.6784 21.6531 39.6527 21.6531Z" fill="#B22222"/>
<path d="M42.957 33.0621C42.9142 33.0621 42.8629 33.0535 42.8201 33.0278C42.5632 32.8994 42.3064 32.7966 42.3064 32.7966C42.1523 32.7366 42.0753 32.5653 42.1352 32.4111C42.1951 32.257 42.3663 32.1799 42.5204 32.2398C42.529 32.2484 42.8115 32.3512 43.094 32.4968C43.2395 32.5739 43.2995 32.7537 43.2224 32.8994C43.171 33.0021 43.0683 33.0621 42.957 33.0621Z" fill="#B22222"/>
<path d="M6.63452 44.9422L5.92399 44.1542L4.13483 45.7645L3.43286 44.985L7.67036 41.1649L8.37232 41.9444L6.60028 43.5461L7.32793 44.3598L10.1957 43.9829L10.9491 44.8223L7.59331 45.2249L6.76293 48.6853L5.9668 47.7945L6.63452 44.9422Z" fill="#B22222"/>
<path d="M9.16865 50.3555C8.95463 49.8672 8.87759 49.3704 8.93751 48.848C8.99743 48.334 9.20289 47.8544 9.54531 47.409C9.88774 46.9636 10.2986 46.6552 10.778 46.4668C11.266 46.2784 11.7711 46.2184 12.2933 46.3126C12.8155 46.3983 13.312 46.621 13.7657 46.9722C14.228 47.3233 14.5618 47.7516 14.7758 48.2313C14.9899 48.7195 15.0669 49.2163 15.007 49.7302C14.9471 50.2441 14.7416 50.7238 14.3992 51.1692C14.0567 51.6146 13.6458 51.9315 13.1579 52.1199C12.6785 52.3083 12.1734 52.3597 11.6427 52.2741C11.1119 52.1884 10.6239 51.9657 10.1702 51.6146C9.71652 51.2548 9.38266 50.8351 9.16865 50.3555ZM11.7111 51.3062C12.0536 51.3576 12.396 51.3148 12.7213 51.1777C13.0466 51.0407 13.3291 50.8265 13.5602 50.5182C13.7914 50.2184 13.9369 49.8929 13.9883 49.5417C14.0396 49.1906 13.9968 48.8565 13.8599 48.531C13.7229 48.2056 13.5089 47.9315 13.2007 47.7002C12.9011 47.4689 12.5758 47.3233 12.2333 47.2719C11.8909 47.2205 11.5485 47.2634 11.2232 47.4004C10.8979 47.5375 10.6154 47.7516 10.3843 48.0599C10.1531 48.3597 10.0076 48.6852 9.95622 49.0364C9.90486 49.3876 9.94766 49.7216 10.0846 50.0471C10.2216 50.3726 10.4356 50.6467 10.7438 50.8779C11.0434 51.1092 11.3687 51.2548 11.7111 51.3062Z" fill="#B22222"/>
<path d="M20.4086 51.409C20.6568 51.7174 20.8023 52.06 20.8366 52.4197C20.8708 52.7795 20.7938 53.1478 20.6055 53.5161C20.4171 53.8844 20.1689 54.1585 19.8521 54.3469C19.5354 54.5353 19.1844 54.6124 18.782 54.5867C18.3797 54.561 17.9602 54.4411 17.5236 54.2184L16.3765 53.636L15.6232 55.1007L14.6815 54.621L17.2754 49.5332L19.3642 50.6039C19.8093 50.8266 20.1603 51.0921 20.4086 51.409ZM18.9533 53.6103C19.2529 53.5418 19.4926 53.3533 19.6552 53.0279C19.8179 52.7024 19.8436 52.4026 19.7152 52.1199C19.5953 51.8373 19.3214 51.5889 18.9105 51.3833L17.8061 50.818L16.7789 52.8394L17.8832 53.4047C18.2941 53.6103 18.6536 53.6788 18.9533 53.6103Z" fill="#B22222"/>
<path d="M26.0328 56.5482C26.1441 56.8308 26.1526 57.1392 26.0414 57.4818C25.8958 57.9615 25.6048 58.2784 25.1682 58.4325C24.7316 58.5867 24.1837 58.561 23.5074 58.3555L20.9221 57.5589L22.6 52.1028L25.0398 52.8565C25.6561 53.045 26.0927 53.3105 26.3581 53.6617C26.6235 54.0128 26.692 54.4069 26.555 54.8608C26.4694 55.1435 26.3239 55.3747 26.1184 55.5375C25.913 55.7002 25.6733 55.803 25.3736 55.8287C25.6989 56.0257 25.913 56.2655 26.0328 56.5482ZM25.0483 57.0878C25.211 56.5567 24.937 56.1799 24.218 55.9572L22.6599 55.4775L22.1634 57.0792L23.7214 57.5589C24.4405 57.7901 24.8771 57.6274 25.0483 57.0878ZM22.8825 54.7409L24.2351 55.1606C24.5604 55.2634 24.8343 55.2719 25.0398 55.1949C25.2538 55.1178 25.3993 54.955 25.4764 54.6981C25.5534 54.4411 25.5277 54.227 25.3993 54.0385C25.2709 53.8501 25.0398 53.7131 24.7145 53.6103L23.3619 53.1906L22.8825 54.7409Z" fill="#B22222"/>
<path d="M32.2221 59.092L32.1108 59.9743L27.8647 59.4261L28.5924 53.7644L32.7272 54.2955L32.6159 55.1777L29.5341 54.7837L29.3457 56.2569L32.0766 56.6081L31.9653 57.4732L29.2344 57.122L29.0375 58.6809L32.2221 59.092Z" fill="#B22222"/>
<path d="M38.3517 55.1177L36.4598 55.1691L36.5882 59.9828L35.5352 60.0085L35.4068 55.1948L33.5235 55.2462L33.4978 54.3469L38.3174 54.2184L38.3517 55.1177Z" fill="#B22222"/>
<path d="M46.039 57.6788L46.4671 59.7859L45.5083 59.9829L45.26 58.7495L40.5175 59.7088L39.3789 54.1156L40.3976 53.9101L41.3478 58.6295L44.1643 58.0557L43.214 53.3362L44.2413 53.1306L45.1915 57.8501L46.039 57.6788Z" fill="#B22222"/>
<path d="M51.8603 55.4261L52.1941 56.2484L48.222 57.8415L46.1075 52.5396L49.9769 50.9893L50.3108 51.8115L47.4259 52.9679L47.9738 54.3469L50.5334 53.3276L50.8587 54.1413L48.2819 55.1606L48.8641 56.6252L51.8603 55.4261Z" fill="#B22222"/>
<path d="M55.5411 47.6831L58.563 52.5225L57.6641 53.0878L56.3714 51.015L53.8718 52.5825L55.1644 54.6553L54.2655 55.2206L51.2437 50.3812L52.1425 49.8159L53.3924 51.8116L55.8921 50.2441L54.6422 48.2484L55.5411 47.6831Z" fill="#B22222"/>
<path d="M60.5663 44.4882L59.1538 45.7473L62.364 49.3361L61.585 50.0385L58.3748 46.4496L56.9708 47.7087L56.3716 47.0406L59.967 43.8201L60.5663 44.4882Z" fill="#B22222"/>
<path d="M63.1689 40.3597C63.5284 40.1799 63.888 40.1028 64.2475 40.1456C64.6071 40.1884 64.9495 40.334 65.2748 40.5996C65.6001 40.8565 65.8141 41.1649 65.9254 41.5075C66.0367 41.8501 66.0452 42.2184 65.9425 42.6039C65.8398 42.9893 65.6343 43.3747 65.3176 43.7602L64.5043 44.7623L65.7798 45.7987L65.1121 46.621L60.6777 43.0321L62.1587 41.2077C62.4755 40.8223 62.8093 40.5396 63.1689 40.3597ZM65.0265 42.2355C65.0265 41.9272 64.881 41.6531 64.5985 41.4304C64.316 41.1991 64.0249 41.1221 63.7167 41.182C63.4171 41.242 63.1175 41.4561 62.8264 41.8158L62.0474 42.7837L63.8109 44.2141L64.5899 43.2548C64.881 42.8779 65.0265 42.5439 65.0265 42.2355Z" fill="#B22222"/>
<path d="M5.87258 21.0364C5.39318 21.2676 4.89667 21.3619 4.38303 21.319C3.8694 21.2762 3.38144 21.0878 2.92773 20.7623C2.47402 20.4368 2.14016 20.0342 1.9347 19.5632C1.72925 19.0835 1.6522 18.5867 1.72069 18.0642C1.78917 17.5417 1.98607 17.045 2.31993 16.5739C2.59387 16.197 2.91061 15.8972 3.2616 15.6745C3.62114 15.4518 3.99781 15.3319 4.40872 15.2891L4.53712 16.2227C3.93788 16.2998 3.45849 16.5824 3.1075 17.0706C2.87637 17.3876 2.74796 17.7216 2.70516 18.0728C2.66235 18.424 2.71372 18.758 2.85925 19.0749C3.00478 19.3918 3.23591 19.6659 3.55266 19.8886C3.8694 20.1113 4.1947 20.2398 4.54568 20.2826C4.89667 20.3169 5.23053 20.2569 5.54727 20.1113C5.86402 19.9572 6.13796 19.7259 6.36909 19.409C6.72008 18.9208 6.83136 18.3726 6.70296 17.773L7.6275 17.5931C7.72167 17.9871 7.73023 18.3897 7.63606 18.8008C7.54189 19.212 7.36212 19.606 7.08818 19.9914C6.75432 20.4539 6.34341 20.8051 5.87258 21.0364Z" fill="#B22222"/>
<path d="M9.61346 16.3254C9.09982 16.4711 8.59475 16.4711 8.08967 16.3254C7.5846 16.1884 7.14801 15.9143 6.76278 15.5203C6.37755 15.1177 6.1293 14.6638 6.00945 14.1584C5.8896 13.6531 5.91528 13.1391 6.07793 12.6338C6.24058 12.1284 6.53164 11.6745 6.95111 11.2719C7.37058 10.8693 7.83285 10.5952 8.34649 10.4582C8.86013 10.3126 9.3652 10.3126 9.86172 10.4496C10.3582 10.5867 10.8034 10.8608 11.1972 11.2633C11.591 11.6659 11.8392 12.1199 11.9505 12.6252C12.0704 13.1306 12.0447 13.6359 11.882 14.1413C11.7194 14.6466 11.4283 15.1006 11.0088 15.5032C10.5979 15.9057 10.1271 16.1798 9.61346 16.3254ZM10.9318 13.9357C11.0345 13.6017 11.0431 13.2591 10.9489 12.9164C10.8633 12.5738 10.6835 12.2655 10.4267 11.9914C10.1613 11.7173 9.86172 11.5289 9.52785 11.4261C9.19399 11.3233 8.85157 11.3147 8.5177 11.409C8.17528 11.4946 7.87566 11.6745 7.60172 11.9314C7.32778 12.1884 7.13945 12.4967 7.03672 12.8308C6.93399 13.1648 6.92543 13.5075 7.0196 13.8415C7.1052 14.1841 7.28498 14.4925 7.54179 14.7666C7.80717 15.0406 8.10679 15.2291 8.44066 15.3319C8.78308 15.4347 9.11694 15.4432 9.45081 15.349C9.78467 15.2633 10.0929 15.0835 10.3668 14.8179C10.6493 14.5696 10.8291 14.2698 10.9318 13.9357Z" fill="#B22222"/>
<path d="M17.3609 10.5439L15.469 9.78154C15.4348 9.8158 15.3749 9.85863 15.2893 9.91002L14.2106 10.6124L15.118 12.0085L14.2277 12.591L11.1202 7.79439L13.0892 6.50959C13.5001 6.24407 13.911 6.07276 14.3048 6.0128C14.6986 5.95285 15.0667 5.99567 15.392 6.14128C15.7258 6.28689 15.9998 6.53529 16.2309 6.88647C16.4621 7.24621 16.5819 7.61452 16.5733 7.99139C16.5648 8.36826 16.4449 8.71944 16.1967 9.06205L18.3197 9.91858L17.3609 10.5439ZM14.5702 6.96355C14.262 6.92929 13.9196 7.04064 13.5258 7.28903L12.4899 7.96569L13.7312 9.87576L14.7671 9.1991C15.1523 8.9507 15.392 8.67661 15.4861 8.37683C15.5803 8.07704 15.5289 7.77726 15.3235 7.47747C15.1352 7.16912 14.8783 6.99781 14.5702 6.96355Z" fill="#B22222"/>
<path d="M22.0092 2.07288L21.9492 8.29986L20.9905 8.71099L16.4705 4.42834L17.532 3.98294L20.999 7.29772L21.0418 2.49258L22.0092 2.07288Z" fill="#B22222"/>
<path d="M28.9691 5.31053L29.1746 6.17563L25.0141 7.1692L23.6958 1.61888L27.745 0.651001L27.9504 1.5161L24.9285 2.23558L25.271 3.68312L27.9504 3.04929L28.1559 3.89725L25.4764 4.53109L25.8445 6.06428L28.9691 5.31053Z" fill="#B22222"/>
<path d="M31.3145 1.12206L29.4312 1.26767L29.3627 0.376874L34.1908 0L34.2593 0.890792L32.376 1.0364L32.7527 5.83298L31.6997 5.91863L31.3145 1.12206Z" fill="#B22222"/>
<path d="M36.6479 5.49891C36.2027 5.20769 35.8688 4.83082 35.6377 4.36829C35.4066 3.90577 35.321 3.39185 35.3638 2.8351C35.4066 2.27836 35.5778 1.79013 35.8774 1.36187C36.177 0.942168 36.5708 0.616686 37.0502 0.402554C37.5296 0.188421 38.0604 0.102768 38.6339 0.145594C39.0962 0.179856 39.5157 0.29977 39.8923 0.488207C40.2604 0.676644 40.5686 0.942168 40.8083 1.26765L40.0721 1.85866C39.6954 1.379 39.2075 1.12204 38.6082 1.07065C38.2144 1.03639 37.8635 1.09634 37.5382 1.24195C37.2129 1.38756 36.956 1.61026 36.7591 1.89292C36.5623 2.18414 36.451 2.51819 36.4167 2.90362C36.3825 3.28906 36.4424 3.64024 36.5965 3.95716C36.7591 4.28264 36.9817 4.5396 37.2728 4.7366C37.5638 4.9336 37.9148 5.04495 38.3001 5.07921C38.8993 5.12204 39.4215 4.94217 39.8752 4.52247L40.5087 5.22482C40.2176 5.51604 39.8752 5.72161 39.4729 5.85866C39.0705 5.98714 38.6425 6.02996 38.1716 5.9957C37.5981 5.95287 37.093 5.78157 36.6479 5.49891Z" fill="#B22222"/>
<path d="M45.9791 6.53535L45.765 7.40045L41.6132 6.34691L43.0171 0.813721L47.0577 1.83299L46.8437 2.69809L43.8303 1.93578L43.4622 3.37475L46.1331 4.05141L45.9191 4.89937L43.2482 4.22271L42.863 5.74734L45.9791 6.53535Z" fill="#B22222"/>
<path d="M54.0174 4.73656L51.6547 9.93571L50.8585 9.57596L49.6001 4.75369L47.9993 8.27404L47.0405 7.8372L49.4032 2.63806L50.1994 2.9978L51.4578 7.82007L53.0586 4.29973L54.0174 4.73656Z" fill="#B22222"/>
<path d="M56.7653 7.51173L55.1988 6.44963L55.7038 5.71301L59.7016 8.44535L59.1966 9.19053L57.63 8.12843L54.9248 12.1027L54.0516 11.5032L56.7653 7.51173Z" fill="#B22222"/>
<path d="M59.9585 16.3512L60.2666 14.3383C60.2238 14.3126 60.1725 14.2612 60.104 14.1927L59.1709 13.3019L58.0238 14.5096L57.2533 13.7816L61.1826 9.64453L62.8862 11.2634C63.2457 11.606 63.5025 11.9572 63.6566 12.334C63.8107 12.7023 63.8535 13.0707 63.785 13.4218C63.7166 13.773 63.5368 14.1071 63.2543 14.4068C62.9547 14.7152 62.6294 14.9122 62.2613 14.9978C61.8931 15.0749 61.5165 15.0407 61.1313 14.8779L60.7803 17.1392L59.9585 16.3512ZM62.7834 12.8051C62.7406 12.4968 62.5609 12.1884 62.227 11.8715L61.3281 11.015L59.7616 12.6681L60.6604 13.5246C60.9943 13.8415 61.3196 14.0128 61.6278 14.03C61.9359 14.0471 62.2185 13.9272 62.4667 13.6617C62.715 13.4047 62.8262 13.1135 62.7834 12.8051Z" fill="#B22222"/>
<path d="M64.8549 21.0108L64.1443 21.5418L61.5762 18.1157L66.139 14.6896L68.6387 18.0215L67.9281 18.5525L66.0705 16.0686L64.8806 16.9594L66.5328 19.1692L65.8393 19.7003L64.1872 17.4904L62.9287 18.4326L64.8549 21.0108Z" fill="#B22222"/>
<path d="M58.5888 35.6059C58.2378 35.6059 58.2378 35.6059 58.1693 33.1306C58.1265 31.8201 58.0923 30.0727 58.0581 28.3168C58.0409 27.4603 58.0238 26.5438 57.9981 25.6702C57.9468 26.3211 57.904 26.9807 57.8526 27.6059C57.416 33.6273 57.416 33.6273 57.065 33.6273C56.7312 33.6273 56.6028 33.2505 56.3459 32.3939L56.2775 32.1798C56.2518 32.0856 56.209 32.0428 56.1576 32.0428C56.1405 32.0428 56.1319 32.0428 56.1234 32.0428C56.1234 32.0428 54.9163 32.0342 54.7194 32.0342C54.6937 32.0342 54.6681 32.0342 54.6338 32.0342C54.4284 32.0428 54.0603 32.0685 53.7692 31.6573C53.5723 31.3747 53.1015 30.9207 52.6734 30.9207C52.3139 30.9207 51.8345 31.289 51.4835 31.5545C51.3894 31.6316 51.2952 31.7001 51.2096 31.7601C50.7559 32.0856 50.2337 32.0342 50.0967 32.0171H47.4429C47.2803 32.0171 47.1433 31.88 47.1433 31.7173C47.1433 31.5545 47.2803 31.4175 47.4429 31.4175H50.1138C50.131 31.4175 50.1481 31.4175 50.1738 31.4261C50.1738 31.4261 50.5504 31.486 50.8586 31.2719C50.9357 31.2205 51.0213 31.152 51.1154 31.0834C51.5606 30.7494 52.1084 30.3211 52.6734 30.3211C53.384 30.3211 54.0003 30.9464 54.2572 31.3233C54.3428 31.4518 54.4027 31.4517 54.5825 31.4432C54.6253 31.4432 54.6595 31.4346 54.7023 31.4346C54.8821 31.4346 55.935 31.4432 56.0891 31.4432C56.3031 31.4261 56.6884 31.5117 56.8425 31.9999L56.8938 32.1627C56.988 31.0406 57.125 29.2333 57.2448 27.5717C57.7328 20.8479 57.7328 20.8479 58.1009 20.8479C58.4861 20.8479 58.4861 20.8479 58.6487 28.3168C58.6915 30.2612 58.7343 32.3682 58.7857 33.7473C58.8371 33.5503 58.8884 33.3618 58.9312 33.1905C59.1281 32.4368 59.2052 32.137 59.2651 32.0342C59.385 31.7944 59.5219 31.5203 59.9499 31.4689C60.0441 31.4603 60.2068 31.4603 60.5064 31.4689C61.02 31.4774 62.0901 31.5031 62.3812 31.3661C62.5181 31.3061 62.7835 31.0235 63.0232 30.7751C63.5368 30.2355 64.059 29.6787 64.6155 29.6787C65.2918 29.6787 65.8482 30.3297 66.2163 30.758C66.3019 30.8607 66.3789 30.9464 66.4303 30.9978C66.4817 31.0492 66.533 31.1006 66.5844 31.1434C66.7642 31.3233 66.8583 31.4175 67.1494 31.4346C67.6288 31.4603 69.6833 31.4346 69.709 31.4346C69.8717 31.4346 70.0086 31.5631 70.0086 31.7344C70.0086 31.8971 69.8802 32.0342 69.709 32.0428C69.6234 32.0428 67.6117 32.0685 67.1152 32.0428C66.593 32.0171 66.3618 31.7858 66.1564 31.5717C66.1136 31.5288 66.0708 31.486 66.028 31.4432C65.9509 31.3747 65.8653 31.2719 65.7626 31.152C65.4801 30.8265 65.0178 30.2783 64.6155 30.2783C64.3244 30.2783 63.8022 30.8265 63.4598 31.1862C63.143 31.5203 62.8777 31.8029 62.6294 31.9143C62.2442 32.0856 61.3967 32.0856 60.4978 32.0685C60.2924 32.0599 60.0784 32.0599 60.0184 32.0685C59.9328 32.077 59.9243 32.077 59.813 32.2997C59.7787 32.3854 59.6418 32.8907 59.5305 33.3447C58.974 35.4346 58.9056 35.6059 58.5888 35.6059Z" fill="#B22222"/>
<path d="M12.8409 35.6745C12.4899 35.6745 12.4899 35.6745 12.4214 33.1991C12.3786 31.8886 12.3444 30.1413 12.3101 28.3854C12.293 27.5289 12.2759 26.6124 12.2502 25.7301C12.1989 26.3811 12.156 27.0406 12.1047 27.6659C11.6681 33.6873 11.6681 33.6873 11.3171 33.6873C10.9832 33.6873 10.8548 33.3104 10.598 32.4539L10.5295 32.2312C10.5039 32.137 10.4611 32.0942 10.4097 32.0942C10.3926 32.0942 10.384 32.0942 10.3754 32.0942C10.3754 32.0942 9.1684 32.0856 8.97151 32.0856C8.94582 32.0856 8.92014 32.0856 8.8859 32.0856C8.68045 32.0942 8.31234 32.1199 8.02128 31.7087C7.83295 31.4346 7.36211 30.9807 6.93408 30.9807C6.57454 30.9807 6.09515 31.349 5.74416 31.6145C5.64999 31.6916 5.55583 31.7601 5.47022 31.8201C5.01651 32.1456 4.49431 32.0942 4.35734 32.077L0.299621 32.0685C0.13697 32.0685 0 31.9314 0 31.7601C0 31.5974 0.13697 31.4603 0.299621 31.4603L4.38303 31.4689C4.40015 31.4689 4.41727 31.4689 4.43439 31.4775C4.43439 31.4775 4.81106 31.5374 5.11924 31.3233C5.19628 31.2719 5.28189 31.2034 5.37606 31.1349C5.82121 30.8008 6.36909 30.3725 6.93408 30.3725C7.64461 30.3725 8.26098 30.9978 8.51779 31.3747C8.6034 31.5032 8.66333 31.5032 8.8431 31.4946C8.8859 31.4946 8.92014 31.486 8.96295 31.486C9.14272 31.486 10.1957 31.4946 10.3498 31.4946C10.5552 31.4689 10.949 31.5631 11.1031 32.0513L11.1545 32.2055C11.2486 31.0835 11.3856 29.2762 11.5054 27.6145C11.9934 20.8907 11.9934 20.8907 12.3615 20.8907C12.7467 20.8907 12.7467 20.8907 12.9094 28.3683C12.9522 30.3126 12.995 32.4197 13.0464 33.7901C13.0977 33.5931 13.1491 33.4047 13.1919 33.2334C13.3888 32.4796 13.4658 32.1798 13.5257 32.0685C13.6456 31.8286 13.7826 31.5546 14.2106 31.5032C14.3048 31.4946 14.4674 31.4946 14.767 31.5032C15.2807 31.5117 16.3507 31.5374 16.6418 31.4004C16.7788 31.3404 17.0442 31.0578 17.2838 30.8094C17.7975 30.2698 18.3197 29.713 18.8761 29.713C19.3812 29.713 20.2629 30.4582 22.1463 32.4539C22.326 32.6424 22.4459 32.7794 22.4973 32.8222C22.6171 32.9336 22.6257 33.122 22.5144 33.2505C22.4031 33.3704 22.2148 33.379 22.0863 33.2676C22.035 33.2162 21.8895 33.0706 21.7011 32.865C19.7407 30.7837 19.073 30.3297 18.8676 30.3126C18.5765 30.3126 18.0543 30.8608 17.7119 31.2205C17.3951 31.5546 17.1298 31.8372 16.8815 31.9486C16.4963 32.1199 15.6488 32.1199 14.7413 32.1027C14.5359 32.1027 14.3219 32.0942 14.262 32.1027C14.1763 32.1113 14.1678 32.1113 14.0565 32.334C14.0223 32.4197 13.8853 32.925 13.774 33.379C13.2261 35.5032 13.1576 35.6745 12.8409 35.6745Z" fill="#B22222"/>
</g>
<path d="M90.4301 20.0287C90.8603 20.1369 91.1878 20.3232 91.4125 20.5876C91.6372 20.846 91.7495 21.1705 91.7495 21.5611C91.7495 22.114 91.5312 22.5437 91.0947 22.8501C90.6581 23.1566 90.0256 23.3099 89.1974 23.3099H86V17H89.0144C89.772 17 90.3627 17.1412 90.7865 17.4237C91.2102 17.7061 91.4221 18.1057 91.4221 18.6225C91.4221 18.9531 91.3354 19.2385 91.1621 19.4789C90.9951 19.7192 90.7512 19.9025 90.4301 20.0287ZM87.2327 19.6952H88.9085C89.313 19.6952 89.6212 19.6201 89.833 19.4699C90.0449 19.3196 90.1508 19.0973 90.1508 18.8028C90.1508 18.5084 90.0449 18.286 89.833 18.1358C89.6212 17.9795 89.313 17.9014 88.9085 17.9014H87.2327V19.6952ZM89.1589 22.4085C90.0449 22.4085 90.4879 22.096 90.4879 21.471C90.4879 20.858 90.0449 20.5515 89.1589 20.5515H87.2327V22.4085H89.1589Z" fill="#B81F21"/>
<path d="M99.9655 22.3273V23.3099H94.9093V17H99.8306V17.9825H96.1613V19.6231H99.4165V20.5876H96.1613V22.3273H99.9655Z" fill="#B81F21"/>
<path d="M107.987 17.9915H105.753V23.3099H104.51V17.9915H102.286V17H107.987V17.9915Z" fill="#B81F21"/>
<path d="M115.857 22.3273V23.3099H110.8V17H115.722V17.9825H112.052V19.6231H115.308V20.5876H112.052V22.3273H115.857Z" fill="#B81F21"/>
<path d="M121.759 17C122.344 17 122.851 17.0901 123.281 17.2704C123.718 17.4507 124.052 17.7091 124.283 18.0456C124.514 18.3822 124.629 18.7818 124.629 19.2445C124.629 19.7012 124.514 20.1008 124.283 20.4434C124.052 20.7799 123.718 21.0383 123.281 21.2186C122.851 21.3989 122.344 21.489 121.759 21.489H120.238V23.3099H118.986V17H121.759ZM121.702 20.4975C122.247 20.4975 122.661 20.3893 122.944 20.173C123.226 19.9566 123.368 19.6471 123.368 19.2445C123.368 18.8419 123.226 18.5324 122.944 18.3161C122.661 18.0997 122.247 17.9915 121.702 17.9915H120.238V20.4975H121.702Z" fill="#B81F21"/>
<path d="M127.557 17H128.79V21.48L132.411 17H133.576V23.3099H132.343V18.8389L128.722 23.3099H127.557V17Z" fill="#B81F21"/>
<path d="M143.19 17V23.3099H141.938V20.6056H138.452V23.3099H137.2V17H138.452V19.6051H141.938V17H143.19Z" fill="#B81F21"/>
<path d="M151.283 21.8496H147.913L147.248 23.3099H145.958L148.991 17H150.224L153.267 23.3099H151.958L151.283 21.8496ZM150.869 20.9301L149.598 18.1718L148.336 20.9301H150.869Z" fill="#B81F21"/>
<path d="M158.808 17C159.393 17 159.9 17.0901 160.33 17.2704C160.767 17.4507 161.1 17.7091 161.332 18.0456C161.563 18.3822 161.678 18.7818 161.678 19.2445C161.678 19.7012 161.563 20.1008 161.332 20.4434C161.1 20.7799 160.767 21.0383 160.33 21.2186C159.9 21.3989 159.393 21.489 158.808 21.489H157.287V23.3099H156.035V17H158.808ZM158.751 20.4975C159.296 20.4975 159.71 20.3893 159.993 20.173C160.275 19.9566 160.417 19.6471 160.417 19.2445C160.417 18.8419 160.275 18.5324 159.993 18.3161C159.71 18.0997 159.296 17.9915 158.751 17.9915H157.287V20.4975H158.751Z" fill="#B81F21"/>
<path d="M170.587 17V23.3099H169.335V20.6056H165.848V23.3099H164.596V17H165.848V19.6051H169.335V17H170.587Z" fill="#B81F21"/>
<path d="M178.68 21.8496H175.309L174.645 23.3099H173.354L176.388 17H177.62L180.664 23.3099H179.354L178.68 21.8496ZM178.266 20.9301L176.994 18.1718L175.733 20.9301H178.266Z" fill="#B81F21"/>
<path d="M188.245 17V23.3099H187.012V21.5521H185.346H185.211L183.959 23.3099H182.64L184.085 21.3628C183.616 21.2006 183.253 20.9452 182.996 20.5966C182.746 20.2421 182.621 19.8154 182.621 19.3166C182.621 18.8359 182.736 18.4212 182.967 18.0727C183.198 17.7241 183.526 17.4597 183.95 17.2794C184.373 17.0931 184.871 17 185.442 17H188.245ZM185.481 17.9915C184.967 17.9915 184.572 18.1027 184.296 18.3251C184.027 18.5474 183.892 18.8719 183.892 19.2986C183.892 19.7132 184.024 20.0347 184.287 20.2631C184.55 20.4854 184.932 20.5966 185.433 20.5966H187.012V17.9915H185.481Z" fill="#B81F21"/>
<path d="M198.76 20.6507H197.508V23.3099H196.275V17H197.508V19.6411H198.798L200.734 17H202.063L199.761 20.0558L202.15 23.3099H200.734L198.76 20.6507Z" fill="#B81F21"/>
<path d="M210.652 17V23.3099H209.419V17.9915H206.761L206.704 19.569C206.671 20.4524 206.594 21.1705 206.472 21.7234C206.35 22.2702 206.155 22.6879 205.885 22.9763C205.615 23.2588 205.243 23.4 204.768 23.4C204.601 23.4 204.373 23.37 204.084 23.3099L204.171 22.2913C204.254 22.3153 204.35 22.3273 204.46 22.3273C204.851 22.3273 205.127 22.111 205.288 21.6783C205.455 21.2396 205.557 20.5515 205.596 19.6141L205.692 17H210.652Z" fill="#B81F21"/>
<path d="M214.292 17H215.525V21.48L219.146 17H220.311V23.3099H219.078V18.8389L215.457 23.3099H214.292V17Z" fill="#B81F21"/>
<path d="M229.925 17V23.3099H228.673V20.6056H225.187V23.3099H223.935V17H225.187V19.6051H228.673V17H229.925Z" fill="#B81F21"/>
<path d="M233.559 17H234.792V21.48L238.413 17H239.578V23.3099H238.346V18.8389L234.725 23.3099H233.559V17Z" fill="#B81F21"/>
<path d="M245.687 20.6507H244.435V23.3099H243.202V17H244.435V19.6411H245.725L247.661 17H248.99L246.688 20.0558L249.077 23.3099H247.661L245.687 20.6507Z" fill="#B81F21"/>
<path d="M256.016 21.8496H252.645L251.981 23.3099H250.69L253.724 17H254.957L258 23.3099H256.69L256.016 21.8496ZM255.602 20.9301L254.331 18.1718L253.069 20.9301H255.602Z" fill="#B81F21"/>
<path d="M90.9779 41.3979H88.4697V46.3926H86V34.5408H88.4697V39.5016H91.0551L94.9333 34.5408H97.5959L92.9846 40.2805L97.7696 46.3926H94.9333L90.9779 41.3979Z" fill="#B81F21"/>
<path d="M107.808 46.5619C106.432 46.5619 105.191 46.3023 104.084 45.7831C102.978 45.2526 102.11 44.5245 101.48 43.599C100.849 42.6621 100.534 41.618 100.534 40.4667C100.534 39.3154 100.849 38.2769 101.48 37.3514C102.11 36.4145 102.978 35.6865 104.084 35.1672C105.191 34.6367 106.432 34.3715 107.808 34.3715C109.185 34.3715 110.426 34.6367 111.532 35.1672C112.638 35.6865 113.506 36.4088 114.137 37.3344C114.767 38.26 115.082 39.3041 115.082 40.4667C115.082 41.6293 114.767 42.6734 114.137 43.599C113.506 44.5245 112.638 45.2526 111.532 45.7831C110.426 46.3023 109.185 46.5619 107.808 46.5619ZM107.808 44.6318C108.709 44.6318 109.519 44.4568 110.239 44.1069C110.96 43.7457 111.526 43.2491 111.937 42.617C112.349 41.9736 112.555 41.2568 112.555 40.4667C112.555 39.6766 112.349 38.9655 111.937 38.3334C111.526 37.69 110.96 37.1933 110.239 36.8434C109.519 36.4822 108.709 36.3016 107.808 36.3016C106.908 36.3016 106.097 36.4822 105.377 36.8434C104.657 37.1933 104.091 37.69 103.679 38.3334C103.268 38.9655 103.062 39.6766 103.062 40.4667C103.062 41.2568 103.268 41.9736 103.679 42.617C104.091 43.2491 104.657 43.7457 105.377 44.1069C106.097 44.4568 106.908 44.6318 107.808 44.6318Z" fill="#B81F21"/>
<path d="M125.534 34.5408C126.705 34.5408 127.721 34.7101 128.583 35.0487C129.458 35.3873 130.127 35.8727 130.59 36.5048C131.053 37.1369 131.284 37.8875 131.284 38.7566C131.284 39.6145 131.053 40.3651 130.59 41.0085C130.127 41.6406 129.458 42.126 128.583 42.4646C127.721 42.8032 126.705 42.9725 125.534 42.9725H122.486V46.3926H119.978V34.5408H125.534ZM125.419 41.1101C126.512 41.1101 127.342 40.9069 127.908 40.5006C128.474 40.0942 128.757 39.5129 128.757 38.7566C128.757 38.0004 128.474 37.4191 127.908 37.0127C127.342 36.6064 126.512 36.4032 125.419 36.4032H122.486V41.1101H125.419Z" fill="#B81F21"/>
<path d="M144.674 40.2297C145.536 40.4328 146.192 40.7827 146.642 41.2794C147.092 41.7648 147.318 42.3743 147.318 43.108C147.318 44.1464 146.88 44.9535 146.006 45.5291C145.131 46.1048 143.864 46.3926 142.205 46.3926H135.799V34.5408H141.838C143.356 34.5408 144.539 34.806 145.388 35.3365C146.237 35.8671 146.662 36.6177 146.662 37.5884C146.662 38.2092 146.488 38.7454 146.141 39.1969C145.806 39.6484 145.317 39.9926 144.674 40.2297ZM138.268 39.6032H141.626C142.436 39.6032 143.053 39.4621 143.478 39.1799C143.902 38.8977 144.115 38.4801 144.115 37.927C144.115 37.3739 143.902 36.9563 143.478 36.6741C143.053 36.3806 142.436 36.2339 141.626 36.2339H138.268V39.6032ZM142.127 44.6995C143.902 44.6995 144.79 44.1126 144.79 42.9387C144.79 41.7873 143.902 41.2117 142.127 41.2117H138.268V44.6995H142.127Z" fill="#B81F21"/>
<path d="M162.427 44.5471V46.3926H152.297V34.5408H162.157V36.3863H154.806V39.4678H161.327V41.2794H154.806V44.5471H162.427Z" fill="#B81F21"/>
<path d="M177.147 36.4032H172.671V46.3926H170.182V36.4032H165.725V34.5408H177.147V36.4032Z" fill="#B81F21"/>
<path d="M195.228 44.5302V49H192.913V46.3926H181.452V34.5408H183.922V44.5302H190.732V34.5408H193.221V44.5302H195.228Z" fill="#B81F21"/>
<path d="M209.776 44.5471V46.3926H199.646V34.5408H209.506V36.3863H202.154V39.4678H208.676V41.2794H202.154V44.5471H209.776Z" fill="#B81F21"/>
<path d="M226.695 34.5408V46.3926H224.187V41.3133H217.202V46.3926H214.694V34.5408H217.202V39.4339H224.187V34.5408H226.695Z" fill="#B81F21"/>
<path d="M242.408 36.4032H237.932V46.3926H235.443V36.4032H230.986V34.5408H242.408V36.4032Z" fill="#B81F21"/>
<path d="M252.25 34.5408C253.421 34.5408 254.437 34.7101 255.299 35.0487C256.173 35.3873 256.842 35.8727 257.305 36.5048C257.768 37.1369 258 37.8875 258 38.7566C258 39.6145 257.768 40.3651 257.305 41.0085C256.842 41.6406 256.173 42.126 255.299 42.4646C254.437 42.8032 253.421 42.9725 252.25 42.9725H249.202V46.3926H246.694V34.5408H252.25ZM252.135 41.1101C253.228 41.1101 254.058 40.9069 254.623 40.5006C255.189 40.0942 255.472 39.5129 255.472 38.7566C255.472 38.0004 255.189 37.4191 254.623 37.0127C254.058 36.6064 253.228 36.4032 252.135 36.4032H249.202V41.1101H252.135Z" fill="#B81F21"/>
<defs>
<clipPath id="clip0">
<rect width="70" height="60" fill="white"/>
</clipPath>
</defs>
</svg>
