<svg width="44" height="44" viewBox="0 0 44 44" fill="none" xmlns="http://www.w3.org/2000/svg">
<g clip-path="url(#clip0)">
<path d="M16.8658 20.5344V11.7354L16.1325 11.0021H13.9327L11.733 12.4686L10.2665 11.0021L13.9327 5.86933H16.8658L18.3323 8.80234H27.1313L28.5978 5.86933H30.7976L33.7306 10.2689L32.2641 12.4686L30.0643 11.0021H28.5978L27.1313 12.4686V22.7342H28.5978L30.7976 20.5344L32.9973 24.2007V25.8769V27.8669C32.902 28.1837 32.6058 29.0409 31.8945 29.8563C31.6027 30.1914 31.2478 30.5191 30.7976 30.8C29.9323 31.3389 29.0928 31.487 28.5978 31.5332L30.0643 32.9997H32.0734L36.1877 28.6002C42.1315 22.182 44.5182 15.1802 42.6279 9.92422C41.3704 6.42733 37.292 1.11931 31.2669 0.765879C26.5645 0.490175 23.028 4.97182 21.9985 5.88766L21.9237 5.86933C20.8942 4.95276 17.4326 0.471844 12.7302 0.747547C6.70505 1.10098 2.62669 6.409 1.36916 9.90589C-0.308524 14.5716 1.38456 20.6129 5.94247 26.4012L7.60769 28.7007C10.2298 22.7254 16.0834 20.7778 16.8658 20.5344Z" fill="#B81F21"/>
<path d="M21.2653 43.2653H24.1983V37.3971V31.5333C23.7033 31.4871 22.8638 31.339 21.9985 30.8C21.695 30.6108 21.442 30.3975 21.2125 30.1782C20.2732 29.2778 19.9066 28.2263 19.7988 27.867V27.5165V25.877V24.2007L21.9985 20.5345L24.1983 22.7342H27.1313V12.4687L28.5978 11.0022H30.0643L32.2641 12.4687L33.7306 10.2689L30.7976 5.86938H28.5978L27.1313 8.8024H18.3323L16.8657 5.86938H13.9327L10.2665 11.0022L11.733 12.4687L13.9327 11.0022H16.1325L16.8657 11.7354V20.5345C16.0834 20.7779 10.2298 22.7254 7.60768 28.7C7.51603 28.9104 7.41704 29.1128 7.33345 29.3335C5.49591 34.1613 6.90449 38.4317 7.33345 39.5991L3.66718 37.3993V34.4663C3.66718 33.2579 2.28719 32.5679 1.32076 33.2931C0.951205 33.5703 0.734161 34.0043 0.734161 34.4663V39.5991L6.60019 43.2653H21.2653Z" fill="#F4CD57"/>
<path d="M28.5978 31.5332C29.0927 31.487 29.9323 31.3389 30.7976 30.8C31.2478 30.5191 31.6027 30.1914 31.8945 29.8563C32.6058 29.0409 32.902 28.1837 32.9973 27.867V25.8769V24.2007L30.7976 20.5344L28.5978 22.7342H27.1313H24.1983L21.9985 20.5344L19.7988 24.2007V25.8769V27.5165V27.867C19.9065 28.2263 20.2732 29.2777 21.2125 30.1782C21.442 30.3974 21.6949 30.6108 21.9985 30.8C22.8638 31.3389 23.7033 31.487 24.1983 31.5332V37.3971V43.2653H27.8645H32.2641H39.5966L42.5296 41.7988C42.6161 41.6426 44.1472 38.7675 42.5296 35.9328C41.1115 33.447 38.4425 33.0415 38.1301 32.9997H32.0734H30.0643L28.5978 31.5332Z" fill="#EAEAEA"/>
<path d="M3.18489 32.4991C2.43403 32.1236 1.5512 32.2043 0.88027 32.7073C0.329596 33.1209 0.00109863 33.7786 0.00109863 34.4664V39.5991C0.00109863 39.8521 0.131618 40.0868 0.345728 40.221L6.21176 43.8872C6.32835 43.9598 6.46253 43.9987 6.60038 43.9987H21.2655H24.1985H39.5968C39.7105 43.9987 39.8234 43.9723 39.9246 43.9217L42.8576 42.4552C42.9903 42.3892 43.0988 42.2843 43.1707 42.1553C43.2469 42.0189 45.0009 38.7838 43.1663 35.5699C41.6184 32.8554 38.7814 32.3473 38.2278 32.2732C38.1956 32.2688 38.1633 32.2666 38.1303 32.2666H30.3681L30.0608 31.9594C30.4561 31.8215 30.8344 31.6411 31.1849 31.4226C31.5449 31.1983 31.8507 30.946 32.1213 30.6843L34.9956 31.5055L35.3982 30.0955L33.0987 29.4385C33.4023 28.92 33.5929 28.4324 33.6992 28.079C33.7198 28.0101 33.7308 27.9389 33.7308 27.8671V26.3603L35.4862 25.6079L34.9091 24.2602L33.7308 24.7654V24.2008C33.7308 24.0681 33.6948 23.9376 33.6259 23.8232L31.4262 20.1569C31.3103 19.9634 31.1109 19.8343 30.8872 19.8064C30.6665 19.7822 30.4399 19.8556 30.2794 20.0161L28.2944 22.0011H27.8647V12.7723L28.9016 11.7355H29.8423L31.8573 13.0788C32.1946 13.3039 32.6492 13.2123 32.8743 12.8757L34.3408 10.676C34.5051 10.4296 34.5051 10.1092 34.3408 9.86278L31.4078 5.46326C31.2714 5.25868 31.0427 5.13623 30.7978 5.13623H28.598C28.3201 5.13623 28.0664 5.29315 27.9417 5.54172L26.6783 8.06925H18.7856L17.5215 5.54172C17.3975 5.29315 17.1438 5.13623 16.8659 5.13623H13.9329C13.6961 5.13623 13.4739 5.25062 13.3368 5.44346L9.67052 10.5762C9.46227 10.8673 9.49527 11.267 9.74824 11.5207L11.2147 12.9872C11.4619 13.235 11.849 13.2717 12.1401 13.0788L14.1551 11.7355H15.8291L16.1327 12.0391V20.0095C14.1969 20.7127 8.9116 23.1251 6.64804 29.0733C5.31279 32.5826 5.60902 35.8588 6.10104 38.0051L4.40062 36.9844V34.4664C4.40062 33.6275 3.93427 32.8737 3.18489 32.4991ZM28.598 23.4676C28.793 23.4676 28.9793 23.3906 29.1164 23.2527L30.6526 21.7173L32.2643 24.4039V25.3938L29.7756 26.46L30.3527 27.8077L32.2643 26.9887V27.7549C32.1543 28.0929 31.957 28.5534 31.6293 29.0183L30.2662 28.6289L29.8636 30.039L30.3901 30.1893C29.8306 30.5332 29.2059 30.7407 28.5305 30.8038C28.2475 30.8302 28.0048 31.0179 27.9087 31.2848C27.812 31.5524 27.8787 31.8509 28.0796 32.0518L29.5461 33.5183C29.6832 33.6561 29.8695 33.7331 30.0645 33.7331H38.0782C38.4977 33.7969 40.7143 34.2288 41.8934 36.2966C43.1003 38.412 42.2754 40.6066 41.9813 41.2534L39.4238 42.5322H32.7922L32.2643 40.9469V39.0881L33.2028 37.6802C33.3194 37.5042 33.5159 37.3994 33.7264 37.3994C34.0431 37.3994 34.2059 37.6084 34.2609 37.6978C34.3166 37.788 34.4303 38.0271 34.2888 38.3094L33.8078 39.2714C33.667 39.5537 33.722 39.8946 33.9456 40.1176L34.6789 40.8508C34.816 40.9887 35.0022 41.0657 35.1973 41.0657H38.8636V39.5991H35.5009L35.3564 39.4547L35.6013 38.9656C35.9283 38.3116 35.8931 37.549 35.5089 36.9272C35.1247 36.3054 34.4574 35.9329 33.7264 35.9329C33.0247 35.9329 32.3728 36.2819 31.9827 36.8656L30.9209 38.4589C30.841 38.5799 30.7978 38.7214 30.7978 38.8659V41.0657C30.7978 41.1441 30.811 41.2226 30.8359 41.2974L31.2472 42.5322H28.598V37.3994H27.1315V42.5322H24.9317V37.3972V31.5334C24.9317 31.155 24.6436 30.8382 24.2667 30.803C23.7299 30.7532 23.2262 30.6095 22.7606 30.3807L23.7233 30.0199L23.2078 28.6465L21.404 29.3233C20.9282 28.7617 20.6664 28.1677 20.5322 27.7549V27.5159V26.9879L22.4431 27.807L23.0201 26.4592L20.5322 25.3938V24.4039L22.1439 21.7173L23.6801 23.2527C23.8172 23.3906 24.0034 23.4676 24.1985 23.4676H27.1315H28.598ZM6.95601 40.2276C7.22218 40.3874 7.56095 40.3625 7.80072 40.1638C8.03976 39.965 8.12848 39.638 8.02143 39.3462C7.47296 37.8533 6.37454 33.9142 8.0185 29.5939C8.12628 29.3101 8.24874 29.0432 8.37119 28.7771L8.37266 28.7778C10.8415 23.4126 16.0616 21.5523 17.0837 21.2341C17.3909 21.1395 17.5992 20.8557 17.5992 20.5346V11.7355C17.5992 11.5412 17.5222 11.3542 17.3843 11.2171L16.6511 10.4838C16.514 10.346 16.3277 10.269 16.1327 10.269H13.9329C13.7885 10.269 13.6462 10.3123 13.526 10.3922L11.8263 11.5251L11.2243 10.9231L14.3105 6.60274H16.4128L17.6769 9.13026C17.8008 9.37884 18.0545 9.53575 18.3324 9.53575H27.1315C27.4094 9.53575 27.6631 9.37884 27.7878 9.13026L29.0511 6.60274H30.4055L32.8494 10.269L32.0612 11.4517L30.4715 10.3922C30.3512 10.3123 30.209 10.269 30.0645 10.269H28.598C28.403 10.269 28.2167 10.346 28.0796 10.4838L26.6131 11.9504C26.4752 12.0875 26.3982 12.2745 26.3982 12.4688V22.0011H24.502L22.5171 20.0161C22.3573 19.8556 22.1322 19.78 21.9093 19.8064C21.6849 19.8343 21.4862 19.9634 21.3703 20.1569L19.1706 23.8232C19.1016 23.9376 19.0657 24.0681 19.0657 24.2008V24.7654L17.8881 24.261L17.311 25.6087L19.0657 26.3603V27.5166V27.8671C19.0657 27.9389 19.0767 28.0101 19.0972 28.079C19.2321 28.5278 19.4983 29.1891 19.9713 29.8608L17.3418 30.847L17.8573 32.2204L21.0499 31.023C21.2229 31.1623 21.4099 31.2965 21.6123 31.4226C22.1747 31.7731 22.8053 32.0239 23.466 32.1632V36.6617L19.1236 36.6478L19.1192 38.1143L23.4652 38.1282V42.5322H21.9987C21.9987 40.9146 20.6833 39.5991 19.0657 39.5991H17.5992C17.5992 35.9607 14.639 32.9999 10.9999 32.9999H10.2667V34.4664H10.9999C13.8295 34.4664 16.1327 36.7688 16.1327 39.5991V40.3324C16.1327 40.7372 16.4604 41.0657 16.8659 41.0657H19.0657C19.8745 41.0657 20.5322 41.7234 20.5322 42.5322H6.81083L1.46761 39.1929V34.4664C1.46761 34.2369 1.57686 34.0176 1.76017 33.8798C1.98748 33.7097 2.27419 33.6833 2.52862 33.8108C2.78233 33.9377 2.93411 34.1826 2.93411 34.4664V37.3994C2.93411 37.6568 3.06977 37.8958 3.28974 38.0278L6.95601 40.2276Z" fill="#2D2D2D"/>
<path d="M6.51899 25.9479C2.096 20.3312 0.470374 14.5744 2.06007 10.1544C3.24794 6.85034 7.08212 1.81361 12.7736 1.47998C16.4472 1.27394 19.3795 4.30814 20.7881 5.77099C21.0572 6.04962 21.275 6.27473 21.4363 6.41772C21.525 6.49691 21.6328 6.55337 21.7479 6.58196L21.8235 6.6003C22.0574 6.65822 22.3067 6.59736 22.4871 6.43605C22.6432 6.29746 22.8537 6.08189 23.114 5.81425C24.546 4.34334 27.5355 1.28934 31.2245 1.49758C36.9168 1.83195 40.7502 6.86867 41.9381 10.1727C43.7456 15.197 41.3947 21.8996 35.6504 28.1022L36.7261 29.0987C42.8503 22.4862 45.3147 15.2256 43.3188 9.6763C41.9982 6.00636 37.7116 0.409434 31.3103 0.0340078C26.9592 -0.227764 23.6471 3.16427 22.0625 4.79209C22.0317 4.82362 22.0009 4.85515 21.9716 4.88522C21.9305 4.84342 21.8887 4.79942 21.844 4.75323C20.2836 3.13274 17.0118 -0.246095 12.6879 0.0164097C6.28654 0.391836 1.99994 5.98803 0.679352 9.6587C-1.08412 14.5642 0.623624 20.832 5.36558 26.855L6.51899 25.9479Z" fill="#2D2D2D"/>
<path d="M20.5321 12.4688H19.0656V13.9353H20.5321V12.4688Z" fill="#2D2D2D"/>
<path d="M24.9318 12.4688H23.4653V13.9353H24.9318V12.4688Z" fill="#2D2D2D"/>
<path d="M23.4653 15.4016H20.5323V16.8681H23.4653V15.4016Z" fill="#2D2D2D"/>
<path d="M24.9318 24.9341H23.4653V26.4006H24.9318V24.9341Z" fill="#2D2D2D"/>
<path d="M29.3312 24.9341H27.8647V26.4006H29.3312V24.9341Z" fill="#2D2D2D"/>
<path d="M27.1314 27.1338H25.6649V28.6003H27.1314V27.1338Z" fill="#2D2D2D"/>
</g>
<defs>
<clipPath id="clip0">
<rect width="44" height="44" fill="white"/>
</clipPath>
</defs>
</svg>
