<svg width="175" height="36" viewBox="0 0 175 36" fill="none" xmlns="http://www.w3.org/2000/svg">
<path d="M4.5074 3.40732C4.94508 3.52901 5.27823 3.73859 5.50687 4.03605C5.73551 4.32676 5.84983 4.69183 5.84983 5.13126C5.84983 5.75324 5.62772 6.23662 5.18351 6.58141C4.73931 6.92619 4.09586 7.09859 3.25317 7.09859H0V0H3.06699C3.83783 0 4.43881 0.158873 4.86996 0.476619C5.3011 0.794366 5.51667 1.24394 5.51667 1.82535C5.51667 2.19718 5.42848 2.51831 5.25211 2.78873C5.08226 3.05915 4.83403 3.26535 4.5074 3.40732ZM1.25423 3.03211H2.95921C3.37075 3.03211 3.68431 2.9476 3.89988 2.77859C4.11546 2.60958 4.22324 2.35944 4.22324 2.02817C4.22324 1.6969 4.11546 1.44676 3.89988 1.27775C3.68431 1.10197 3.37075 1.01408 2.95921 1.01408H1.25423V3.03211ZM3.21397 6.0845C4.11546 6.0845 4.5662 5.73296 4.5662 5.02986C4.5662 4.34028 4.11546 3.99549 3.21397 3.99549H1.25423V6.0845H3.21397Z" fill="#B81F21"/>
<path d="M14.209 5.99324V7.09859H9.06472V0H14.0719V1.10535H10.3386V2.95098H13.6505V4.03605H10.3386V5.99324H14.209Z" fill="#B81F21"/>
<path d="M22.3706 1.11549H20.0973V7.09859H18.8333V1.11549H16.5698V0H22.3706V1.11549Z" fill="#B81F21"/>
<path d="M30.3773 5.99324V7.09859H25.233V0H30.2401V1.10535H26.5068V2.95098H29.8188V4.03605H26.5068V5.99324H30.3773Z" fill="#B81F21"/>
<path d="M36.3831 0C36.9776 0 37.4936 0.101408 37.9313 0.304225C38.3755 0.507042 38.7152 0.797746 38.9504 1.17634C39.1855 1.55493 39.3031 2.00451 39.3031 2.52507C39.3031 3.03887 39.1855 3.48845 38.9504 3.8738C38.7152 4.25239 38.3755 4.5431 37.9313 4.74591C37.4936 4.94873 36.9776 5.05014 36.3831 5.05014H34.8349V7.09859H33.5611V0H36.3831ZM36.3243 3.93465C36.8796 3.93465 37.3009 3.81296 37.5884 3.56958C37.8758 3.3262 38.0195 2.97803 38.0195 2.52507C38.0195 2.07211 37.8758 1.72394 37.5884 1.48056C37.3009 1.23718 36.8796 1.11549 36.3243 1.11549H34.8349V3.93465H36.3243Z" fill="#B81F21"/>
<path d="M42.2818 0H43.536V5.04L47.2203 0H48.406V7.09859H47.1517V2.06873L43.4674 7.09859H42.2818V0Z" fill="#B81F21"/>
<path d="M58.1877 0V7.09859H56.9139V4.05634H53.3667V7.09859H52.0929V0H53.3667V2.9307H56.9139V0H58.1877Z" fill="#B81F21"/>
<path d="M66.4221 5.45577H62.9926L62.3165 7.09859H61.0034L64.09 0H65.3443L68.4407 7.09859H67.108L66.4221 5.45577ZM66.0008 4.42141L64.7073 1.31831L63.4237 4.42141H66.0008Z" fill="#B81F21"/>
<path d="M74.0783 0C74.6727 0 75.1888 0.101408 75.6265 0.304225C76.0707 0.507042 76.4104 0.797746 76.6455 1.17634C76.8807 1.55493 76.9983 2.00451 76.9983 2.52507C76.9983 3.03887 76.8807 3.48845 76.6455 3.8738C76.4104 4.25239 76.0707 4.5431 75.6265 4.74591C75.1888 4.94873 74.6727 5.05014 74.0783 5.05014H72.5301V7.09859H71.2563V0H74.0783ZM74.0195 3.93465C74.5747 3.93465 74.9961 3.81296 75.2835 3.56958C75.5709 3.3262 75.7147 2.97803 75.7147 2.52507C75.7147 2.07211 75.5709 1.72394 75.2835 1.48056C74.9961 1.23718 74.5747 1.11549 74.0195 1.11549H72.5301V3.93465H74.0195Z" fill="#B81F21"/>
<path d="M86.0619 0V7.09859H84.7881V4.05634H81.241V7.09859H79.9671V0H81.241V2.9307H84.7881V0H86.0619Z" fill="#B81F21"/>
<path d="M94.2964 5.45577H90.8668L90.1907 7.09859H88.8777L91.9643 0H93.2185L96.3149 7.09859H94.9823L94.2964 5.45577ZM93.875 4.42141L92.5816 1.31831L91.298 4.42141H93.875Z" fill="#B81F21"/>
<path d="M104.028 0V7.09859H102.774V5.12112H101.079H100.942L99.6679 7.09859H98.3255L99.7953 4.90817C99.3184 4.72563 98.9493 4.43831 98.688 4.0462C98.4333 3.64732 98.3059 3.16732 98.3059 2.6062C98.3059 2.06535 98.4235 1.59887 98.6586 1.20676C98.8938 0.814647 99.227 0.517183 99.6581 0.314366C100.089 0.104789 100.596 0 101.177 0H104.028ZM101.216 1.11549C100.693 1.11549 100.292 1.24056 100.011 1.4907C99.7365 1.74084 99.5993 2.10591 99.5993 2.58591C99.5993 3.05239 99.7332 3.41408 100.001 3.67098C100.269 3.92113 100.658 4.0462 101.167 4.0462H102.774V1.11549H101.216Z" fill="#B81F21"/>
<path d="M114.726 4.10704H113.453V7.09859H112.198V0H113.453V2.97127H114.766L116.735 0H118.087L115.745 3.43775L118.176 7.09859H116.735L114.726 4.10704Z" fill="#B81F21"/>
<path d="M126.826 0V7.09859H125.572V1.11549H122.868L122.809 2.89014C122.776 3.88394 122.698 4.69183 122.574 5.3138C122.45 5.92901 122.25 6.39887 121.976 6.72338C121.702 7.04112 121.323 7.2 120.839 7.2C120.669 7.2 120.438 7.16619 120.144 7.09859L120.232 5.95267C120.317 5.97972 120.415 5.99324 120.526 5.99324C120.924 5.99324 121.205 5.74986 121.368 5.2631C121.538 4.76958 121.643 3.99549 121.682 2.94084L121.78 0H126.826Z" fill="#B81F21"/>
<path d="M130.529 0H131.784V5.04L135.468 0H136.654V7.09859H135.399V2.06873L131.715 7.09859H130.529V0Z" fill="#B81F21"/>
<path d="M146.435 0V7.09859H145.161V4.05634H141.614V7.09859H140.341V0H141.614V2.9307H145.161V0H146.435Z" fill="#B81F21"/>
<path d="M150.133 0H151.387V5.04L155.072 0H156.257V7.09859H155.003V2.06873L151.319 7.09859H150.133V0Z" fill="#B81F21"/>
<path d="M162.472 4.10704H161.198V7.09859H159.944V0H161.198V2.97127H162.511L164.481 0H165.833L163.491 3.43775L165.921 7.09859H164.481L162.472 4.10704Z" fill="#B81F21"/>
<path d="M172.981 5.45577H169.552L168.876 7.09859H167.563L170.649 0H171.904L175 7.09859H173.667L172.981 5.45577ZM172.56 4.42141L171.267 1.31831L169.983 4.42141H172.56Z" fill="#B81F21"/>
<path d="M5.06477 27.4477H2.51276V33.0668H0V19.7334H2.51276V25.3144H5.1433L9.08911 19.7334H11.7982L7.10639 26.1906L11.9749 33.0668H9.08911L5.06477 27.4477Z" fill="#B81F21"/>
<path d="M22.1886 33.2572C20.7883 33.2572 19.5253 32.9652 18.3998 32.3811C17.2743 31.7842 16.3909 30.9652 15.7497 29.9239C15.1084 28.8699 14.7877 27.6953 14.7877 26.4001C14.7877 25.1049 15.1084 23.9366 15.7497 22.8953C16.3909 21.8414 17.2743 21.0223 18.3998 20.4382C19.5253 19.8414 20.7883 19.543 22.1886 19.543C23.5889 19.543 24.8519 19.8414 25.9774 20.4382C27.1029 21.0223 27.9863 21.835 28.6275 22.8763C29.2688 23.9176 29.5895 25.0922 29.5895 26.4001C29.5895 27.708 29.2688 28.8826 28.6275 29.9239C27.9863 30.9652 27.1029 31.7842 25.9774 32.3811C24.8519 32.9652 23.5889 33.2572 22.1886 33.2572ZM22.1886 31.0858C23.1047 31.0858 23.9292 30.889 24.6621 30.4953C25.395 30.089 25.9708 29.5303 26.3896 28.8192C26.8084 28.0953 27.0178 27.289 27.0178 26.4001C27.0178 25.5112 26.8084 24.7112 26.3896 24.0001C25.9708 23.2763 25.395 22.7176 24.6621 22.3239C23.9292 21.9176 23.1047 21.7144 22.1886 21.7144C21.2725 21.7144 20.448 21.9176 19.7151 22.3239C18.9822 22.7176 18.4064 23.2763 17.9876 24.0001C17.5688 24.7112 17.3594 25.5112 17.3594 26.4001C17.3594 27.289 17.5688 28.0953 17.9876 28.8192C18.4064 29.5303 18.9822 30.089 19.7151 30.4953C20.448 30.889 21.2725 31.0858 22.1886 31.0858Z" fill="#B81F21"/>
<path d="M40.224 19.7334C41.415 19.7334 42.4489 19.9239 43.3257 20.3049C44.2157 20.6858 44.8962 21.2319 45.3673 21.943C45.8385 22.6541 46.074 23.4985 46.074 24.4763C46.074 25.4414 45.8385 26.2858 45.3673 27.0096C44.8962 27.7207 44.2157 28.2668 43.3257 28.6477C42.4489 29.0287 41.415 29.2192 40.224 29.2192H37.1224V33.0668H34.5703V19.7334H40.224ZM40.1063 27.1239C41.2187 27.1239 42.0628 26.8953 42.6386 26.4382C43.2145 25.9811 43.5024 25.3271 43.5024 24.4763C43.5024 23.6255 43.2145 22.9715 42.6386 22.5144C42.0628 22.0573 41.2187 21.8287 40.1063 21.8287H37.1224V27.1239H40.1063Z" fill="#B81F21"/>
<path d="M59.6976 26.1334C60.5744 26.362 61.2419 26.7557 61.6999 27.3144C62.158 27.8604 62.387 28.5461 62.387 29.3715C62.387 30.5398 61.942 31.4477 61.0521 32.0953C60.1622 32.743 58.8731 33.0668 57.1848 33.0668H50.6674V19.7334H56.8118C58.3561 19.7334 59.5602 20.0319 60.4239 20.6287C61.2877 21.2255 61.7196 22.07 61.7196 23.162C61.7196 23.8604 61.5429 24.4636 61.1895 24.9715C60.8493 25.4795 60.3519 25.8668 59.6976 26.1334ZM53.1801 25.4287H56.5959C57.4204 25.4287 58.0486 25.27 58.4805 24.9525C58.9123 24.635 59.1283 24.1652 59.1283 23.543C59.1283 22.9207 58.9123 22.4509 58.4805 22.1334C58.0486 21.8033 57.4204 21.6382 56.5959 21.6382H53.1801V25.4287ZM57.1063 31.162C58.9123 31.162 59.8154 30.5017 59.8154 29.1811C59.8154 27.8858 58.9123 27.2382 57.1063 27.2382H53.1801V31.162H57.1063Z" fill="#B81F21"/>
<path d="M77.7599 30.9906V33.0668H67.4536V19.7334H77.485V21.8096H70.0057V25.2763H76.6409V27.3144H70.0057V30.9906H77.7599Z" fill="#B81F21"/>
<path d="M92.7367 21.8287H88.1823V33.0668H85.6499V21.8287H81.1152V19.7334H92.7367V21.8287Z" fill="#B81F21"/>
<path d="M111.133 30.9715V36.0001H108.777V33.0668H97.1167V19.7334H99.6294V30.9715H106.559V19.7334H109.092V30.9715H111.133Z" fill="#B81F21"/>
<path d="M125.935 30.9906V33.0668H115.628V19.7334H125.66V21.8096H118.18V25.2763H124.816V27.3144H118.18V30.9906H125.935Z" fill="#B81F21"/>
<path d="M143.149 19.7334V33.0668H140.597V27.3525H133.491V33.0668H130.939V19.7334H133.491V25.2382H140.597V19.7334H143.149Z" fill="#B81F21"/>
<path d="M159.136 21.8287H154.582V33.0668H152.049V21.8287H147.514V19.7334H159.136V21.8287Z" fill="#B81F21"/>
<path d="M169.15 19.7334C170.341 19.7334 171.375 19.9239 172.252 20.3049C173.142 20.6858 173.822 21.2319 174.293 21.943C174.764 22.6541 175 23.4985 175 24.4763C175 25.4414 174.764 26.2858 174.293 27.0096C173.822 27.7207 173.142 28.2668 172.252 28.6477C171.375 29.0287 170.341 29.2192 169.15 29.2192H166.048V33.0668H163.496V19.7334H169.15ZM169.032 27.1239C170.145 27.1239 170.989 26.8953 171.565 26.4382C172.14 25.9811 172.428 25.3271 172.428 24.4763C172.428 23.6255 172.14 22.9715 171.565 22.5144C170.989 22.0573 170.145 21.8287 169.032 21.8287H166.048V27.1239H169.032Z" fill="#B81F21"/>
</svg>
