<svg width="432" height="431" viewBox="0 0 432 431" fill="none" xmlns="http://www.w3.org/2000/svg">
<path d="M225.488 200.312C226.076 200.312 226.664 200.312 227.4 200.458C231.518 200.899 236.372 204.714 236.813 212.051V214.546C236.225 221.443 230.783 230.101 215.338 240.667C200.041 229.661 194.893 221.003 194.305 214.106V211.611C194.893 204.274 199.747 200.605 204.013 200.165C204.748 200.165 205.336 200.018 205.925 200.018C210.779 200.018 212.985 202.219 215.633 205.301C218.427 202.366 220.781 200.312 225.488 200.312Z" fill="#B22222"/>
<path d="M216.074 390.497C312.906 390.497 391.404 312.181 391.404 215.573C391.404 118.966 312.906 40.6494 216.074 40.6494C119.242 40.6494 40.7441 118.966 40.7441 215.573C40.7441 312.181 119.242 390.497 216.074 390.497Z" stroke="#B62121" stroke-width="0.75" stroke-miterlimit="10" stroke-dasharray="8.07 8.07"/>
<path d="M216.074 370.393C301.777 370.393 371.253 301.078 371.253 215.573C371.253 130.069 301.777 60.7539 216.074 60.7539C130.371 60.7539 60.8955 130.069 60.8955 215.573C60.8955 301.078 130.371 370.393 216.074 370.393Z" stroke="#B52121" stroke-width="0.75" stroke-miterlimit="10" stroke-dasharray="9.07 9.07"/>
<path d="M216.073 350.288C290.647 350.288 351.101 289.974 351.101 215.573C351.101 141.172 290.647 80.8584 216.073 80.8584C141.5 80.8584 81.0459 141.172 81.0459 215.573C81.0459 289.974 141.5 350.288 216.073 350.288Z" stroke="#B42121" stroke-width="1.5" stroke-miterlimit="10" stroke-dasharray="10 10"/>
<path d="M216.074 330.331C279.6 330.331 331.098 278.952 331.098 215.573C331.098 152.195 279.6 100.816 216.074 100.816C152.549 100.816 101.051 152.195 101.051 215.573C101.051 278.952 152.549 330.331 216.074 330.331Z" stroke="#B42121" stroke-width="1.5" stroke-miterlimit="10" stroke-dasharray="11 11"/>
<path d="M216.073 310.226C268.47 310.226 310.946 267.849 310.946 215.573C310.946 163.298 268.47 120.921 216.073 120.921C163.677 120.921 121.201 163.298 121.201 215.573C121.201 267.849 163.677 310.226 216.073 310.226Z" stroke="#B32222" stroke-width="1.75" stroke-miterlimit="10" stroke-dasharray="12 12"/>
<path d="M216.075 290.122C257.342 290.122 290.796 256.745 290.796 215.573C290.796 174.402 257.342 141.025 216.075 141.025C174.807 141.025 141.354 174.402 141.354 215.573C141.354 256.745 174.807 290.122 216.075 290.122Z" stroke="#B32222" stroke-width="1.75" stroke-miterlimit="10" stroke-dasharray="13 13"/>
<path d="M216.074 270.017C246.212 270.017 270.644 245.642 270.644 215.573C270.644 185.505 246.212 161.13 216.074 161.13C185.936 161.13 161.504 185.505 161.504 215.573C161.504 245.642 185.936 270.017 216.074 270.017Z" stroke="#B22222" stroke-width="1.75" stroke-miterlimit="10"/>
</svg>
