<svg width="40" height="36" viewBox="0 0 40 36" fill="none" xmlns="http://www.w3.org/2000/svg">
<path d="M37.3333 0H6.66667C5.19392 0 4 1.19392 4 2.66667V24H0.666667C0.2985 24 0 24.2985 0 24.6667C0 26.1394 1.19392 27.3333 2.66667 27.3333H22V35.3333C22.0001 35.7015 22.2986 35.9999 22.6668 35.9998C22.8436 35.9998 23.013 35.9296 23.138 35.8047L26.6667 32.276L30.1953 35.8047C30.3203 35.9297 30.4898 36 30.6667 36C30.7543 36.0002 30.8411 35.9831 30.922 35.9493C31.1711 35.8461 31.3334 35.6029 31.3333 35.3333V27.3333H33.3333C34.8061 27.3333 36 26.1394 36 24.6667V3.33333H39.3333C39.7015 3.33333 40 3.03483 40 2.66667C40 1.19392 38.8061 0 37.3333 0ZM34.6667 2.66667V24H32V25.3333H34.4873C34.2492 25.7457 33.8094 25.9997 33.3333 26H31.3333V25.3333H30V33.724L27.138 30.862C26.8777 30.6017 26.4557 30.6017 26.1953 30.862L23.3333 33.724V25.3333H22V26H2.66667C2.19058 25.9997 1.75075 25.7457 1.51267 25.3333H4.66667H21.3333V24H5.33333V2.66667C5.33333 1.93025 5.93025 1.33333 6.66667 1.33333H35.0373C34.7974 1.73692 34.6694 2.19717 34.6667 2.66667ZM36.1793 2C36.5482 1.36267 37.3638 1.145 38.0013 1.51392C38.203 1.63067 38.3706 1.79833 38.4873 2H36.1793Z" fill="#B81F21"/>
<path d="M32.9516 20.8634L32.0976 19.3334L32.955 17.8047C33.1356 17.4839 33.022 17.0774 32.7013 16.8967C32.6851 16.8876 32.6685 16.8791 32.6516 16.8714L31.0603 16.1427L30.855 14.4027C30.8115 14.0371 30.4799 13.776 30.1143 13.8194C30.0973 13.8214 30.0804 13.8241 30.0636 13.8274L28.345 14.1681L27.1563 12.8807C26.8902 12.6105 26.4555 12.6071 26.1852 12.8731C26.1826 12.8756 26.1801 12.8782 26.1776 12.8807L24.989 14.1681L23.2703 13.8274C22.9091 13.756 22.5584 13.9909 22.487 14.3521C22.4836 14.3688 22.481 14.3857 22.479 14.4027L22.2736 16.1427L20.6823 16.8727C20.3475 17.026 20.2004 17.4216 20.3536 17.7564C20.3614 17.7733 20.3698 17.7899 20.379 17.8061L21.2363 19.3334L20.379 20.8621C20.1983 21.1829 20.3119 21.5894 20.6326 21.7701C20.6488 21.7791 20.6654 21.7876 20.6823 21.7954L22.2736 22.5254L22.479 24.2667C22.5224 24.6323 22.854 24.8935 23.2196 24.8501C23.2366 24.8481 23.2535 24.8454 23.2703 24.8421L24.989 24.5014L26.1776 25.7887C26.4277 26.059 26.8495 26.0753 27.1197 25.8253C27.1324 25.8136 27.1445 25.8014 27.1563 25.7887L28.345 24.5014L30.0636 24.8421C30.2458 24.8793 30.4352 24.8376 30.585 24.7274C30.734 24.6176 30.8305 24.4506 30.8516 24.2667L31.057 22.5267L32.6483 21.7967C32.983 21.6435 33.1302 21.2478 32.977 20.9131C32.9692 20.8961 32.9607 20.8796 32.9516 20.8634ZM30.7523 19.6587L31.4383 20.8827L30.1636 21.4674C29.9523 21.5644 29.8068 21.7645 29.7796 21.9954L29.6156 23.3907L28.2376 23.1181C28.0105 23.0709 27.7755 23.1469 27.619 23.3181L26.667 24.3501L25.715 23.3194C25.5888 23.183 25.4115 23.1054 25.2256 23.1054C25.1821 23.1051 25.1388 23.1096 25.0963 23.1187L23.7183 23.3914L23.5543 21.9961C23.5271 21.7651 23.3816 21.5651 23.1703 21.4681L21.8956 20.8834L22.5816 19.6594C22.6963 19.4561 22.699 19.2091 22.5816 19.0074V19.0101L21.8956 17.7861L23.1703 17.2014C23.3816 17.1044 23.5271 16.9043 23.5543 16.6734L23.7183 15.2781L25.0963 15.5507C25.3233 15.5973 25.5581 15.5214 25.715 15.3507L26.667 14.3167L27.619 15.3474C27.7754 15.5186 28.0105 15.5946 28.2376 15.5474L29.6156 15.2747L29.7796 16.6701C29.8068 16.901 29.9523 17.1011 30.1636 17.1981L31.4383 17.7827L30.7523 19.0067C30.6388 19.2092 30.6388 19.4562 30.7523 19.6587Z" fill="#B81F21"/>
<path d="M26.6663 16C24.8254 16 23.333 17.4924 23.333 19.3333C23.3352 21.1733 24.8263 22.6644 26.6663 22.6667C28.5073 22.6667 29.9997 21.1742 29.9997 19.3333C29.9997 17.4924 28.5073 16 26.6663 16ZM26.6663 21.3333C25.5618 21.3333 24.6663 20.4379 24.6663 19.3333C24.6663 18.2287 25.5618 17.3333 26.6663 17.3333C27.7709 17.3333 28.6663 18.2287 28.6663 19.3333C28.6663 20.4379 27.7709 21.3333 26.6663 21.3333Z" fill="#B81F21"/>
<path d="M25.3337 3.99805H14.667V5.33138H25.3337V3.99805Z" fill="#B81F21"/>
<path d="M32 8H8V9.33333H32V8Z" fill="#B81F21"/>
<path d="M32 10.666H8V11.9993H32V10.666Z" fill="#B81F21"/>
<path d="M17.3337 19.334H8.66699V20.6673H17.3337V19.334Z" fill="#B81F21"/>
</svg>
