<svg width="40" height="40" viewBox="0 0 40 40" fill="none" xmlns="http://www.w3.org/2000/svg">
<path d="M38 8H31.3333V6.66667C31.3333 6.31305 31.1929 5.97391 30.9428 5.72386C30.6928 5.47381 30.3536 5.33333 30 5.33333V3.33333C29.9989 2.4496 29.6474 1.60237 29.0225 0.97748C28.3976 0.352588 27.5504 0.00105857 26.6667 0H13.3333C12.4496 0.00105857 11.6024 0.352588 10.9775 0.97748C10.3526 1.60237 10.0011 2.4496 10 3.33333V5.33333C9.64638 5.33333 9.30724 5.47381 9.05719 5.72386C8.80714 5.97391 8.66667 6.31305 8.66667 6.66667V8H2C1.46957 8 0.960859 8.21071 0.585787 8.58579C0.210714 8.96086 0 9.46957 0 10V35.3333C0 35.8638 0.210714 36.3725 0.585787 36.7475C0.960859 37.1226 1.46957 37.3333 2 37.3333V38.6667C2 39.0203 2.14048 39.3594 2.39052 39.6095C2.64057 39.8595 2.97971 40 3.33333 40H6C6.35362 40 6.69276 39.8595 6.94281 39.6095C7.19286 39.3594 7.33333 39.0203 7.33333 38.6667V37.3333H32.6667V38.6667C32.6667 39.0203 32.8071 39.3594 33.0572 39.6095C33.3072 39.8595 33.6464 40 34 40H36.6667C37.0203 40 37.3594 39.8595 37.6095 39.6095C37.8595 39.3594 38 39.0203 38 38.6667V37.3333C38.5304 37.3333 39.0391 37.1226 39.4142 36.7475C39.7893 36.3725 40 35.8638 40 35.3333V10C40 9.46957 39.7893 8.96086 39.4142 8.58579C39.0391 8.21071 38.5304 8 38 8ZM26 8V6.66667H30V8H26ZM14 5.33333V4H26V5.33333C25.6464 5.33333 25.3072 5.47381 25.0572 5.72386C24.8071 5.97391 24.6667 6.31305 24.6667 6.66667V8H15.3333V6.66667C15.3333 6.31305 15.1929 5.97391 14.9428 5.72386C14.6928 5.47381 14.3536 5.33333 14 5.33333ZM11.3333 3.33333C11.3333 2.8029 11.544 2.29419 11.9191 1.91912C12.2942 1.54405 12.8029 1.33333 13.3333 1.33333H26.6667C27.1971 1.33333 27.7058 1.54405 28.0809 1.91912C28.456 2.29419 28.6667 2.8029 28.6667 3.33333V5.33333H27.3333V4C27.3333 3.64638 27.1929 3.30724 26.9428 3.05719C26.6928 2.80714 26.3536 2.66667 26 2.66667H14C13.6464 2.66667 13.3072 2.80714 13.0572 3.05719C12.8071 3.30724 12.6667 3.64638 12.6667 4V5.33333H11.3333V3.33333ZM10 6.66667H14V8H10V6.66667ZM2 9.33333H38C38.1768 9.33333 38.3464 9.40357 38.4714 9.52859C38.5964 9.65362 38.6667 9.82319 38.6667 10V12.6667H1.33333V10C1.33333 9.82319 1.40357 9.65362 1.5286 9.52859C1.65362 9.40357 1.82319 9.33333 2 9.33333ZM38.6667 14V14.6667H1.33333V14H38.6667ZM6 38.6667H3.33333V37.3333H6V38.6667ZM36.6667 38.6667H34V37.3333H36.6667V38.6667ZM38 36H2C1.82319 36 1.65362 35.9298 1.5286 35.8047C1.40357 35.6797 1.33333 35.5101 1.33333 35.3333V16H38.6667V35.3333C38.6667 35.5101 38.5964 35.6797 38.4714 35.8047C38.3464 35.9298 38.1768 36 38 36Z" fill="#B81F21"/>
<path d="M24.0007 24.6667H22.0007V22.6667C22.0007 22.4899 21.9304 22.3203 21.8054 22.1953C21.6804 22.0702 21.5108 22 21.334 22H18.6673C18.4905 22 18.3209 22.0702 18.1959 22.1953C18.0709 22.3203 18.0007 22.4899 18.0007 22.6667V24.6667H16.0007C15.8238 24.6667 15.6543 24.7369 15.5292 24.8619C15.4042 24.987 15.334 25.1565 15.334 25.3333V28C15.334 28.1768 15.4042 28.3464 15.5292 28.4714C15.6543 28.5964 15.8238 28.6667 16.0007 28.6667H18.0007V30.6667C18.0007 30.8435 18.0709 31.013 18.1959 31.1381C18.3209 31.2631 18.4905 31.3333 18.6673 31.3333H21.334C21.5108 31.3333 21.6804 31.2631 21.8054 31.1381C21.9304 31.013 22.0007 30.8435 22.0007 30.6667V28.6667H24.0007C24.1775 28.6667 24.347 28.5964 24.4721 28.4714C24.5971 28.3464 24.6673 28.1768 24.6673 28V25.3333C24.6673 25.1565 24.5971 24.987 24.4721 24.8619C24.347 24.7369 24.1775 24.6667 24.0007 24.6667ZM23.334 27.3333H21.334C21.1572 27.3333 20.9876 27.4036 20.8626 27.5286C20.7376 27.6536 20.6673 27.8232 20.6673 28V30H19.334V28C19.334 27.8232 19.2637 27.6536 19.1387 27.5286C19.0137 27.4036 18.8441 27.3333 18.6673 27.3333H16.6673V26H18.6673C18.8441 26 19.0137 25.9298 19.1387 25.8047C19.2637 25.6797 19.334 25.5101 19.334 25.3333V23.3333H20.6673V25.3333C20.6673 25.5101 20.7376 25.6797 20.8626 25.8047C20.9876 25.9298 21.1572 26 21.334 26H23.334V27.3333Z" fill="#B81F21"/>
<path d="M20 18.668C18.4178 18.668 16.871 19.1372 15.5554 20.0162C14.2398 20.8953 13.2145 22.1447 12.609 23.6065C12.0035 25.0683 11.845 26.6768 12.1537 28.2287C12.4624 29.7805 13.2243 31.206 14.3431 32.3248C15.462 33.4436 16.8874 34.2056 18.4393 34.5143C19.9911 34.8229 21.5997 34.6645 23.0615 34.059C24.5233 33.4535 25.7727 32.4281 26.6518 31.1125C27.5308 29.7969 28 28.2502 28 26.668C27.9977 24.5469 27.1541 22.5134 25.6543 21.0136C24.1545 19.5139 22.121 18.6703 20 18.668ZM20 33.3346C18.6815 33.3346 17.3925 32.9436 16.2962 32.2111C15.1999 31.4786 14.3454 30.4374 13.8408 29.2192C13.3362 28.001 13.2042 26.6606 13.4614 25.3674C13.7187 24.0742 14.3536 22.8863 15.286 21.9539C16.2183 21.0216 17.4062 20.3866 18.6994 20.1294C19.9926 19.8722 21.3331 20.0042 22.5512 20.5088C23.7694 21.0134 24.8106 21.8678 25.5431 22.9642C26.2757 24.0605 26.6667 25.3494 26.6667 26.668C26.6647 28.4355 25.9617 30.13 24.7119 31.3799C23.4621 32.6297 21.7675 33.3327 20 33.3346Z" fill="#B81F21"/>
</svg>
