<svg width="40" height="40" viewBox="0 0 40 40" fill="none" xmlns="http://www.w3.org/2000/svg">
<path d="M20 29.3223C19.5685 29.3223 19.2188 29.672 19.2188 30.1035C19.2188 30.1045 19.2188 30.1056 19.2188 30.1066C19.2188 30.1077 19.2188 30.1087 19.2188 30.1098V30.116C19.2188 30.5475 19.5685 30.8973 20 30.8973C20.4315 30.8973 20.7812 30.5475 20.7812 30.116C20.7812 30.1149 20.7812 30.114 20.7812 30.1129C20.7812 30.1118 20.7812 30.1109 20.7812 30.1098C20.7812 30.1087 20.7812 30.1077 20.7812 30.1066C20.7812 30.1056 20.7812 30.1045 20.7812 30.1035C20.7812 29.672 20.4315 29.3223 20 29.3223Z" fill="#B81F21"/>
<path d="M32.3438 0H7.65625C3.43453 0 0 3.43453 0 7.65625V32.3438C0 36.5655 3.43453 40 7.65625 40H20C20.4315 40 20.7812 39.6502 20.7812 39.2188V33.1641C20.7812 32.7326 20.4315 32.3828 20 32.3828C19.5685 32.3828 19.2188 32.7326 19.2188 33.1641V38.4375H7.65625C4.29617 38.4375 1.5625 35.7038 1.5625 32.3438V7.65625C1.5625 4.29617 4.29617 1.5625 7.65625 1.5625H32.3438C35.7038 1.5625 38.4375 4.29617 38.4375 7.65625V32.3438C38.4375 35.7038 35.7038 38.4375 32.3438 38.4375H27.3438V24.6485H31.8735C32.2748 24.6485 32.6107 24.3446 32.6509 23.9455L33.2127 18.363C33.2348 18.1433 33.1629 17.9245 33.0148 17.7608C32.8666 17.597 32.6561 17.5036 32.4353 17.5036H27.3438V14.5723C27.3438 14.0417 27.5127 13.8445 27.9673 13.8445H32.4002C32.8317 13.8445 33.1815 13.4947 33.1815 13.0632V7.62102C33.1815 7.18953 32.8317 6.83977 32.4002 6.83977H26.5786C23.2799 6.83977 21.5305 8.28867 20.6439 9.50414C19.4038 11.204 19.2187 13.2115 19.2187 14.2568V17.5386H15.3905C14.9591 17.5386 14.6093 17.8884 14.6093 18.3198V23.8672C14.6093 24.2987 14.9591 24.6484 15.3905 24.6484H19.2187V26.875C19.2187 27.3065 19.5684 27.6562 19.9999 27.6562C20.4314 27.6562 20.7812 27.3065 20.7812 26.875V23.8672C20.7812 23.4357 20.4314 23.0859 19.9999 23.0859H16.1718V19.101H19.9999C20.4314 19.101 20.7812 18.7512 20.7812 18.3198V14.2567C20.7812 12.4964 21.3461 8.40219 26.5786 8.40219H31.619V12.2819H27.9673C26.9588 12.2819 25.7812 12.8817 25.7812 14.5722V18.2848C25.7812 18.7162 26.131 19.066 26.5625 19.066H31.5715L31.167 23.0859H26.5625C26.131 23.0859 25.7812 23.4357 25.7812 23.8672V39.2188C25.7812 39.6502 26.131 40 26.5625 40H32.3438C36.5655 40 40 36.5655 40 32.3438V7.65625C40 3.43453 36.5655 0 32.3438 0Z" fill="#B81F21"/>
<path d="M4.53125 8.00781C4.09977 8.00781 3.75 8.35758 3.75 8.78906V15.3125C3.75 15.744 4.09977 16.0938 4.53125 16.0938C4.96273 16.0938 5.3125 15.744 5.3125 15.3125V8.78906C5.3125 8.35758 4.96273 8.00781 4.53125 8.00781Z" fill="#B81F21"/>
<path d="M4.53125 17.9199C4.09977 17.9199 3.75 18.2697 3.75 18.7012V18.7104C3.75 19.1419 4.09977 19.4916 4.53125 19.4916C4.96273 19.4916 5.3125 19.1419 5.3125 18.7104V18.7012C5.3125 18.2697 4.96273 17.9199 4.53125 17.9199Z" fill="#B81F21"/>
</svg>
