<svg width="40" height="40" viewBox="0 0 40 40" fill="none" xmlns="http://www.w3.org/2000/svg">
<path d="M19.441 20.3458L17.7085 23.8126L14.271 24.3858C14.1519 24.4057 14.0412 24.4596 13.9522 24.5411C13.8631 24.6225 13.7996 24.728 13.7692 24.8448C13.7388 24.9615 13.7428 25.0846 13.7809 25.1991C13.8189 25.3137 13.8892 25.4147 13.9835 25.4901L16.7835 27.7301L15.6485 31.7052C15.6151 31.8218 15.6163 31.9456 15.6521 32.0615C15.6879 32.1774 15.7566 32.2804 15.8499 32.3579C15.9432 32.4354 16.057 32.4841 16.1775 32.4981C16.298 32.512 16.4199 32.4906 16.5285 32.4364L20.0003 30.6989L23.471 32.4377C23.5795 32.4918 23.7014 32.5133 23.8219 32.4993C23.9424 32.4854 24.0563 32.4367 24.1495 32.3592C24.2428 32.2816 24.3116 32.1786 24.3473 32.0627C24.3831 31.9468 24.3843 31.823 24.351 31.7064L23.216 27.7314L26.016 25.4914C26.1102 25.416 26.1805 25.3149 26.2185 25.2004C26.2566 25.0859 26.2606 24.9628 26.2302 24.846C26.1998 24.7292 26.1363 24.6237 26.0472 24.5423C25.9582 24.4609 25.8475 24.4069 25.7285 24.387L22.291 23.8139L20.5628 20.3458C20.5053 20.2482 20.4233 20.1673 20.3249 20.1111C20.2265 20.0549 20.1152 20.0254 20.0019 20.0254C19.8886 20.0254 19.7773 20.0549 19.6789 20.1111C19.5805 20.1673 19.4985 20.2482 19.441 20.3458ZM21.316 24.6545C21.3601 24.7427 21.4244 24.8191 21.5037 24.8777C21.583 24.9362 21.675 24.9752 21.7722 24.9914L24.1416 25.3864L22.1097 27.0114C22.0135 27.0885 21.9423 27.1922 21.9049 27.3096C21.8676 27.4271 21.8657 27.5529 21.8997 27.6714L22.7591 30.6802L20.2797 29.4402C20.193 29.3968 20.0973 29.3742 20.0003 29.3742C19.9034 29.3742 19.8077 29.3968 19.721 29.4402L17.2416 30.6802L18.101 27.6714C18.1349 27.5529 18.1331 27.4271 18.0957 27.3096C18.0584 27.1922 17.9871 27.0885 17.891 27.0114L15.8591 25.3864L18.2285 24.9914C18.3257 24.9752 18.4177 24.9362 18.497 24.8777C18.5763 24.8191 18.6406 24.7427 18.6847 24.6545L20.0003 22.0226L21.316 24.6545Z" fill="#B81F21"/>
<path d="M19.375 6.875H20.625V8.125H19.375V6.875Z" fill="#B81F21"/>
<path d="M19.375 9.375H20.625V10.625H19.375V9.375Z" fill="#B81F21"/>
<path d="M15 12.5C14.8342 12.5 14.6753 12.5658 14.5581 12.6831C14.4409 12.8003 14.375 12.9592 14.375 13.125V16.4206C12.0458 17.6734 10.2015 19.6679 9.13442 22.0878C8.06737 24.5077 7.83869 27.2146 8.48464 29.7792C9.13059 32.3438 10.6142 34.6195 12.7002 36.2452C14.7862 37.871 17.3553 38.7539 20 38.7539C22.6447 38.7539 25.2138 37.871 27.2998 36.2452C29.3858 34.6195 30.8694 32.3438 31.5154 29.7792C32.1613 27.2146 31.9326 24.5077 30.8656 22.0878C29.7985 19.6679 27.9542 17.6734 25.625 16.4206V13.125C25.625 12.9592 25.5592 12.8003 25.4419 12.6831C25.3247 12.5658 25.1658 12.5 25 12.5H23.125V10.8837L31.6919 2.31687C31.7793 2.22947 31.8388 2.11812 31.8629 1.99689C31.887 1.87567 31.8746 1.75003 31.8273 1.63584C31.78 1.52165 31.6999 1.42405 31.5972 1.35537C31.4944 1.2867 31.3736 1.25003 31.25 1.25H26.875C26.7093 1.25004 26.5503 1.31591 26.4331 1.43312L23.0813 4.785C23.0381 4.66532 22.9592 4.5618 22.8552 4.48847C22.7512 4.41513 22.6272 4.37552 22.5 4.375H17.5C17.3728 4.37552 17.2488 4.41513 17.1448 4.48847C17.0409 4.5618 16.9619 4.66532 16.9188 4.785L13.5669 1.43312C13.4497 1.31591 13.2908 1.25004 13.125 1.25H8.75001C8.62641 1.25003 8.5056 1.2867 8.40285 1.35537C8.30009 1.42405 8.22 1.52165 8.17271 1.63584C8.12541 1.75003 8.11304 1.87567 8.13714 1.99689C8.16125 2.11812 8.22075 2.22947 8.30813 2.31687L16.875 10.8837V12.5H15ZM30.625 26.875C30.625 28.9764 30.0019 31.0307 28.8344 32.7779C27.6669 34.5252 26.0075 35.887 24.066 36.6912C22.1246 37.4954 19.9882 37.7058 17.9272 37.2958C15.8661 36.8859 13.9729 35.8739 12.487 34.388C11.0011 32.9021 9.98913 31.0089 9.57916 28.9478C9.1692 26.8868 9.37961 24.7505 10.1838 22.809C10.988 20.8675 12.3498 19.2081 14.0971 18.0406C15.8443 16.8731 17.8986 16.25 20 16.25C22.817 16.2531 25.5177 17.3736 27.5095 19.3655C29.5014 21.3574 30.6219 24.058 30.625 26.875ZM24.375 15.8456C21.5673 14.7181 18.4327 14.7181 15.625 15.8456V13.75H24.375V15.8456ZM27.1338 2.5H29.7413L23.125 9.11625V6.50875L27.1338 2.5ZM10.2588 2.5H12.8663L16.875 6.50875V9.11625L10.2588 2.5ZM18.125 5.625H21.875V12.5H18.125V5.625Z" fill="#B81F21"/>
<path d="M10.625 26.875C10.625 28.7292 11.1748 30.5418 12.205 32.0835C13.2351 33.6252 14.6993 34.8268 16.4123 35.5364C18.1254 36.2459 20.0104 36.4316 21.829 36.0699C23.6475 35.7081 25.318 34.8152 26.6291 33.5041C27.9402 32.193 28.8331 30.5225 29.1949 28.704C29.5566 26.8854 29.3709 25.0004 28.6614 23.2873C27.9518 21.5743 26.7502 20.1101 25.2085 19.08C23.6668 18.0498 21.8542 17.5 20 17.5C17.5145 17.5028 15.1315 18.4914 13.374 20.249C11.6164 22.0065 10.6278 24.3895 10.625 26.875ZM28.125 26.875C28.125 28.482 27.6485 30.0529 26.7557 31.389C25.8629 32.7252 24.594 33.7666 23.1093 34.3815C21.6247 34.9965 19.991 35.1574 18.4149 34.8439C16.8388 34.5304 15.3911 33.7565 14.2548 32.6202C13.1185 31.4839 12.3446 30.0362 12.0311 28.4601C11.7176 26.884 11.8785 25.2503 12.4935 23.7657C13.1084 22.281 14.1498 21.0121 15.486 20.1193C16.8221 19.2265 18.393 18.75 20 18.75C22.1541 18.7525 24.2193 19.6093 25.7425 21.1325C27.2657 22.6557 28.1225 24.7209 28.125 26.875Z" fill="#B81F21"/>
<path d="M15.625 21.25H16.875V22.5H15.625V21.25Z" fill="#B81F21"/>
<path d="M25.625 27.5H26.875V28.75H25.625V27.5Z" fill="#B81F21"/>
<path d="M13.75 29.375H15V30.625H13.75V29.375Z" fill="#B81F21"/>
</svg>
