<svg width="1171" height="134" viewBox="0 0 1171 134" fill="none" xmlns="http://www.w3.org/2000/svg">
<path d="M220.179 133.465C256.827 133.465 286.536 103.588 286.536 66.7324C286.536 29.8771 256.827 0 220.179 0C183.531 0 153.822 29.8771 153.822 66.7324C153.822 103.588 183.531 133.465 220.179 133.465Z" fill="#B81F21"/>
<path d="M50.292 73.0212C50.292 73.0212 51.6817 72.6718 52.7239 73.72C53.7662 74.7681 54.8084 75.1175 58.2826 75.1175C61.7568 75.1175 73.2217 76.1656 74.6113 75.1175C76.001 74.0693 78.0855 70.9249 79.1278 71.2743C80.17 71.2743 82.2546 75.1175 83.6442 75.1175C85.0339 75.1175 87.1184 75.8163 88.8555 76.515C90.5926 77.2138 93.0246 76.8644 94.0668 80.0089L95.4565 60.4434C95.4565 60.4434 96.4987 49.2631 97.1936 49.2631C97.8884 49.2631 98.5833 84.5509 98.5833 84.5509C98.5833 84.5509 98.5833 90.4904 99.9729 90.4904C101.363 90.4904 101.71 88.0447 102.057 83.1533C102.405 78.262 103.795 76.515 104.837 76.1656C105.879 76.1656 109.006 75.4669 110.048 74.7681C111.09 74.0693 112.133 73.72 113.175 73.0212C114.565 72.3224 118.734 70.2261 119.428 68.8286C120.123 67.431 122.555 66.0335 123.597 66.0335C124.987 66.0335 127.766 70.2261 129.504 71.2743C131.241 72.3224 132.978 74.0693 137.147 74.0693C140.968 73.72 151.044 74.0693 151.044 74.0693C151.044 74.0693 152.086 73.3706 153.475 72.3224C154.865 71.2743 156.95 69.8767 158.687 70.2261C160.424 70.5755 162.161 72.6718 163.898 73.3706C165.635 74.0693 167.372 75.1175 169.109 75.1175C170.499 75.1175 171.889 75.4669 172.584 76.515L176.405 43.3235L177.1 85.599C177.1 85.599 177.447 90.8398 178.837 90.141C180.227 89.7916 180.922 87.3459 180.922 84.2015C180.922 81.057 180.922 76.8644 184.048 75.8163C187.175 74.7681 188.565 73.3706 191.692 72.3224C194.471 70.9249 197.25 68.1298 198.293 67.0817C199.682 66.0335 201.767 63.9372 203.156 63.9372C204.546 63.9372 207.325 67.431 208.368 68.8286C209.757 70.2261 211.842 73.0212 219.138 73.3706C226.434 73.72 236.161 74.7681 237.551 73.72C238.941 72.6718 241.025 70.2261 241.72 70.2261C242.415 70.2261 244.499 73.72 246.931 73.72C249.016 73.72 250.405 75.1175 252.143 75.1175C253.88 75.1175 256.312 76.515 256.659 78.6113C256.659 78.6113 257.701 75.1175 257.701 71.6237C257.701 68.1298 258.396 48.2149 259.786 47.8655C261.175 47.5162 260.828 76.8644 260.828 76.8644C260.828 76.8644 260.133 89.0929 262.565 89.4422C264.997 89.7916 263.955 80.7076 264.302 79.3101C264.65 77.9126 266.039 75.1175 267.429 74.7681C268.819 74.4187 270.556 74.4187 272.64 73.3706C274.725 72.3224 275.42 71.6237 277.504 70.5755C279.589 69.5274 284.453 64.636 286.19 64.636C287.579 64.636 289.664 68.1298 292.443 69.8767C295.223 71.6237 296.96 73.0212 302.171 72.6718C307.382 72.6718 313.288 73.0212 315.025 71.973C316.415 71.2743 318.5 68.4792 320.932 68.4792C323.016 68.4792 324.753 71.2743 327.185 71.973C329.27 72.6718 330.659 73.3706 332.744 73.3706C334.481 73.3706 334.828 75.1175 335.871 74.7681C336.913 74.4187 337.955 54.5038 337.955 54.5038L338.997 42.2754L339.692 79.3101C339.692 79.3101 339.345 88.3941 341.777 88.7435C344.209 88.7435 343.861 82.8039 343.861 80.7076C343.861 78.6113 344.209 75.4669 347.683 74.0693C351.157 73.0212 356.368 70.2261 358.453 68.1298C360.537 66.0335 364.012 61.4915 366.096 61.8409C368.181 62.1903 370.613 67.431 372.697 68.4792C374.782 69.5274 376.866 71.973 381.382 71.973C385.552 71.973 393.195 72.6718 394.932 71.6237C396.669 70.5755 398.753 68.4792 401.185 68.8286C403.27 68.8286 405.354 71.6237 407.092 72.3224C408.829 73.0212 412.65 73.0212 413.692 73.72C414.735 74.4187 414.735 75.4669 415.43 75.1175C416.124 74.7681 418.556 42.6248 418.556 42.6248L419.251 83.8521C419.251 83.8521 418.904 88.3941 420.988 88.3941C423.073 88.3941 422.725 79.3101 423.42 77.5632C424.115 75.8163 425.157 74.0693 428.284 73.0212C431.063 72.3224 434.538 70.5755 437.317 68.1298C440.096 65.6841 443.571 61.1421 445.655 61.4915C447.74 61.8409 449.824 66.7323 451.909 67.7804C453.993 68.8286 454.688 71.973 465.805 71.6237C476.923 71.2743 473.796 71.6237 475.186 70.5755C476.575 69.5274 478.312 68.4792 479.355 69.178C480.397 69.8767 481.787 71.2743 482.481 71.2743" stroke="#B72020" stroke-width="1.5" stroke-miterlimit="10" stroke-linecap="round" stroke-linejoin="round"/>
<path d="M550.001 68.7458C550.001 68.7458 551.391 68.3964 552.433 69.4446C553.475 70.4927 554.517 70.8421 557.992 70.8421C561.466 70.8421 572.931 71.8903 574.32 70.8421C575.71 69.794 577.795 66.6495 578.837 66.9989C579.879 66.9989 581.964 70.8421 583.353 70.8421C584.743 70.8421 586.827 71.5409 588.565 72.2396C590.302 72.9384 592.734 72.589 593.776 75.7335L595.165 56.168C595.165 56.168 596.208 44.9877 596.903 44.9877C597.597 44.9877 598.292 80.2755 598.292 80.2755C598.292 80.2755 598.292 86.215 599.682 86.215C601.072 86.215 601.419 83.7693 601.766 78.8779C602.114 73.9866 603.504 72.2396 604.546 71.8903C605.588 71.8903 608.715 71.1915 609.757 70.4927C610.799 69.794 611.842 69.4446 612.884 68.7458C614.274 68.047 618.443 65.9507 619.137 64.5532C619.832 63.1557 622.264 61.7581 623.306 61.7581C624.696 61.7581 627.475 65.9507 629.213 66.9989C630.95 68.047 632.687 69.794 636.856 69.794C640.677 69.4446 650.753 69.794 650.753 69.794C650.753 69.794 651.795 69.0952 653.184 68.047C654.574 66.9989 656.659 65.6013 658.396 65.9507C660.133 66.3001 661.87 68.3964 663.607 69.0952C665.344 69.794 667.081 70.8421 668.818 70.8421C670.208 70.8421 671.598 71.1915 672.293 72.2396L676.114 39.0481L676.809 81.3236C676.809 81.3236 677.156 86.5644 678.546 85.8656C679.936 85.5162 680.631 83.0706 680.631 79.9261C680.631 76.7816 680.631 72.589 683.757 71.5409C686.884 70.4927 688.274 69.0952 691.401 68.047C694.18 66.6495 696.959 63.8544 698.002 62.8063C699.391 61.7581 701.476 59.6618 702.865 59.6618C704.255 59.6618 707.034 63.1557 708.077 64.5532C709.466 65.9507 711.551 68.7458 718.847 69.0952C726.142 69.4446 735.87 70.4927 737.26 69.4446C738.65 68.3964 740.734 65.9507 741.429 65.9507C742.124 65.9507 744.208 69.4446 746.64 69.4446C748.725 69.4446 750.114 70.8421 751.852 70.8421C753.589 70.8421 756.021 72.2396 756.368 74.3359C756.368 74.3359 757.41 70.8421 757.41 67.3483C757.41 63.8544 758.105 43.9395 759.495 43.5901C760.884 43.2408 760.537 72.589 760.537 72.589C760.537 72.589 759.842 84.8175 762.274 85.1669C764.706 85.5162 763.664 76.4323 764.011 75.0347C764.359 73.6372 765.748 70.8421 767.138 70.4927C768.528 70.1433 770.265 70.1433 772.349 69.0952C774.434 68.047 775.129 67.3483 777.213 66.3001C779.298 65.252 784.162 60.3606 785.899 60.3606C787.288 60.3606 789.373 63.8544 792.152 65.6013C794.932 67.3483 796.669 68.7458 801.88 68.3964C807.091 68.3964 812.997 68.7458 814.734 67.6977C816.124 66.9989 818.209 64.2038 820.641 64.2038C822.725 64.2038 824.462 66.9989 826.894 67.6977C828.979 68.3964 830.368 69.0952 832.453 69.0952C834.19 69.0952 834.537 70.8421 835.58 70.4927C836.622 70.1433 837.664 50.2284 837.664 50.2284L838.706 38L839.401 75.0347C839.401 75.0347 839.054 84.1187 841.486 84.4681C843.918 84.4681 843.57 78.5286 843.57 76.4323C843.57 74.3359 843.918 71.1915 847.392 69.794C850.866 68.7458 856.077 65.9507 858.162 63.8544C860.246 61.7581 863.721 57.2161 865.805 57.5655C867.89 57.9149 870.321 63.1557 872.406 64.2038C874.491 65.252 876.575 67.6977 881.091 67.6977C885.26 67.6977 892.904 68.3964 894.641 67.3483C896.378 66.3001 898.462 64.2038 900.894 64.5532C902.979 64.5532 905.063 67.3483 906.801 68.047C908.538 68.7458 912.359 68.7458 913.401 69.4446C914.444 70.1433 914.444 71.1915 915.139 70.8421C915.833 70.4927 918.265 38.3494 918.265 38.3494L918.96 79.5767C918.96 79.5767 918.613 84.1187 920.697 84.1187C922.782 84.1187 922.434 75.0347 923.129 73.2878C923.824 71.5409 924.866 69.794 927.993 68.7458C930.772 68.047 934.247 66.3001 937.026 63.8544C939.805 61.4087 943.279 56.8667 945.364 57.2161C947.449 57.5655 949.533 62.4569 951.618 63.505C953.702 64.5532 954.397 67.6976 965.514 67.3483C976.632 66.9989 973.505 67.3483 974.895 66.3001C976.284 65.252 978.021 64.2038 979.064 64.9026C980.106 65.6013 981.496 66.9989 982.19 66.9989" stroke="#B72020" stroke-width="1.5" stroke-miterlimit="10" stroke-linecap="round" stroke-linejoin="round"/>
<path d="M982.001 66.8544C983.391 66.8544 985.475 67.5532 987.212 68.252C988.949 68.6013 991.381 68.6013 992.424 71.7458L993.813 52.1803C993.813 52.1803 994.855 41 995.55 41C996.245 41 996.94 76.2878 996.94 76.2878C996.94 76.2878 996.94 82.2273 998.33 82.2273C999.719 82.2273 1000.07 79.7816 1000.41 74.8903C1000.76 69.9989 1002.15 68.252 1003.19 67.9026C1004.24 67.9026 1007.36 67.2038 1008.4 66.505C1009.45 65.8063 1010.49 65.4569 1011.53 64.7581C1012.92 64.0594 1017.09 61.963 1017.79 60.5655C1018.48 59.168 1020.91 57.7704 1021.95 57.7704C1023.34 57.7704 1026.12 61.963 1027.86 63.0112C1029.6 64.0594 1031.33 65.8063 1035.5 65.8063C1039.67 65.8063 1049.52 63.6309 1049.52 63.6309" stroke="#B72020" stroke-width="1.5" stroke-miterlimit="10" stroke-linecap="round" stroke-linejoin="round"/>
<path d="M1050 63.8544C1051.39 63.8544 1053.48 64.5532 1055.21 65.252C1056.95 65.6013 1059.38 65.6013 1060.42 68.7458L1061.81 49.1803C1061.81 49.1803 1062.86 38 1063.55 38C1064.25 38 1064.94 73.2878 1064.94 73.2878C1064.94 73.2878 1064.94 79.2273 1066.33 79.2273C1067.72 79.2273 1068.07 76.7816 1068.41 71.8903C1068.76 66.9989 1070.15 65.252 1071.19 64.9026C1072.24 64.9026 1075.36 64.2038 1076.4 63.505C1077.45 62.8063 1078.49 62.4569 1079.53 61.7581C1080.92 61.0594 1085.09 58.963 1085.79 57.5655C1086.48 56.168 1088.91 54.7704 1089.95 54.7704C1091.34 54.7704 1094.12 58.963 1095.86 60.0112C1097.6 61.0594 1098.33 71 1102.5 71C1106.67 71 1111.5 74.5 1111.5 74.5" stroke="#B72020" stroke-width="1.5" stroke-miterlimit="10" stroke-linecap="round" stroke-linejoin="round"/>
<path d="M1102 70.8544C1103.39 70.8544 1105.48 71.5532 1107.21 72.252C1108.95 72.6013 1111.38 72.6013 1112.42 75.7458L1113.81 56.1803C1113.81 56.1803 1114.86 45 1115.55 45C1116.25 45 1116.94 80.2878 1116.94 80.2878C1116.94 80.2878 1116.94 86.2273 1118.33 86.2273C1119.72 86.2273 1120.07 83.7816 1120.41 78.8903C1120.76 73.9989 1122.15 72.252 1123.19 71.9026C1124.24 71.9026 1127.36 71.2038 1128.4 70.505C1129.45 69.8063 1130.49 69.4569 1131.53 68.7581C1132.92 68.0594 1137.09 65.963 1137.79 64.5655C1138.48 63.168 1140.91 61.7704 1141.95 61.7704C1143.34 61.7704 1146.12 65.963 1147.86 67.0112C1149.6 68.0594 1151.33 69.8063 1155.5 69.8063C1159.67 69.8063 1169.52 67.6309 1169.52 67.6309" stroke="#B72020" stroke-width="1.5" stroke-miterlimit="10" stroke-linecap="round" stroke-linejoin="round"/>
<path d="M482.48 71.9736C483.87 71.9736 485.955 72.6723 487.692 73.3711C489.429 73.7205 491.861 73.7205 492.903 76.8649L494.293 57.2994C494.293 57.2994 495.335 46.1191 496.03 46.1191C496.725 46.1191 497.419 81.4069 497.419 81.4069C497.419 81.4069 497.419 87.3465 498.809 87.3465C500.199 87.3465 500.546 84.9008 500.894 80.0094C501.241 75.118 502.631 73.3711 503.673 73.0217C504.715 73.0217 507.842 72.323 508.884 71.6242C509.927 70.9254 510.969 70.576 512.011 69.8773C513.401 69.1785 517.57 67.0822 518.265 65.6847C518.959 64.2871 521.391 62.8896 522.434 62.8896C523.823 62.8896 526.603 67.0822 528.34 68.1303C530.077 69.1785 531.814 70.9254 535.983 70.9254C540.152 70.9254 550.002 68.75 550.002 68.75" stroke="#B72020" stroke-width="1.5" stroke-miterlimit="10" stroke-linecap="round" stroke-linejoin="round"/>
<path d="M1.50098 71.3228C3.58549 70.2747 6.01743 69.2265 8.10194 67.4796C10.8813 65.0339 14.3555 60.4919 16.44 60.8413C18.5245 61.1907 21.501 67.4796 23.1928 71.3228C24.501 73.5003 25.9722 75.5154 37.0896 75.1661C48.207 74.8167 45.0802 75.1661 46.4699 74.1179C47.8596 73.0698 49.001 73.0003 50.6389 72.7204C51.501 73.0003 52.501 73.5003 54.001 74.5003" stroke="#B72020" stroke-width="1.5" stroke-miterlimit="10" stroke-linecap="round" stroke-linejoin="round"/>
<path d="M154.169 72.3231C155.559 71.275 157.643 69.8774 159.38 70.2268C161.117 70.5762 162.854 72.6725 164.592 73.3713C166.329 74.07 168.066 75.1182 169.803 75.1182C171.192 75.1182 172.582 75.4676 173.277 76.5157L177.099 43.3242L177.793 85.5997C177.793 85.5997 178.141 90.8405 179.531 90.1417C180.92 89.7923 181.615 87.3466 181.615 84.2022C181.615 81.0577 181.615 76.8651 184.742 75.817C187.869 74.7688 189.258 73.3713 192.385 72.3231C195.164 70.9256 197.944 68.1305 198.986 67.0824C200.376 66.0342 202.46 63.9379 203.85 63.9379C205.24 63.9379 208.019 67.4317 209.061 68.8293C210.451 70.2268 212.535 73.0219 219.831 73.3713C227.127 73.7207 236.855 74.7688 238.244 73.7207C239.634 72.6725 241.719 70.2268 242.413 70.2268C243.456 70.2268 245.193 73.7207 247.625 73.7207C249.709 73.7207 251.099 75.1182 252.836 75.1182C254.573 75.1182 257.005 76.5157 257.352 78.612C257.352 78.612 258.395 75.1182 258.395 71.6243C258.395 68.1305 259.09 48.2156 260.479 47.8662C261.869 47.5168 261.521 76.8651 261.521 76.8651C261.521 76.8651 260.827 89.0936 263.259 89.4429C265.691 89.7923 264.648 80.7083 264.996 79.3108C265.343 77.9133 266.733 75.1182 268.122 74.7688C269.512 74.4194 271.249 74.4194 273.334 73.3713C275.418 72.3231 276.113 71.6243 278.198 70.5762C280.282 69.528 285.146 64.6367 286.883 64.6367" stroke="white" stroke-width="1.5" stroke-miterlimit="10" stroke-linecap="round" stroke-linejoin="round"/>
</svg>
