<svg width="258" height="60" viewBox="0 0 258 60" fill="none" xmlns="http://www.w3.org/2000/svg">
<g clip-path="url(#clip0)">
<path fill-rule="evenodd" clip-rule="evenodd" d="M55.0361 27.2291C55.045 27.2728 55.045 27.2728 55.0538 27.2903V27.2291H55.0361Z" fill="#FFFFFF"/>
<path fill-rule="evenodd" clip-rule="evenodd" d="M55.0361 27.2291C55.045 27.2728 55.045 27.2728 55.0538 27.2903V27.2291H55.0361Z" fill="#FFFFFF"/>
<path d="M23.2425 36.728C22.2666 36.728 21.556 36.2826 21.2992 36.0942C20.7171 35.6659 20.2891 34.9036 20.1778 34.0985C20.0579 33.2162 20.7599 31.94 20.837 31.7944C20.9226 31.6488 21.1023 31.5974 21.2479 31.683C21.3934 31.7687 21.4448 31.9486 21.3592 32.0942C21.1708 32.4368 20.6914 33.4475 20.7685 34.0214C20.8798 34.8008 21.2992 35.3576 21.6502 35.6145C21.967 35.8458 23.1312 36.5567 24.6293 35.7601C24.9032 35.6145 25.1686 35.486 25.4254 35.3661C26.7352 34.7409 27.3088 34.4154 27.0434 33.3019C26.9492 32.8993 26.6924 32.6167 26.2815 32.4711C25.2542 32.1027 23.5079 32.6424 21.9413 33.8244C21.8043 33.9272 21.616 33.9015 21.5218 33.7644C21.4191 33.6274 21.4448 33.4389 21.5817 33.3447C23.3281 32.0257 25.2542 31.4603 26.4869 31.9057C27.0862 32.1199 27.48 32.5567 27.6255 33.1648C28.0193 34.8008 26.8807 35.3404 25.6823 35.9143C25.434 36.0342 25.1772 36.1541 24.9118 36.2998C24.304 36.6167 23.739 36.728 23.2425 36.728Z" fill="#FFFFFF"/>
<path d="M24.9111 36.1456C24.8341 36.1456 24.7485 36.1113 24.6886 36.0513C24.6286 35.9828 24.0808 35.3832 24.1578 34.7408C24.1835 34.5181 24.2948 34.2098 24.68 33.9614C25.4847 33.4389 26.7602 33.2676 27.3252 33.4646C27.5564 33.5503 27.6505 33.6873 27.6848 33.7901C27.7361 33.9443 27.6505 34.1156 27.4964 34.1755C27.3595 34.2184 27.2139 34.167 27.1454 34.0471C26.8972 33.9271 25.7586 33.9957 25.0139 34.4753C24.8598 34.5695 24.7827 34.6895 24.7656 34.8179C24.7314 35.1348 25.0224 35.5203 25.1337 35.6488C25.245 35.7687 25.245 35.9571 25.1166 36.077C25.0567 36.1199 24.9882 36.1456 24.9111 36.1456Z" fill="#FFFFFF"/>
<path d="M25.271 38.4411C24.141 38.4411 23.2507 36.7623 23.148 36.5653C23.071 36.4196 23.1309 36.2398 23.2764 36.1627C23.4219 36.0856 23.6017 36.1456 23.6788 36.2912C23.8842 36.7023 24.6119 37.8415 25.2625 37.8415C25.271 37.8415 25.2882 37.8415 25.2967 37.8415C26.2041 37.7815 29.6541 36.0685 29.928 35.546C29.9023 35.1092 29.714 34.2526 29.1747 33.9614C28.7809 33.7473 28.233 33.8586 27.5482 34.2698C27.4026 34.3554 27.2229 34.3126 27.1372 34.167C27.0516 34.0214 27.0944 33.8415 27.24 33.7558C28.1217 33.2248 28.875 33.1134 29.4657 33.4304C30.2619 33.8586 30.5101 34.9635 30.5358 35.5546C30.5786 36.5481 26.11 38.3897 25.3395 38.4411C25.3224 38.4411 25.2967 38.4411 25.271 38.4411Z" fill="#FFFFFF"/>
<path d="M27.7108 37.576C27.6423 37.576 27.5653 37.5503 27.5139 37.4989C27.454 37.4476 26.9147 36.9422 26.9575 36.2998C26.9832 35.9144 27.1972 35.5803 27.6081 35.3062C28.9093 34.424 30.142 34.8951 30.1934 34.9122C30.3475 34.9722 30.4245 35.1521 30.3646 35.3062C30.3047 35.4604 30.1249 35.5375 29.9708 35.4775C29.928 35.4604 28.9692 35.1092 27.942 35.8116C27.7023 35.9743 27.5653 36.1542 27.5567 36.3426C27.5396 36.6424 27.805 36.9593 27.9163 37.0621C28.0361 37.1735 28.0533 37.3619 27.942 37.4904C27.882 37.5418 27.7964 37.576 27.7108 37.576Z" fill="#FFFFFF"/>
<path d="M28.4474 39.94C27.4886 39.94 26.4186 38.304 26.2131 37.97C26.1275 37.8244 26.1703 37.6445 26.3073 37.5588C26.4442 37.4732 26.6326 37.516 26.7182 37.6531C27.1548 38.3554 27.9766 39.3319 28.4389 39.3319C29.1922 39.3319 31.5806 38.2184 31.8631 37.6359C32.0001 37.3533 32.1028 36.7794 31.8203 36.3597C31.5635 35.9828 31.0156 35.803 30.2537 35.8629C30.0825 35.88 29.9455 35.7516 29.9284 35.5803C29.9199 35.4175 30.0397 35.2719 30.2109 35.2548C31.4693 35.1691 32.0514 35.6231 32.3254 36.0171C32.7277 36.6081 32.6507 37.4047 32.411 37.8929C32.0001 38.758 29.3634 39.94 28.4474 39.94Z" fill="#FFFFFF"/>
<path d="M30.3816 39.3233C30.3216 39.3233 30.2703 39.3062 30.2189 39.2719C30.159 39.2377 29.6539 38.8865 29.5683 38.3212C29.5341 38.0985 29.5597 37.7644 29.8594 37.3961C30.4072 36.728 31.3403 36.4967 31.8369 36.3768C31.9396 36.3511 32.068 36.3169 32.1022 36.2997C32.2392 36.2055 32.419 36.2484 32.5132 36.3854C32.6073 36.5224 32.556 36.7194 32.419 36.8051C32.3248 36.8651 32.1964 36.8993 31.9738 36.9507C31.5116 37.0621 30.7411 37.2591 30.3131 37.773C30.1847 37.9272 30.1333 38.0728 30.159 38.2184C30.2018 38.5182 30.5357 38.7494 30.5442 38.758C30.6812 38.8522 30.724 39.0407 30.6298 39.1777C30.5699 39.2805 30.4757 39.3233 30.3816 39.3233Z" fill="#FFFFFF"/>
<path d="M30.7921 40.9508C29.9275 40.9508 29.2084 39.7174 29.1314 39.5718C29.0543 39.4262 29.1057 39.2463 29.2512 39.1606C29.3967 39.075 29.5765 39.1349 29.6621 39.2805C29.8676 39.6403 30.424 40.3855 30.8178 40.3512C31.5711 40.2913 33.0008 39.6917 33.1377 39.1778C33.1976 38.9465 33.1377 38.6895 32.9751 38.4754C32.7782 38.2184 32.4786 38.0728 32.1533 38.0728C31.9906 38.0728 31.8536 37.9444 31.8536 37.773C31.8536 37.6103 31.982 37.4733 32.1533 37.4647C32.6669 37.4476 33.1377 37.696 33.4545 38.0985C33.737 38.4583 33.8397 38.9122 33.7284 39.3234C33.4801 40.2656 31.6139 40.8823 30.8777 40.9422C30.8349 40.9508 30.8178 40.9508 30.7921 40.9508Z" fill="#FFFFFF"/>
<path d="M31.7937 40.7281C31.691 40.7281 31.5882 40.6767 31.5369 40.5739C31.5112 40.5311 31.2972 40.1114 31.5112 39.606C31.7338 39.0835 32.333 38.6895 33.2832 38.4326C33.4459 38.3897 33.6085 38.4839 33.6513 38.6467C33.6941 38.8094 33.6 38.9722 33.4373 39.015C32.4957 39.2634 32.1703 39.5974 32.0676 39.8287C31.9649 40.0685 32.0591 40.2655 32.0676 40.2741C32.1447 40.4197 32.0847 40.5996 31.9392 40.6767C31.8879 40.7109 31.8365 40.7281 31.7937 40.7281Z" fill="#FFFFFF"/>
<path d="M34.345 41.105C33.3691 41.105 32.7785 40.4797 32.573 40.0514C32.5045 39.8972 32.5644 39.7174 32.7185 39.6489C32.8726 39.5803 33.0438 39.6403 33.1209 39.7859C33.1722 39.8972 33.6859 40.8394 35.0641 40.3598C35.6634 40.1542 36.0058 39.8459 36.1085 39.4262C36.2626 38.818 35.9801 37.6017 33.7972 35.2634C33.6859 35.1435 33.6859 34.9551 33.8143 34.8351C33.9341 34.7238 34.1225 34.7238 34.2423 34.8523C36.1685 36.9165 36.9732 38.4583 36.6907 39.5718C36.5366 40.197 36.0572 40.651 35.261 40.9337C34.9186 41.0536 34.619 41.105 34.345 41.105Z" fill="#FFFFFF"/>
<path d="M38.6767 41.4562C36.8704 41.4562 36.1256 39.7859 36.1171 39.7602C36.0486 39.606 36.1256 39.4262 36.2712 39.3662C36.4253 39.2977 36.5965 39.3662 36.665 39.5204C36.6992 39.5975 37.521 41.3962 39.6269 40.6767C40.346 40.4283 40.774 39.9572 40.8596 39.3234C41.0052 38.2013 40.0721 36.2656 37.0074 34.2013C36.8704 34.1071 36.8362 33.9187 36.9303 33.7816C37.0245 33.6446 37.2128 33.6103 37.3498 33.7045C40.1491 35.5889 41.6815 37.7217 41.4589 39.409C41.3476 40.2741 40.7655 40.9337 39.8238 41.2591C39.4043 41.3876 39.0277 41.4562 38.6767 41.4562Z" fill="#FFFFFF"/>
<path d="M41.9985 39.0322C41.6047 39.0322 41.2537 38.9123 41.0397 38.7924C40.8942 38.7067 40.8428 38.5268 40.9284 38.3812C41.0055 38.2356 41.1938 38.1842 41.3393 38.2613C41.3821 38.287 42.2895 38.7667 43.0258 37.9358C43.3596 37.5675 43.5736 36.7795 43.3254 35.8545C43.06 34.8609 42.0156 33.0108 38.0606 31.7174C37.9065 31.666 37.8124 31.4947 37.8637 31.3405C37.9151 31.1778 38.0863 31.0921 38.2404 31.1435C42.2553 32.454 43.5308 34.347 43.8989 35.6917C44.2242 36.908 43.8733 37.8673 43.4623 38.3298C43.0086 38.8609 42.4693 39.0322 41.9985 39.0322Z" fill="#FFFFFF"/>
<path d="M35.4582 41.6017C35.3212 41.6017 35.2014 41.5075 35.1671 41.3704C35.073 40.9935 34.9531 40.8651 34.9531 40.8651C34.8418 40.7451 34.8333 40.5653 34.9445 40.4454C35.0558 40.3255 35.2356 40.3169 35.3554 40.4197C35.3983 40.4539 35.6123 40.6595 35.7578 41.2248C35.8006 41.3875 35.6979 41.5503 35.5438 41.5931C35.5095 41.6017 35.4839 41.6017 35.4582 41.6017Z" fill="#FFFFFF"/>
<path d="M39.9862 41.97C39.8492 41.97 39.7208 41.8758 39.6951 41.7302C39.6009 41.3019 39.4897 41.1392 39.4897 41.1306C39.3955 40.9936 39.4297 40.8051 39.5667 40.7109C39.7037 40.6167 39.8834 40.6424 39.9776 40.7709C40.0033 40.8137 40.1659 41.0364 40.2772 41.5931C40.3115 41.7559 40.2087 41.9186 40.0461 41.9529C40.029 41.97 40.0033 41.97 39.9862 41.97Z" fill="#FFFFFF"/>
<path d="M43.5392 39.1692C43.4194 39.1692 43.3081 39.1007 43.2567 38.9808L42.9571 38.2613C42.8972 38.1071 42.9657 37.9272 43.1197 37.8673C43.2738 37.8073 43.4536 37.8758 43.5135 38.03L43.8131 38.7495C43.8731 38.9037 43.8046 39.0835 43.6505 39.1435C43.6163 39.1606 43.5735 39.1692 43.5392 39.1692Z" fill="#FFFFFF"/>
<path d="M43.5386 35.8545C43.4102 35.8545 43.2989 35.7774 43.2561 35.6489C43.2048 35.4947 43.2904 35.3234 43.4445 35.2634C43.5986 35.212 47.1512 33.9615 47.3824 29.7902C47.3909 29.6275 47.5365 29.4904 47.6991 29.5076C47.8618 29.5161 47.9902 29.6617 47.9816 29.8245C47.7333 34.4155 43.6756 35.8288 43.6328 35.8373C43.5986 35.8544 43.5729 35.8545 43.5386 35.8545Z" fill="#FFFFFF"/>
<path d="M24.3891 25.9272C23.6101 25.9272 22.7969 25.8758 22.0863 25.7388C20.9221 25.499 20.4855 24.8566 20.3143 24.3598C20.0917 23.6831 20.28 22.9294 20.5797 22.5953C21.0077 22.1242 22.7027 22.0043 25.0569 21.8844C25.6304 21.8587 26.1184 21.833 26.4351 21.7988C26.769 21.7645 27.1799 21.6617 27.7106 21.5332C29.0718 21.1992 31.3489 20.651 35.3296 20.5225C40.8768 20.3426 44.7291 24.0086 44.8918 24.1628C45.0116 24.2741 45.0116 24.4711 44.9003 24.591C44.7805 24.711 44.5921 24.711 44.4723 24.5996C44.4381 24.5653 40.62 20.9508 35.3467 21.1307C31.4345 21.2506 29.2772 21.7731 27.8562 22.1242C27.3083 22.2613 26.8717 22.3641 26.5036 22.3983C26.1697 22.4326 25.6732 22.4583 25.0911 22.484C23.8669 22.5439 21.3244 22.681 21.0334 22.9979C20.8964 23.1521 20.7337 23.6746 20.8964 24.1713C21.0591 24.6767 21.5042 25.0022 22.2147 25.1478C24.1837 25.5418 27.197 25.1478 27.2227 25.1478C27.3853 25.1221 27.5394 25.242 27.5651 25.4047C27.5908 25.5675 27.4709 25.7217 27.3083 25.7474C27.2141 25.7559 25.8787 25.9272 24.3891 25.9272Z" fill="#FFFFFF"/>
<path d="M32.7785 26.8608C31.7256 26.8608 30.7582 26.7238 30.1932 26.6296C28.7978 26.3897 27.2141 25.7473 27.1457 25.7216C26.9916 25.6617 26.9145 25.4818 26.9744 25.3276C27.0344 25.1735 27.2141 25.0964 27.3682 25.1563C27.3853 25.1649 28.9691 25.7987 30.2959 26.03C31.1691 26.1842 34.1311 26.6039 35.8004 25.636C35.9459 25.5503 36.1257 25.6017 36.2113 25.7473C36.2969 25.893 36.2456 26.0728 36.1 26.1585C35.1669 26.7067 33.9171 26.8608 32.7785 26.8608Z" fill="#FFFFFF"/>
<path d="M41.913 33.6703C41.8189 33.6703 41.7247 33.6274 41.6648 33.5418C41.5706 33.4047 41.6049 33.2163 41.7418 33.1221C41.7504 33.1135 42.0586 32.8908 42.1099 32.4454C42.1613 32 41.9558 31.4947 41.4936 30.9294C40.1667 29.3276 39.1223 29.1478 35.2529 28.4625L34.8077 28.3855C34.7906 28.3855 34.7821 28.3769 34.7649 28.3769C32.9672 27.803 32.4793 27.6231 31.7259 27.272C31.0068 26.9379 29.9796 26.5525 29.971 26.5525C29.8169 26.4925 29.7399 26.3212 29.7912 26.167C29.8512 26.0129 30.0224 25.9358 30.1765 25.9872C30.2193 26.0043 31.2294 26.3812 31.9742 26.7238C32.6933 27.0578 33.1641 27.2377 34.919 27.7945L35.3385 27.8715C39.2849 28.5653 40.4749 28.7709 41.9387 30.5439C42.5208 31.2463 42.7691 31.9144 42.6921 32.5396C42.5979 33.242 42.0928 33.6017 42.0671 33.6189C42.0329 33.6531 41.973 33.6703 41.913 33.6703Z" fill="#FFFFFF"/>
<path d="M22.9682 24.4025C21.3502 24.4025 20.6568 23.4175 20.5113 22.8779C20.4685 22.7152 20.5627 22.5524 20.7253 22.5096C20.888 22.4668 21.0506 22.561 21.0934 22.7238C21.102 22.7666 21.4358 23.8801 23.1308 23.803C23.6359 23.7773 23.9869 23.6317 24.1667 23.3747C24.4663 22.9465 24.2865 22.3126 24.2865 22.3126C24.2352 22.1499 24.3293 21.9871 24.492 21.9357C24.6546 21.8844 24.8173 21.9786 24.8686 22.1327C24.8772 22.167 25.1426 23.0492 24.6717 23.7173C24.3721 24.1456 23.867 24.3769 23.1651 24.4025C23.0966 24.4025 23.0367 24.4025 22.9682 24.4025Z" fill="#FFFFFF"/>
<path d="M39.6525 21.6531C39.507 21.6531 39.3871 21.5503 39.3529 21.4047C39.3186 21.242 39.4299 21.0792 39.5926 21.0535L45.1313 19.9914C45.2939 19.9572 45.4566 20.0685 45.4823 20.2313C45.508 20.394 45.4052 20.5568 45.2426 20.5824L39.7039 21.6445C39.6953 21.6445 39.6782 21.6531 39.6525 21.6531Z" fill="#FFFFFF"/>
<path d="M42.9574 33.0621C42.9146 33.0621 42.8632 33.0535 42.8204 33.0278C42.5636 32.8994 42.3068 32.7966 42.3068 32.7966C42.1527 32.7366 42.0757 32.5653 42.1356 32.4111C42.1955 32.257 42.3667 32.1799 42.5208 32.2398C42.5294 32.2484 42.8119 32.3512 43.0944 32.4968C43.2399 32.5739 43.2998 32.7537 43.2228 32.8994C43.1714 33.0021 43.0687 33.0621 42.9574 33.0621Z" fill="#FFFFFF"/>
<path d="M6.63428 44.9422L5.92375 44.1542L4.13459 45.7645L3.43262 44.985L7.67011 41.1649L8.37208 41.9444L6.60004 43.5461L7.32769 44.3598L10.1955 43.9829L10.9488 44.8223L7.59307 45.2249L6.76269 48.6853L5.96655 47.7945L6.63428 44.9422Z" fill="#FFFFFF"/>
<path d="M9.16877 50.3555C8.95475 49.8672 8.87771 49.3704 8.93763 48.848C8.99756 48.334 9.20301 47.8544 9.54543 47.409C9.88786 46.9636 10.2988 46.6552 10.7782 46.4668C11.2661 46.2784 11.7712 46.2184 12.2934 46.3126C12.8156 46.3983 13.3121 46.621 13.7658 46.9722C14.2281 47.3233 14.5619 47.7516 14.776 48.2313C14.99 48.7195 15.067 49.2163 15.0071 49.7302C14.9472 50.2441 14.7417 50.7238 14.3993 51.1692C14.0569 51.6146 13.646 51.9315 13.158 52.1199C12.6786 52.3083 12.1735 52.3597 11.6428 52.2741C11.112 52.1884 10.6241 51.9657 10.1704 51.6146C9.71665 51.2548 9.38278 50.8351 9.16877 50.3555ZM11.7113 51.3062C12.0537 51.3576 12.3961 51.3148 12.7214 51.1777C13.0467 51.0407 13.3292 50.8265 13.5604 50.5182C13.7915 50.2184 13.937 49.8929 13.9884 49.5417C14.0398 49.1906 13.9969 48.8565 13.86 48.531C13.723 48.2056 13.509 47.9315 13.2008 47.7002C12.9012 47.4689 12.5759 47.3233 12.2335 47.2719C11.891 47.2205 11.5486 47.2634 11.2233 47.4004C10.898 47.5375 10.6155 47.7516 10.3844 48.0599C10.1532 48.3597 10.0077 48.6852 9.95634 49.0364C9.90498 49.3876 9.94778 49.7216 10.0848 50.0471C10.2217 50.3726 10.4357 50.6467 10.7439 50.8779C11.0435 51.1092 11.3688 51.2548 11.7113 51.3062Z" fill="#FFFFFF"/>
<path d="M20.4087 51.409C20.6569 51.7174 20.8025 52.06 20.8367 52.4197C20.871 52.7795 20.7939 53.1478 20.6056 53.5161C20.4172 53.8844 20.169 54.1585 19.8522 54.3469C19.5355 54.5353 19.1845 54.6124 18.7822 54.5867C18.3798 54.561 17.9604 54.4411 17.5238 54.2184L16.3766 53.636L15.6233 55.1007L14.6816 54.621L17.2755 49.5332L19.3643 50.6039C19.8094 50.8266 20.1604 51.0921 20.4087 51.409ZM18.9534 53.6103C19.253 53.5418 19.4927 53.3533 19.6553 53.0279C19.818 52.7024 19.8437 52.4026 19.7153 52.1199C19.5954 51.8373 19.3215 51.5889 18.9106 51.3833L17.8063 50.818L16.779 52.8394L17.8833 53.4047C18.2942 53.6103 18.6538 53.6788 18.9534 53.6103Z" fill="#FFFFFF"/>
<path d="M26.0326 56.5482C26.1438 56.8308 26.1524 57.1392 26.0411 57.4818C25.8956 57.9615 25.6045 58.2784 25.1679 58.4325C24.7313 58.5867 24.1835 58.561 23.5072 58.3555L20.9219 57.5589L22.5998 52.1028L25.0395 52.8565C25.6559 53.045 26.0925 53.3105 26.3579 53.6617C26.6232 54.0128 26.6917 54.4069 26.5548 54.8608C26.4691 55.1435 26.3236 55.3747 26.1182 55.5375C25.9127 55.7002 25.673 55.803 25.3734 55.8287C25.6987 56.0257 25.9127 56.2655 26.0326 56.5482ZM25.0481 57.0878C25.2107 56.5567 24.9368 56.1799 24.2177 55.9572L22.6597 55.4775L22.1632 57.0792L23.7212 57.5589C24.4403 57.7901 24.8769 57.6274 25.0481 57.0878ZM22.8823 54.7409L24.2348 55.1606C24.5601 55.2634 24.8341 55.2719 25.0395 55.1949C25.2535 55.1178 25.3991 54.955 25.4761 54.6981C25.5532 54.4411 25.5275 54.227 25.3991 54.0385C25.2707 53.8501 25.0395 53.7131 24.7142 53.6103L23.3616 53.1906L22.8823 54.7409Z" fill="#FFFFFF"/>
<path d="M32.2216 59.092L32.1103 59.9743L27.8643 59.4261L28.5919 53.7644L32.7267 54.2955L32.6154 55.1777L29.5336 54.7837L29.3452 56.2569L32.0761 56.6081L31.9648 57.4732L29.234 57.122L29.0371 58.6809L32.2216 59.092Z" fill="#FFFFFF"/>
<path d="M38.3509 55.1177L36.459 55.1691L36.5875 59.9828L35.5345 60.0085L35.4061 55.1948L33.5228 55.2462L33.4971 54.3469L38.3167 54.2184L38.3509 55.1177Z" fill="#FFFFFF"/>
<path d="M46.039 57.6788L46.4671 59.7859L45.5083 59.9829L45.26 58.7495L40.5175 59.7088L39.3789 54.1156L40.3976 53.9101L41.3478 58.6295L44.1643 58.0557L43.214 53.3362L44.2413 53.1306L45.1915 57.8501L46.039 57.6788Z" fill="#FFFFFF"/>
<path d="M51.8601 55.4261L52.194 56.2484L48.2219 57.8415L46.1074 52.5396L49.9768 50.9893L50.3107 51.8115L47.4258 52.9679L47.9736 54.3469L50.5332 53.3276L50.8586 54.1413L48.2818 55.1606L48.8639 56.6252L51.8601 55.4261Z" fill="#FFFFFF"/>
<path d="M55.5406 47.6831L58.5625 52.5225L57.6636 53.0878L56.371 51.015L53.8713 52.5825L55.1639 54.6553L54.2651 55.2206L51.2432 50.3812L52.142 49.8159L53.3919 51.8116L55.8916 50.2441L54.6417 48.2484L55.5406 47.6831Z" fill="#FFFFFF"/>
<path d="M60.5658 44.4882L59.1533 45.7473L62.3635 49.3361L61.5845 50.0385L58.3743 46.4496L56.9703 47.7087L56.3711 47.0406L59.9665 43.8201L60.5658 44.4882Z" fill="#FFFFFF"/>
<path d="M63.1689 40.3597C63.5284 40.1799 63.888 40.1028 64.2475 40.1456C64.6071 40.1884 64.9495 40.334 65.2748 40.5996C65.6001 40.8565 65.8141 41.1649 65.9254 41.5075C66.0367 41.8501 66.0452 42.2184 65.9425 42.6039C65.8398 42.9893 65.6343 43.3747 65.3176 43.7602L64.5043 44.7623L65.7798 45.7987L65.1121 46.621L60.6777 43.0321L62.1587 41.2077C62.4755 40.8223 62.8093 40.5396 63.1689 40.3597ZM65.0265 42.2355C65.0265 41.9272 64.881 41.6531 64.5985 41.4304C64.316 41.1991 64.0249 41.1221 63.7167 41.182C63.4171 41.242 63.1175 41.4561 62.8264 41.8158L62.0474 42.7837L63.8109 44.2141L64.5899 43.2548C64.881 42.8779 65.0265 42.5439 65.0265 42.2355Z" fill="#FFFFFF"/>
<path d="M5.87258 21.0364C5.39318 21.2676 4.89667 21.3619 4.38303 21.319C3.8694 21.2762 3.38144 21.0878 2.92773 20.7623C2.47402 20.4368 2.14016 20.0342 1.9347 19.5632C1.72925 19.0835 1.6522 18.5867 1.72069 18.0642C1.78917 17.5417 1.98607 17.045 2.31993 16.5739C2.59387 16.197 2.91061 15.8972 3.2616 15.6745C3.62114 15.4518 3.99781 15.3319 4.40872 15.2891L4.53712 16.2227C3.93788 16.2998 3.45849 16.5824 3.1075 17.0706C2.87637 17.3876 2.74796 17.7216 2.70516 18.0728C2.66235 18.424 2.71372 18.758 2.85925 19.0749C3.00478 19.3918 3.23591 19.6659 3.55266 19.8886C3.8694 20.1113 4.1947 20.2398 4.54568 20.2826C4.89667 20.3169 5.23053 20.2569 5.54727 20.1113C5.86402 19.9572 6.13796 19.7259 6.36909 19.409C6.72008 18.9208 6.83136 18.3726 6.70296 17.773L7.6275 17.5931C7.72167 17.9871 7.73023 18.3897 7.63606 18.8008C7.54189 19.212 7.36212 19.606 7.08818 19.9914C6.75432 20.4539 6.34341 20.8051 5.87258 21.0364Z" fill="#FFFFFF"/>
<path d="M9.61321 16.3254C9.09958 16.4711 8.5945 16.4711 8.08943 16.3254C7.58435 16.1884 7.14776 15.9143 6.76254 15.5203C6.37731 15.1177 6.12905 14.6638 6.0092 14.1584C5.88935 13.6531 5.91504 13.1391 6.07769 12.6338C6.24034 12.1284 6.5314 11.6745 6.95087 11.2719C7.37034 10.8693 7.83261 10.5952 8.34625 10.4582C8.85988 10.3126 9.36496 10.3126 9.86147 10.4496C10.358 10.5867 10.8031 10.8608 11.1969 11.2633C11.5907 11.6659 11.839 12.1199 11.9503 12.6252C12.0701 13.1306 12.0444 13.6359 11.8818 14.1413C11.7191 14.6466 11.4281 15.1006 11.0086 15.5032C10.5977 15.9057 10.1269 16.1798 9.61321 16.3254ZM10.9315 13.9357C11.0343 13.6017 11.0428 13.2591 10.9487 12.9164C10.8631 12.5738 10.6833 12.2655 10.4265 11.9914C10.1611 11.7173 9.86147 11.5289 9.52761 11.4261C9.19375 11.3233 8.85132 11.3147 8.51746 11.409C8.17503 11.4946 7.87541 11.6745 7.60147 11.9314C7.32754 12.1884 7.1392 12.4967 7.03648 12.8308C6.93375 13.1648 6.92519 13.5075 7.01935 13.8415C7.10496 14.1841 7.28473 14.4925 7.54155 14.7666C7.80693 15.0406 8.10655 15.2291 8.44041 15.3319C8.78284 15.4347 9.1167 15.4432 9.45056 15.349C9.78443 15.2633 10.0926 15.0835 10.3665 14.8179C10.649 14.5696 10.8288 14.2698 10.9315 13.9357Z" fill="#FFFFFF"/>
<path d="M17.3608 10.5439L15.4689 9.78154C15.4347 9.8158 15.3747 9.85863 15.2891 9.91002L14.2105 10.6124L15.1179 12.0085L14.2276 12.591L11.1201 7.79439L13.0891 6.50959C13.5 6.24407 13.9109 6.07276 14.3047 6.0128C14.6984 5.95285 15.0666 5.99567 15.3919 6.14128C15.7257 6.28689 15.9997 6.53529 16.2308 6.88647C16.4619 7.24621 16.5818 7.61452 16.5732 7.99139C16.5647 8.36826 16.4448 8.71944 16.1966 9.06205L18.3196 9.91858L17.3608 10.5439ZM14.57 6.96355C14.2619 6.92929 13.9194 7.04064 13.5256 7.28903L12.4898 7.96569L13.7311 9.87576L14.7669 9.1991C15.1522 8.9507 15.3919 8.67661 15.486 8.37683C15.5802 8.07704 15.5288 7.77726 15.3234 7.47747C15.135 7.16912 14.8782 6.99781 14.57 6.96355Z" fill="#FFFFFF"/>
<path d="M22.0094 2.07288L21.9495 8.29986L20.9907 8.71099L16.4707 4.42834L17.5322 3.98294L20.9993 7.29772L21.0421 2.49258L22.0094 2.07288Z" fill="#FFFFFF"/>
<path d="M28.9696 5.31053L29.1751 6.17563L25.0146 7.1692L23.6963 1.61888L27.7455 0.651001L27.9509 1.5161L24.929 2.23558L25.2714 3.68312L27.9509 3.04929L28.1564 3.89725L25.4769 4.53109L25.845 6.06428L28.9696 5.31053Z" fill="#FFFFFF"/>
<path d="M31.3141 1.12206L29.4308 1.26767L29.3623 0.376874L34.1905 0L34.259 0.890792L32.3756 1.0364L32.7523 5.83298L31.6993 5.91863L31.3141 1.12206Z" fill="#FFFFFF"/>
<path d="M36.6482 5.49891C36.2031 5.20769 35.8692 4.83082 35.6381 4.36829C35.4069 3.90577 35.3213 3.39185 35.3641 2.8351C35.4069 2.27836 35.5782 1.79013 35.8778 1.36187C36.1774 0.942168 36.5712 0.616686 37.0506 0.402554C37.53 0.188421 38.0607 0.102768 38.6343 0.145594C39.0966 0.179856 39.516 0.29977 39.8927 0.488207C40.2608 0.676644 40.569 0.942168 40.8087 1.26765L40.0725 1.85866C39.6958 1.379 39.2078 1.12204 38.6086 1.07065C38.2148 1.03639 37.8638 1.09634 37.5385 1.24195C37.2132 1.38756 36.9564 1.61026 36.7595 1.89292C36.5626 2.18414 36.4513 2.51819 36.4171 2.90362C36.3828 3.28906 36.4428 3.64024 36.5969 3.95716C36.7595 4.28264 36.9821 4.5396 37.2731 4.7366C37.5642 4.9336 37.9152 5.04495 38.3004 5.07921C38.8997 5.12204 39.4219 4.94217 39.8756 4.52247L40.509 5.22482C40.218 5.51604 39.8756 5.72161 39.4732 5.85866C39.0709 5.98714 38.6428 6.02996 38.172 5.9957C37.5984 5.95287 37.0934 5.78157 36.6482 5.49891Z" fill="#FFFFFF"/>
<path d="M45.9792 6.53535L45.7652 7.40045L41.6133 6.34691L43.0172 0.813721L47.0578 1.83299L46.8438 2.69809L43.8305 1.93578L43.4624 3.37475L46.1333 4.05141L45.9193 4.89937L43.2484 4.22271L42.8631 5.74734L45.9792 6.53535Z" fill="#FFFFFF"/>
<path d="M54.0179 4.73656L51.6552 9.93571L50.859 9.57596L49.6006 4.75369L47.9998 8.27404L47.041 7.8372L49.4037 2.63806L50.1999 2.9978L51.4583 7.82007L53.0591 4.29973L54.0179 4.73656Z" fill="#FFFFFF"/>
<path d="M56.7655 7.51173L55.1989 6.44963L55.704 5.71301L59.7018 8.44535L59.1967 9.19053L57.6301 8.12843L54.9249 12.1027L54.0518 11.5032L56.7655 7.51173Z" fill="#FFFFFF"/>
<path d="M59.9581 16.3512L60.2663 14.3383C60.2235 14.3126 60.1721 14.2612 60.1036 14.1927L59.1705 13.3019L58.0234 14.5096L57.2529 13.7816L61.1823 9.64453L62.8858 11.2634C63.2454 11.606 63.5022 11.9572 63.6563 12.334C63.8104 12.7023 63.8532 13.0707 63.7847 13.4218C63.7162 13.773 63.5364 14.1071 63.2539 14.4068C62.9543 14.7152 62.629 14.9122 62.2609 14.9978C61.8928 15.0749 61.5161 15.0407 61.1309 14.8779L60.7799 17.1392L59.9581 16.3512ZM62.7831 12.8051C62.7403 12.4968 62.5605 12.1884 62.2266 11.8715L61.3278 11.015L59.7612 12.6681L60.6601 13.5246C60.9939 13.8415 61.3192 14.0128 61.6274 14.03C61.9356 14.0471 62.2181 13.9272 62.4663 13.6617C62.7146 13.4047 62.8259 13.1135 62.7831 12.8051Z" fill="#FFFFFF"/>
<path d="M64.8549 21.0108L64.1443 21.5418L61.5762 18.1157L66.139 14.6896L68.6387 18.0215L67.9281 18.5525L66.0705 16.0686L64.8806 16.9594L66.5328 19.1692L65.8393 19.7003L64.1872 17.4904L62.9287 18.4326L64.8549 21.0108Z" fill="#FFFFFF"/>
<path d="M58.5891 35.6059C58.2381 35.6059 58.2381 35.6059 58.1696 33.1306C58.1268 31.8201 58.0925 30.0727 58.0583 28.3168C58.0412 27.4603 58.0241 26.5438 57.9984 25.6702C57.947 26.3211 57.9042 26.9807 57.8528 27.6059C57.4163 33.6273 57.4163 33.6273 57.0653 33.6273C56.7314 33.6273 56.603 33.2505 56.3462 32.3939L56.2777 32.1798C56.252 32.0856 56.2092 32.0428 56.1579 32.0428C56.1407 32.0428 56.1322 32.0428 56.1236 32.0428C56.1236 32.0428 54.9166 32.0342 54.7197 32.0342C54.694 32.0342 54.6683 32.0342 54.6341 32.0342C54.4286 32.0428 54.0605 32.0685 53.7695 31.6573C53.5726 31.3747 53.1017 30.9207 52.6737 30.9207C52.3141 30.9207 51.8348 31.289 51.4838 31.5545C51.3896 31.6316 51.2954 31.7001 51.2098 31.7601C50.7561 32.0856 50.2339 32.0342 50.097 32.0171H47.4432C47.2805 32.0171 47.1436 31.88 47.1436 31.7173C47.1436 31.5545 47.2805 31.4175 47.4432 31.4175H50.1141C50.1312 31.4175 50.1483 31.4175 50.174 31.4261C50.174 31.4261 50.5507 31.486 50.8588 31.2719C50.9359 31.2205 51.0215 31.152 51.1157 31.0834C51.5608 30.7494 52.1087 30.3211 52.6737 30.3211C53.3842 30.3211 54.0006 30.9464 54.2574 31.3233C54.343 31.4518 54.4029 31.4517 54.5827 31.4432C54.6255 31.4432 54.6598 31.4346 54.7026 31.4346C54.8823 31.4346 55.9353 31.4432 56.0894 31.4432C56.3034 31.4261 56.6886 31.5117 56.8427 31.9999L56.8941 32.1627C56.9882 31.0406 57.1252 29.2333 57.245 27.5717C57.733 20.8479 57.733 20.8479 58.1011 20.8479C58.4863 20.8479 58.4863 20.8479 58.649 28.3168C58.6918 30.2612 58.7346 32.3682 58.786 33.7473C58.8373 33.5503 58.8887 33.3618 58.9315 33.1905C59.1284 32.4368 59.2054 32.137 59.2653 32.0342C59.3852 31.7944 59.5222 31.5203 59.9502 31.4689C60.0444 31.4603 60.207 31.4603 60.5066 31.4689C61.0203 31.4774 62.0903 31.5031 62.3814 31.3661C62.5184 31.3061 62.7837 31.0235 63.0234 30.7751C63.5371 30.2355 64.0593 29.6787 64.6157 29.6787C65.292 29.6787 65.8484 30.3297 66.2165 30.758C66.3021 30.8607 66.3792 30.9464 66.4306 30.9978C66.4819 31.0492 66.5333 31.1006 66.5846 31.1434C66.7644 31.3233 66.8586 31.4175 67.1496 31.4346C67.629 31.4603 69.6836 31.4346 69.7093 31.4346C69.8719 31.4346 70.0089 31.5631 70.0089 31.7344C70.0089 31.8971 69.8805 32.0342 69.7093 32.0428C69.6237 32.0428 67.6119 32.0685 67.1154 32.0428C66.5932 32.0171 66.3621 31.7858 66.1566 31.5717C66.1138 31.5288 66.071 31.486 66.0282 31.4432C65.9512 31.3747 65.8656 31.2719 65.7628 31.152C65.4803 30.8265 65.0181 30.2783 64.6157 30.2783C64.3247 30.2783 63.8025 30.8265 63.46 31.1862C63.1433 31.5203 62.8779 31.8029 62.6297 31.9143C62.2444 32.0856 61.3969 32.0856 60.4981 32.0685C60.2926 32.0599 60.0786 32.0599 60.0187 32.0685C59.9331 32.077 59.9245 32.077 59.8132 32.2997C59.779 32.3854 59.642 32.8907 59.5307 33.3447C58.9743 35.4346 58.9058 35.6059 58.5891 35.6059Z" fill="#FFFFFF"/>
<path d="M12.8409 35.6745C12.4899 35.6745 12.4899 35.6745 12.4214 33.1991C12.3786 31.8886 12.3444 30.1413 12.3101 28.3854C12.293 27.5289 12.2759 26.6124 12.2502 25.7301C12.1989 26.3811 12.156 27.0406 12.1047 27.6659C11.6681 33.6873 11.6681 33.6873 11.3171 33.6873C10.9832 33.6873 10.8548 33.3104 10.598 32.4539L10.5295 32.2312C10.5039 32.137 10.4611 32.0942 10.4097 32.0942C10.3926 32.0942 10.384 32.0942 10.3754 32.0942C10.3754 32.0942 9.1684 32.0856 8.97151 32.0856C8.94582 32.0856 8.92014 32.0856 8.8859 32.0856C8.68045 32.0942 8.31234 32.1199 8.02128 31.7087C7.83295 31.4346 7.36211 30.9807 6.93408 30.9807C6.57454 30.9807 6.09515 31.349 5.74416 31.6145C5.64999 31.6916 5.55583 31.7601 5.47022 31.8201C5.01651 32.1456 4.49431 32.0942 4.35734 32.077L0.299621 32.0685C0.13697 32.0685 0 31.9314 0 31.7601C0 31.5974 0.13697 31.4603 0.299621 31.4603L4.38303 31.4689C4.40015 31.4689 4.41727 31.4689 4.43439 31.4775C4.43439 31.4775 4.81106 31.5374 5.11924 31.3233C5.19628 31.2719 5.28189 31.2034 5.37606 31.1349C5.82121 30.8008 6.36909 30.3725 6.93408 30.3725C7.64461 30.3725 8.26098 30.9978 8.51779 31.3747C8.6034 31.5032 8.66333 31.5032 8.8431 31.4946C8.8859 31.4946 8.92014 31.486 8.96295 31.486C9.14272 31.486 10.1957 31.4946 10.3498 31.4946C10.5552 31.4689 10.949 31.5631 11.1031 32.0513L11.1545 32.2055C11.2486 31.0835 11.3856 29.2762 11.5054 27.6145C11.9934 20.8907 11.9934 20.8907 12.3615 20.8907C12.7467 20.8907 12.7467 20.8907 12.9094 28.3683C12.9522 30.3126 12.995 32.4197 13.0464 33.7901C13.0977 33.5931 13.1491 33.4047 13.1919 33.2334C13.3888 32.4796 13.4658 32.1798 13.5257 32.0685C13.6456 31.8286 13.7826 31.5546 14.2106 31.5032C14.3048 31.4946 14.4674 31.4946 14.767 31.5032C15.2807 31.5117 16.3507 31.5374 16.6418 31.4004C16.7788 31.3404 17.0442 31.0578 17.2838 30.8094C17.7975 30.2698 18.3197 29.713 18.8761 29.713C19.3812 29.713 20.2629 30.4582 22.1463 32.4539C22.326 32.6424 22.4459 32.7794 22.4973 32.8222C22.6171 32.9336 22.6257 33.122 22.5144 33.2505C22.4031 33.3704 22.2148 33.379 22.0863 33.2676C22.035 33.2162 21.8895 33.0706 21.7011 32.865C19.7407 30.7837 19.073 30.3297 18.8676 30.3126C18.5765 30.3126 18.0543 30.8608 17.7119 31.2205C17.3951 31.5546 17.1298 31.8372 16.8815 31.9486C16.4963 32.1199 15.6488 32.1199 14.7413 32.1027C14.5359 32.1027 14.3219 32.0942 14.262 32.1027C14.1763 32.1113 14.1678 32.1113 14.0565 32.334C14.0223 32.4197 13.8853 32.925 13.774 33.379C13.2261 35.5032 13.1576 35.6745 12.8409 35.6745Z" fill="#FFFFFF"/>
</g>
<path d="M90.4301 20.0287C90.8603 20.1369 91.1878 20.3232 91.4125 20.5876C91.6372 20.846 91.7495 21.1705 91.7495 21.5611C91.7495 22.114 91.5312 22.5437 91.0947 22.8501C90.6581 23.1566 90.0256 23.3099 89.1974 23.3099H86V17H89.0144C89.772 17 90.3627 17.1412 90.7865 17.4237C91.2102 17.7061 91.4221 18.1057 91.4221 18.6225C91.4221 18.9531 91.3354 19.2385 91.1621 19.4789C90.9951 19.7192 90.7512 19.9025 90.4301 20.0287ZM87.2327 19.6952H88.9085C89.313 19.6952 89.6212 19.6201 89.833 19.4699C90.0449 19.3196 90.1508 19.0973 90.1508 18.8028C90.1508 18.5084 90.0449 18.286 89.833 18.1358C89.6212 17.9795 89.313 17.9014 88.9085 17.9014H87.2327V19.6952ZM89.1589 22.4085C90.0449 22.4085 90.4879 22.096 90.4879 21.471C90.4879 20.858 90.0449 20.5515 89.1589 20.5515H87.2327V22.4085H89.1589Z" fill="#FFFFFF"/>
<path d="M99.9655 22.3273V23.3099H94.9093V17H99.8306V17.9825H96.1613V19.6231H99.4165V20.5876H96.1613V22.3273H99.9655Z" fill="#FFFFFF"/>
<path d="M107.987 17.9915H105.753V23.3099H104.51V17.9915H102.286V17H107.987V17.9915Z" fill="#FFFFFF"/>
<path d="M115.857 22.3273V23.3099H110.8V17H115.722V17.9825H112.052V19.6231H115.308V20.5876H112.052V22.3273H115.857Z" fill="#FFFFFF"/>
<path d="M121.759 17C122.344 17 122.851 17.0901 123.281 17.2704C123.718 17.4507 124.052 17.7091 124.283 18.0456C124.514 18.3822 124.629 18.7818 124.629 19.2445C124.629 19.7012 124.514 20.1008 124.283 20.4434C124.052 20.7799 123.718 21.0383 123.281 21.2186C122.851 21.3989 122.344 21.489 121.759 21.489H120.238V23.3099H118.986V17H121.759ZM121.702 20.4975C122.247 20.4975 122.661 20.3893 122.944 20.173C123.226 19.9566 123.368 19.6471 123.368 19.2445C123.368 18.8419 123.226 18.5324 122.944 18.3161C122.661 18.0997 122.247 17.9915 121.702 17.9915H120.238V20.4975H121.702Z" fill="#FFFFFF"/>
<path d="M127.557 17H128.79V21.48L132.411 17H133.576V23.3099H132.343V18.8389L128.722 23.3099H127.557V17Z" fill="#FFFFFF"/>
<path d="M143.19 17V23.3099H141.938V20.6056H138.452V23.3099H137.2V17H138.452V19.6051H141.938V17H143.19Z" fill="#FFFFFF"/>
<path d="M151.283 21.8496H147.913L147.248 23.3099H145.958L148.991 17H150.224L153.267 23.3099H151.958L151.283 21.8496ZM150.869 20.9301L149.598 18.1718L148.336 20.9301H150.869Z" fill="#FFFFFF"/>
<path d="M158.808 17C159.393 17 159.9 17.0901 160.33 17.2704C160.767 17.4507 161.1 17.7091 161.332 18.0456C161.563 18.3822 161.678 18.7818 161.678 19.2445C161.678 19.7012 161.563 20.1008 161.332 20.4434C161.1 20.7799 160.767 21.0383 160.33 21.2186C159.9 21.3989 159.393 21.489 158.808 21.489H157.287V23.3099H156.035V17H158.808ZM158.751 20.4975C159.296 20.4975 159.71 20.3893 159.993 20.173C160.275 19.9566 160.417 19.6471 160.417 19.2445C160.417 18.8419 160.275 18.5324 159.993 18.3161C159.71 18.0997 159.296 17.9915 158.751 17.9915H157.287V20.4975H158.751Z" fill="#FFFFFF"/>
<path d="M170.587 17V23.3099H169.335V20.6056H165.848V23.3099H164.596V17H165.848V19.6051H169.335V17H170.587Z" fill="#FFFFFF"/>
<path d="M178.68 21.8496H175.309L174.645 23.3099H173.354L176.388 17H177.62L180.664 23.3099H179.354L178.68 21.8496ZM178.266 20.9301L176.994 18.1718L175.733 20.9301H178.266Z" fill="#FFFFFF"/>
<path d="M188.245 17V23.3099H187.012V21.5521H185.346H185.211L183.959 23.3099H182.64L184.085 21.3628C183.616 21.2006 183.253 20.9452 182.996 20.5966C182.746 20.2421 182.621 19.8154 182.621 19.3166C182.621 18.8359 182.736 18.4212 182.967 18.0727C183.198 17.7241 183.526 17.4597 183.95 17.2794C184.373 17.0931 184.871 17 185.442 17H188.245ZM185.481 17.9915C184.967 17.9915 184.572 18.1027 184.296 18.3251C184.027 18.5474 183.892 18.8719 183.892 19.2986C183.892 19.7132 184.024 20.0347 184.287 20.2631C184.55 20.4854 184.932 20.5966 185.433 20.5966H187.012V17.9915H185.481Z" fill="#FFFFFF"/>
<path d="M198.76 20.6507H197.508V23.3099H196.275V17H197.508V19.6411H198.798L200.734 17H202.063L199.761 20.0558L202.15 23.3099H200.734L198.76 20.6507Z" fill="#FFFFFF"/>
<path d="M210.652 17V23.3099H209.419V17.9915H206.761L206.704 19.569C206.671 20.4524 206.594 21.1705 206.472 21.7234C206.35 22.2702 206.155 22.6879 205.885 22.9763C205.615 23.2588 205.243 23.4 204.768 23.4C204.601 23.4 204.373 23.37 204.084 23.3099L204.171 22.2913C204.254 22.3153 204.35 22.3273 204.46 22.3273C204.851 22.3273 205.127 22.111 205.288 21.6783C205.455 21.2396 205.557 20.5515 205.596 19.6141L205.692 17H210.652Z" fill="#FFFFFF"/>
<path d="M214.292 17H215.525V21.48L219.146 17H220.311V23.3099H219.078V18.8389L215.457 23.3099H214.292V17Z" fill="#FFFFFF"/>
<path d="M229.925 17V23.3099H228.673V20.6056H225.187V23.3099H223.935V17H225.187V19.6051H228.673V17H229.925Z" fill="#FFFFFF"/>
<path d="M233.559 17H234.792V21.48L238.413 17H239.578V23.3099H238.346V18.8389L234.725 23.3099H233.559V17Z" fill="#FFFFFF"/>
<path d="M245.687 20.6507H244.435V23.3099H243.202V17H244.435V19.6411H245.725L247.661 17H248.99L246.688 20.0558L249.077 23.3099H247.661L245.687 20.6507Z" fill="#FFFFFF"/>
<path d="M256.016 21.8496H252.645L251.981 23.3099H250.69L253.724 17H254.957L258 23.3099H256.69L256.016 21.8496ZM255.602 20.9301L254.331 18.1718L253.069 20.9301H255.602Z" fill="#FFFFFF"/>
<path d="M90.9779 41.3979H88.4697V46.3926H86V34.5408H88.4697V39.5016H91.0551L94.9333 34.5408H97.5959L92.9846 40.2805L97.7696 46.3926H94.9333L90.9779 41.3979Z" fill="#FFFFFF"/>
<path d="M107.808 46.5619C106.432 46.5619 105.191 46.3023 104.084 45.7831C102.978 45.2526 102.11 44.5245 101.48 43.599C100.849 42.6621 100.534 41.618 100.534 40.4667C100.534 39.3154 100.849 38.2769 101.48 37.3514C102.11 36.4145 102.978 35.6865 104.084 35.1672C105.191 34.6367 106.432 34.3715 107.808 34.3715C109.185 34.3715 110.426 34.6367 111.532 35.1672C112.638 35.6865 113.506 36.4088 114.137 37.3344C114.767 38.26 115.082 39.3041 115.082 40.4667C115.082 41.6293 114.767 42.6734 114.137 43.599C113.506 44.5245 112.638 45.2526 111.532 45.7831C110.426 46.3023 109.185 46.5619 107.808 46.5619ZM107.808 44.6318C108.709 44.6318 109.519 44.4568 110.239 44.1069C110.96 43.7457 111.526 43.2491 111.937 42.617C112.349 41.9736 112.555 41.2568 112.555 40.4667C112.555 39.6766 112.349 38.9655 111.937 38.3334C111.526 37.69 110.96 37.1933 110.239 36.8434C109.519 36.4822 108.709 36.3016 107.808 36.3016C106.908 36.3016 106.097 36.4822 105.377 36.8434C104.657 37.1933 104.091 37.69 103.679 38.3334C103.268 38.9655 103.062 39.6766 103.062 40.4667C103.062 41.2568 103.268 41.9736 103.679 42.617C104.091 43.2491 104.657 43.7457 105.377 44.1069C106.097 44.4568 106.908 44.6318 107.808 44.6318Z" fill="#FFFFFF"/>
<path d="M125.534 34.5408C126.705 34.5408 127.721 34.7101 128.583 35.0487C129.458 35.3873 130.127 35.8727 130.59 36.5048C131.053 37.1369 131.284 37.8875 131.284 38.7566C131.284 39.6145 131.053 40.3651 130.59 41.0085C130.127 41.6406 129.458 42.126 128.583 42.4646C127.721 42.8032 126.705 42.9725 125.534 42.9725H122.486V46.3926H119.978V34.5408H125.534ZM125.419 41.1101C126.512 41.1101 127.342 40.9069 127.908 40.5006C128.474 40.0942 128.757 39.5129 128.757 38.7566C128.757 38.0004 128.474 37.4191 127.908 37.0127C127.342 36.6064 126.512 36.4032 125.419 36.4032H122.486V41.1101H125.419Z" fill="#FFFFFF"/>
<path d="M144.674 40.2297C145.536 40.4328 146.192 40.7827 146.642 41.2794C147.092 41.7648 147.318 42.3743 147.318 43.108C147.318 44.1464 146.88 44.9535 146.006 45.5291C145.131 46.1048 143.864 46.3926 142.205 46.3926H135.799V34.5408H141.838C143.356 34.5408 144.539 34.806 145.388 35.3365C146.237 35.8671 146.662 36.6177 146.662 37.5884C146.662 38.2092 146.488 38.7454 146.141 39.1969C145.806 39.6484 145.317 39.9926 144.674 40.2297ZM138.268 39.6032H141.626C142.436 39.6032 143.053 39.4621 143.478 39.1799C143.902 38.8977 144.115 38.4801 144.115 37.927C144.115 37.3739 143.902 36.9563 143.478 36.6741C143.053 36.3806 142.436 36.2339 141.626 36.2339H138.268V39.6032ZM142.127 44.6995C143.902 44.6995 144.79 44.1126 144.79 42.9387C144.79 41.7873 143.902 41.2117 142.127 41.2117H138.268V44.6995H142.127Z" fill="#FFFFFF"/>
<path d="M162.427 44.5471V46.3926H152.297V34.5408H162.157V36.3863H154.806V39.4678H161.327V41.2794H154.806V44.5471H162.427Z" fill="#FFFFFF"/>
<path d="M177.147 36.4032H172.671V46.3926H170.182V36.4032H165.725V34.5408H177.147V36.4032Z" fill="#FFFFFF"/>
<path d="M195.228 44.5302V49H192.913V46.3926H181.452V34.5408H183.922V44.5302H190.732V34.5408H193.221V44.5302H195.228Z" fill="#FFFFFF"/>
<path d="M209.776 44.5471V46.3926H199.646V34.5408H209.506V36.3863H202.154V39.4678H208.676V41.2794H202.154V44.5471H209.776Z" fill="#FFFFFF"/>
<path d="M226.695 34.5408V46.3926H224.187V41.3133H217.202V46.3926H214.694V34.5408H217.202V39.4339H224.187V34.5408H226.695Z" fill="#FFFFFF"/>
<path d="M242.408 36.4032H237.932V46.3926H235.443V36.4032H230.986V34.5408H242.408V36.4032Z" fill="#FFFFFF"/>
<path d="M252.25 34.5408C253.421 34.5408 254.437 34.7101 255.299 35.0487C256.173 35.3873 256.842 35.8727 257.305 36.5048C257.768 37.1369 258 37.8875 258 38.7566C258 39.6145 257.768 40.3651 257.305 41.0085C256.842 41.6406 256.173 42.126 255.299 42.4646C254.437 42.8032 253.421 42.9725 252.25 42.9725H249.202V46.3926H246.694V34.5408H252.25ZM252.135 41.1101C253.228 41.1101 254.058 40.9069 254.623 40.5006C255.189 40.0942 255.472 39.5129 255.472 38.7566C255.472 38.0004 255.189 37.4191 254.623 37.0127C254.058 36.6064 253.228 36.4032 252.135 36.4032H249.202V41.1101H252.135Z" fill="#FFFFFF"/>
<defs>
<clipPath id="clip0">
<rect width="70" height="60" fill="white"/>
</clipPath>
</defs>
</svg>
